<svg height="496pt" viewBox="0 0 496 496" width="496pt" xmlns="http://www.w3.org/2000/svg"><g fill="#57a4ff"><path d="m374.488281 73.757812c9.496094-2.453124 18.796875-5.601562 27.832031-9.417968-41.949218-35.371094-94.800781-55.207032-149.664062-56.167969 47.191406 1.472656 89.9375 26.136719 121.832031 65.585937zm0 0"/><path d="m329.054688 82.675781c15.3125-2.046875 30.484374-5.027343 45.433593-8.917969-31.894531-39.449218-74.640625-64.113281-121.832031-65.601562h-.175781c30.128906 2.601562 57.121093 30.753906 76.574219 74.519531zm0 0"/><path d="m252.398438 8.148438c-.714844-.105469-1.4375-.132813-2.160157-.082032-.742187-.0625-1.492187-.089844-2.238281-.078125 1.511719 0 2.984375.144531 4.480469.175781zm0 0"/><path d="m374.488281 422.21875c9.496094 2.453125 18.796875 5.601562 27.832031 9.417969 30.578126-25.65625 54.28125-58.53125 68.960938-95.648438h-52.160156c-9.183594 31.351563-24.339844 60.632813-44.632813 86.230469zm0 0"/><path d="m252.398438 8.148438c-.503907-.066407-1.011719-.09375-1.519532-.082032-.957031-.078125-1.917968-.078125-2.878906-.078125.746094-.011719 1.496094.015625 2.238281.078125.722657-.050781 1.445313-.023437 2.160157.082032zm0 0"/><path d="m248 487.988281c.746094.011719 1.496094-.015625 2.238281-.078125.722657.050782 1.445313.023438 2.160157-.082031h.082031c-1.503907.015625-2.976563.160156-4.480469.160156zm0 0"/><path d="m329.054688 413.300781c-26.863282-3.613281-53.945313-5.386719-81.054688-5.3125v80c1.503906 0 2.976562-.144531 4.480469-.175781 30.128906-2.59375 57.121093-30.734375 76.574219-74.511719zm0 0"/><path d="m248 487.988281c.960938 0 1.921875 0 2.878906-.078125.507813.011719 1.015625-.015625 1.519532-.082031-.714844.105469-1.4375.132813-2.160157.082031-.742187.0625-1.492187.089844-2.238281.078125zm0 0"/><path d="m166.945312 413.300781c19.429688 43.777344 46.445313 71.917969 76.574219 74.511719 1.503907 0 2.976563.175781 4.480469.175781v-80c-27.109375-.074219-54.191406 1.699219-81.054688 5.3125zm0 0"/><path d="m329.054688 82.675781c-19.453126-43.765625-46.445313-71.917969-76.574219-74.511719-1.496094-.03125-2.96875-.175781-4.480469-.175781v80c27.109375.074219 54.191406-1.699219 81.054688-5.3125zm0 0"/><path d="m243.601562 487.828125c.714844.105469 1.4375.132813 2.160157.082031.742187.0625 1.492187.089844 2.238281.078125-1.503906 0-2.976562-.144531-4.480469-.175781zm0 0"/><path d="m374.488281 422.21875c-14.949219-3.890625-30.121093-6.871094-45.433593-8.917969-19.429688 43.777344-46.445313 71.917969-76.574219 74.511719h.167969c47.191406-1.480469 89.945312-26.136719 121.839843-65.59375zm0 0"/><path d="m252.648438 487.8125c54.863281-.96875 107.71875-20.804688 149.671874-56.175781-9.035156-3.816407-18.335937-6.964844-27.832031-9.417969-31.894531 39.457031-74.648437 64.113281-121.839843 65.59375zm0 0"/><path d="m329.054688 82.675781c10.691406 24.78125 18.445312 50.730469 23.105468 77.3125h66.960938c-9.179688-31.351562-24.335938-60.632812-44.632813-86.230469-14.949219 3.890626-30.121093 6.871094-45.433593 8.917969zm0 0"/><path d="m248 87.988281v72h104.160156c-4.660156-26.582031-12.414062-52.53125-23.105468-77.3125-26.863282 3.613281-53.945313 5.386719-81.054688 5.3125zm0 0"/><path d="m402.320312 64.339844c-9.035156 3.816406-18.335937 6.964844-27.832031 9.417968 20.296875 25.597657 35.453125 54.878907 44.632813 86.230469h52.160156c-14.679688-37.117187-38.382812-69.992187-68.960938-95.648437zm0 0"/><path d="m166.945312 82.675781c-10.691406 24.78125-18.445312 50.730469-23.105468 77.3125h104.160156v-72c-27.109375.074219-54.191406-1.699219-81.054688-5.3125zm0 0"/><path d="m166.945312 82.675781c26.863282 3.613281 53.945313 5.386719 81.054688 5.3125v-80c-1.511719 0-2.984375.144531-4.480469.175781-30.128906 2.59375-57.121093 30.746094-76.574219 74.511719zm0 0"/><path d="m248 7.988281c-.746094-.011719-1.496094.015625-2.238281.078125-.722657-.050781-1.445313-.023437-2.160157.082032h-.082031c1.496094-.015626 2.96875-.160157 4.480469-.160157zm0 0"/><path d="m248 7.988281c-.960938 0-1.921875 0-2.878906.078125-.507813-.011718-1.015625.015625-1.519532.082032.714844-.105469 1.4375-.132813 2.160157-.082032.742187-.0625 1.492187-.089844 2.238281-.078125zm0 0"/><path d="m121.511719 73.757812c14.949219 3.890626 30.121093 6.871094 45.433593 8.917969 19.429688-43.765625 46.445313-71.917969 76.574219-74.511719h-.175781c-47.191406 1.480469-89.9375 26.144532-121.832031 65.59375zm0 0"/><path d="m93.679688 64.339844c-30.578126 25.65625-54.28125 58.53125-68.960938 95.648437h52.160156c9.179688-31.351562 24.335938-60.632812 44.632813-86.230469-9.496094-2.453124-18.796875-5.601562-27.832031-9.417968zm0 0"/><path d="m121.511719 73.757812c-20.296875 25.597657-35.453125 54.878907-44.632813 86.230469h66.960938c4.660156-26.582031 12.414062-52.53125 23.105468-77.3125-15.3125-2.046875-30.484374-5.027343-45.433593-8.917969zm0 0"/><path d="m243.34375 8.171875c-54.863281.960937-107.714844 20.796875-149.664062 56.167969 9.035156 3.816406 18.335937 6.964844 27.832031 9.417968 31.894531-39.449218 74.640625-64.113281 121.832031-65.585937zm0 0"/><path d="m243.601562 487.828125c.503907.066406 1.011719.09375 1.519532.082031.957031.078125 1.917968.078125 2.878906.078125-.746094.011719-1.496094-.015625-2.238281-.078125-.722657.050782-1.445313.023438-2.160157-.082031zm0 0"/><path d="m76.878906 335.988281h-52.160156c14.679688 37.117188 38.382812 69.992188 68.960938 95.648438 9.035156-3.816407 18.335937-6.964844 27.832031-9.417969-20.292969-25.597656-35.449219-54.878906-44.632813-86.230469zm0 0"/><path d="m248 407.988281v-72h-104.160156c4.660156 26.582031 12.414062 52.53125 23.105468 77.3125 26.863282-3.613281 53.945313-5.386719 81.054688-5.3125zm0 0"/><path d="m121.511719 422.21875c-9.496094 2.453125-18.796875 5.601562-27.832031 9.417969 41.953124 35.371093 94.808593 55.207031 149.671874 56.175781-47.191406-1.480469-89.945312-26.136719-121.839843-65.59375zm0 0"/><path d="m329.054688 413.300781c10.691406-24.78125 18.445312-50.730469 23.105468-77.3125h-104.160156v72c27.109375-.074219 54.191406 1.699219 81.054688 5.3125zm0 0"/><path d="m166.945312 413.300781c-15.3125 2.046875-30.484374 5.027344-45.433593 8.917969 31.894531 39.457031 74.648437 64.113281 121.839843 65.601562h.167969c-30.128906-2.601562-57.121093-30.742187-76.574219-74.519531zm0 0"/><path d="m166.945312 413.300781c-10.691406-24.78125-18.445312-50.730469-23.105468-77.3125h-66.960938c9.183594 31.351563 24.339844 60.632813 44.632813 86.230469 14.949219-3.890625 30.121093-6.871094 45.433593-8.917969zm0 0"/><path d="m374.488281 422.21875c20.292969-25.597656 35.449219-54.878906 44.632813-86.230469h-66.960938c-4.660156 26.582031-12.414062 52.53125-23.105468 77.3125 15.3125 2.046875 30.484374 5.027344 45.433593 8.917969zm0 0"/></g><path d="m8 167.988281h480c4.417969 0 8-3.582031 8-8s-3.582031-8-8-8h-11.488281c-37.5625-90.507812-125.222657-150.125-223.199219-151.800781h-.296875c-.496094-.054688-.996094-.078125-1.496094-.070312-2.0625-.1562505-4.128906-.1562505-6.191406 0-.75-.0195318-1.496094.015624-2.238281.101562h-.105469c-.097656 0-.183594 0-.28125 0-97.976563 1.664062-185.640625 61.269531-223.214844 151.769531h-11.488281c-4.417969 0-8 3.582031-8 8s3.582031 8 8 8zm309.023438-91.824219c-20.261719 2.289063-40.632813 3.542969-61.023438 3.753907v-63.066407c22.65625 4.136719 44.152344 25.710938 61.023438 59.3125zm-77.023438-59.3125v63.066407c-20.382812-.210938-40.738281-1.464844-60.992188-3.753907 16.792969-33.34375 38.207032-54.871093 60.992188-59.3125zm0 79.066407v56.070312h-86.398438c4.171876-20.730469 10.300782-41.019531 18.300782-60.59375 22.597656 2.78125 45.332031 4.292969 68.097656 4.523438zm16 0c22.761719-.230469 45.488281-1.742188 68.078125-4.53125 8 19.582031 14.136719 39.871093 18.320313 60.601562h-86.398438zm84.335938-6.851563c11.046874-1.78125 21.464843-3.878906 31.097656-6.277344 15.84375 20.941407 28.191406 44.308594 36.566406 69.199219h-49.320312c-4.167969-21.492187-10.308594-42.554687-18.34375-62.921875zm-6.59375-15.109375c-7.621094-16.742187-17.722657-32.238281-29.964844-45.96875 21.386718 9.652344 40.535156 23.652344 56.222656 41.105469-8.238281 1.839844-17.015625 3.46875-26.257812 4.863281zm-171.46875 0c-9.261719-1.394531-18.015626-3.015625-26.273438-4.863281 15.710938-17.488281 34.890625-31.511719 56.320312-41.175781-12.289062 13.738281-22.417968 29.261719-30.046874 46.039062zm-6.609376 15.109375c-8.03125 20.367188-14.171874 41.429688-18.34375 62.921875h-49.320312c8.378906-24.890625 20.734375-48.261719 36.585938-69.199219 9.613281 2.398438 20.03125 4.503907 31.078124 6.277344zm303.390626 62.921875h-34.191407c-8.335937-26.398437-20.773437-51.320312-36.863281-73.847656 4.640625-1.472656 9.011719-3.023437 13.113281-4.65625 24.675781 21.75 44.429688 48.515625 57.941407 78.503906zm-72.4375-90.207031c-2.949219 1-6.027344 1.96875-9.234376 2.902344-6.867187-8.136719-14.355468-15.730469-22.398437-22.710938 11.066406 5.730469 21.644531 12.355469 31.632813 19.808594zm-268 2.902344c-3.203126-.933594-6.277344-1.902344-9.234376-2.902344 10.007813-7.453125 20.601563-14.082031 31.679688-19.816406-8.054688 6.984375-15.558594 14.578125-22.445312 22.71875zm-23.695313 8.800781c4.09375 1.632813 8.464844 3.183594 13.109375 4.65625-16.097656 22.527344-28.550781 47.449219-36.894531 73.847656h-34.191407c13.523438-29.992187 33.289063-56.753906 57.976563-78.503906zm0 0" fill="#004fac"/><path d="m488 327.988281h-480c-4.417969 0-8 3.582031-8 8s3.582031 8 8 8h11.488281c37.5625 90.507813 125.222657 150.125 223.199219 151.800781h.296875c.496094.058594.996094.082032 1.496094.070313h.800781.472656c.796875.050781 1.542969.058594 2.285156.058594 1.015626 0 1.945313 0 2.546876-.058594.800781.03125 1.601562-.007813 2.398437-.109375h.078125.28125c97.957031-1.683594 185.597656-61.28125 223.167969-151.761719h11.488281c4.417969 0 8-3.582031 8-8s-3.582031-8-8-8zm-309.023438 91.824219c20.261719-2.289062 40.632813-3.542969 61.023438-3.753906v63.066406c-22.65625-4.136719-44.152344-25.710938-61.023438-59.3125zm77.023438 59.3125v-63.066406c20.382812.210937 40.738281 1.464844 60.992188 3.753906-16.792969 33.34375-38.214844 54.871094-60.992188 59.3125zm0-79.066406v-56.070313h86.398438c-4.171876 20.730469-10.300782 41.019531-18.300782 60.59375-22.597656-2.78125-45.332031-4.292969-68.097656-4.523437zm-16 0c-22.761719.230468-45.488281 1.742187-68.078125 4.53125-8-19.582032-14.136719-39.871094-18.320313-60.601563h86.398438zm-84.335938 6.851562c-11.046874 1.78125-21.464843 3.878906-31.097656 6.277344-15.84375-20.941406-28.191406-44.308594-36.566406-69.199219h49.335938c4.164062 21.492188 10.296874 42.554688 18.328124 62.921875zm6.59375 15.109375c7.617188 16.753907 17.722657 32.261719 29.964844 46-21.390625-9.660156-40.539062-23.667969-56.222656-41.136719 8.238281-1.839843 17.015625-3.46875 26.257812-4.863281zm171.46875 0c9.253907 1.394531 18.015626 3.015625 26.28125 4.863281-15.710937 17.488282-34.890624 31.515626-56.320312 41.183594 12.28125-13.742187 22.410156-29.265625 30.039062-46.046875zm6.609376-15.109375c8.03125-20.367187 14.171874-41.429687 18.34375-62.921875h49.320312c-8.378906 24.890625-20.734375 48.261719-36.585938 69.199219-9.613281-2.398438-20.03125-4.503906-31.078124-6.277344zm-303.390626-62.921875h34.191407c8.335937 26.398438 20.773437 51.320313 36.863281 73.847657-4.640625 1.472656-9.011719 3.023437-13.113281 4.65625-24.675781-21.75-44.429688-48.515626-57.941407-78.503907zm72.4375 90.207031c2.949219-.996093 6.027344-1.964843 9.234376-2.902343 6.882812 8.136719 14.382812 15.730469 22.4375 22.710937-11.078126-5.730468-21.667969-12.355468-31.671876-19.808594zm268-2.902343c3.203126.9375 6.277344 1.90625 9.234376 2.902343-10.007813 7.453126-20.601563 14.082032-31.679688 19.816407 8.054688-6.984375 15.558594-14.578125 22.445312-22.71875zm23.695313-8.800781c-4.09375-1.632813-8.464844-3.183594-13.109375-4.65625 16.097656-22.527344 28.550781-47.449219 36.894531-73.847657h34.191407c-13.523438 29.992188-33.289063 56.753907-57.976563 78.503907zm0 0" fill="#004fac"/><path d="m288.335938 205.691406-18.199219 60.695313-14.9375-29.972657c-1.503907-2.523437-4.222657-4.070312-7.160157-4.070312-2.933593 0-5.65625 1.546875-7.160156 4.070312l-15.015625 29.972657-18.199219-60.671875c-1.269531-4.230469-5.726562-6.632813-9.960937-5.367188-4.230469 1.269532-6.636719 5.726563-5.367187 9.960938l24 80c.941406 3.140625 3.707031 5.390625 6.976562 5.671875 3.277344.316406 6.402344-1.433594 7.847656-4.390625l16.839844-33.714844 16.800781 33.6875c1.359375 2.726562 4.152344 4.441406 7.199219 4.425781.230469.011719.457031.011719.6875 0 3.269531-.28125 6.035156-2.53125 6.976562-5.671875l24-80c1.269532-4.234375-1.136718-8.691406-5.367187-9.960937-4.234375-1.265625-8.691406 1.136719-9.960937 5.367187zm0 0" fill="#004fac"/><path d="m416.335938 205.691406-18.199219 60.695313-14.9375-29.972657c-1.503907-2.523437-4.222657-4.070312-7.160157-4.070312-2.933593 0-5.65625 1.546875-7.160156 4.070312l-15.015625 29.972657-18.199219-60.671875c-1.269531-4.230469-5.726562-6.632813-9.960937-5.367188-4.230469 1.269532-6.636719 5.726563-5.367187 9.960938l24 80c.941406 3.140625 3.707031 5.390625 6.976562 5.671875 3.273438.3125 6.402344-1.4375 7.847656-4.390625l16.839844-33.714844 16.800781 33.6875c1.359375 2.726562 4.152344 4.441406 7.199219 4.425781.230469.011719.457031.011719.6875 0 3.269531-.28125 6.035156-2.53125 6.976562-5.671875l24-80c1.269532-4.234375-1.136718-8.691406-5.367187-9.960937-4.234375-1.265625-8.691406 1.136719-9.960937 5.367187zm0 0" fill="#004fac"/><path d="m160.335938 205.691406-18.199219 60.695313-14.9375-29.972657c-1.503907-2.523437-4.222657-4.070312-7.160157-4.070312-2.933593 0-5.65625 1.546875-7.160156 4.070312l-15.015625 29.972657-18.199219-60.671875c-1.269531-4.230469-5.726562-6.632813-9.960937-5.367188-4.230469 1.269532-6.636719 5.726563-5.367187 9.960938l24 80c.941406 3.140625 3.707031 5.390625 6.976562 5.671875 3.277344.320312 6.40625-1.433594 7.847656-4.390625l16.839844-33.714844 16.839844 33.6875c1.355468 2.714844 4.128906 4.425781 7.160156 4.425781.230469.011719.457031.011719.6875 0 3.269531-.28125 6.035156-2.53125 6.976562-5.671875l24-80c1.269532-4.234375-1.136718-8.691406-5.367187-9.960937-4.234375-1.265625-8.691406 1.136719-9.960937 5.367187zm0 0" fill="#004fac"/></svg>