<svg height="512pt" viewBox="0 0 512 512" width="512pt" xmlns="http://www.w3.org/2000/svg" xmlns:xlink="http://www.w3.org/1999/xlink"><linearGradient id="a"><stop offset="0" stop-color="#ff5e50"/><stop offset=".5054" stop-color="#9b70ea"/><stop offset="1" stop-color="#7ed9ff"/></linearGradient><linearGradient id="b" gradientUnits="userSpaceOnUse" x1="82.9997" x2="448.1332" xlink:href="#a" y1="83.0001" y2="448.1336"/><linearGradient id="c" gradientUnits="userSpaceOnUse" x1="134.8428" x2="499.9763" xlink:href="#a" y1="31.157" y2="396.2905"/><linearGradient id="d" gradientUnits="userSpaceOnUse" x1="-10.0302" x2="355.1033" xlink:href="#a" y1="176.03" y2="541.1635"/><linearGradient id="e" gradientUnits="userSpaceOnUse" x1="89.3574" x2="454.4909" xlink:href="#a" y1="76.6424" y2="441.7759"/><g fill-rule="evenodd"><path d="m502 256c0 135.863281-110.136719 246-246 246s-246-110.136719-246-246 110.136719-246 246-246 246 110.136719 246 246zm0 0" fill="url(#b)"/><path d="m50 256c0-113.769531 92.230469-206 206-206s206 92.230469 206 206-92.230469 206-206 206-206-92.230469-206-206zm0 0" fill="#fff"/><path d="m203.679688 173.421875v57.527344l166.039062-32.738281v-57.527344c0-8.296875-6.535156-13.796875-14.523438-12.222656l-136.992187 27.011718c-7.988281 1.574219-14.523437 9.652344-14.523437 17.949219zm0 0" fill="url(#c)"/><path d="m203.316406 349.398438c-3.0625-14.925782-20.496094-24.078126-38.9375-20.441407s-30.910156 18.683594-27.847656 33.609375c3.0625 14.929688 20.496094 24.082032 38.9375 20.445313s30.910156-18.6875 27.847656-33.613281zm0 0" fill="url(#d)"/><path d="m302.566406 329.828125c3.0625 14.929687 20.496094 24.078125 38.9375 20.445313 18.441406-3.636719 30.910156-18.6875 27.847656-33.613282-3.0625-14.925781-20.496093-24.078125-38.9375-20.441406-18.441406 3.632812-30.910156 18.683594-27.847656 33.609375zm0 0" fill="url(#e)"/></g><path d="m437.019531 74.980469c-48.351562-48.351563-112.640625-74.980469-181.019531-74.980469-53.925781 0-105.515625 16.582031-149.191406 47.957031-4.484375 3.222657-5.507813 9.472657-2.289063 13.957031 3.222657 4.484376 9.472657 5.511719 13.957031 2.289063 40.253907-28.917969 87.808594-44.203125 137.523438-44.203125 130.132812 0 236 105.867188 236 236 0 130.128906-105.867188 236-236 236-130.128906 0-236-105.867188-236-236 0-49.71875 15.28125-97.269531 44.195312-137.515625 3.222657-4.488281 2.199219-10.734375-2.285156-13.957031s-10.734375-2.199219-13.957031 2.285156c-31.371094 43.671875-47.953125 95.257812-47.953125 149.1875 0 68.378906 26.628906 132.667969 74.980469 181.019531 48.351562 48.351563 112.640625 74.980469 181.019531 74.980469s132.667969-26.628906 181.019531-74.980469c48.351563-48.351562 74.980469-112.640625 74.980469-181.019531s-26.628906-132.667969-74.980469-181.019531zm0 0"/><path d="m421.613281 378.925781c4.582031 3.074219 10.796875 1.851563 13.875-2.734375 23.886719-35.601562 36.511719-77.164062 36.511719-120.191406 0-57.695312-22.46875-111.9375-63.265625-152.734375s-95.039063-63.265625-152.734375-63.265625-111.9375 22.46875-152.734375 63.265625-63.265625 95.039063-63.265625 152.734375 22.46875 111.9375 63.265625 152.734375 95.039063 63.265625 152.734375 63.265625c43.027344 0 84.589844-12.625 120.1875-36.507812 4.585938-3.078126 5.808594-9.289063 2.730469-13.875-3.078125-4.589844-9.289063-5.808594-13.875-2.734376-32.289063 21.664063-69.996094 33.117188-109.042969 33.117188-108.074219 0-196-87.925781-196-196s87.925781-196 196-196 196 87.925781 196 196c0 39.042969-11.453125 76.753906-33.121094 109.050781-3.074218 4.585938-1.851562 10.796875 2.734375 13.875zm0 0"/><path d="m328.480469 286.40625c-12.714844 2.507812-23.757813 9.582031-30.292969 19.410156-5.300781 7.972656-7.226562 17.214844-5.417969 26.023438 3.570313 17.414062 20.859375 29.21875 40.746094 29.21875 3.253906 0 6.578125-.316406 9.921875-.976563 12.714844-2.507812 23.753906-9.582031 30.292969-19.410156 3.921875-5.898437 5.988281-12.492187 6.070312-19.09375.078125-.507813.132813-1.023437.132813-1.558594l-.21875-121.621093c.003906-.125.003906-.25 0-.375v-57.339844c0-7.011719-2.917969-13.433594-8.015625-17.621094-5.015625-4.125-11.738281-5.734375-18.4375-4.414062l-136.992188 27.011718c-12.667969 2.5-22.589843 14.691406-22.589843 27.761719v57.527344.007812.007813l.164062 92.261718c-8.960938-4.601562-20.058594-6.320312-31.402344-4.082031-12.710937 2.503907-23.753906 9.582031-30.289062 19.410157-5.300782 7.972656-7.226563 17.214843-5.417969 26.019531 3.570313 17.417969 20.859375 29.222656 40.746094 29.222656 3.253906 0 6.578125-.316406 9.921875-.976563 12.710937-2.503906 23.753906-9.582031 30.292968-19.410156 3.921876-5.898437 5.992188-12.496094 6.070313-19.09375.078125-.507812.132813-1.027344.128906-1.554687l-.199219-113.597657 146.042969-28.796874.140625 80.121093c-8.960937-4.601562-20.058594-6.320312-31.398437-4.082031zm-137.441407 75.929688c-3.605468 5.421874-9.984374 9.382812-17.503906 10.863281-12.824218 2.53125-25.285156-3.261719-27.210937-12.640625-.929688-4.546875.835937-8.453125 2.480469-10.925782 3.605468-5.421874 9.988281-9.382812 17.507812-10.867187 2.042969-.402344 4.074219-.59375 6.054688-.59375 10.46875 0 19.535156 5.347656 21.152343 13.234375.933594 4.546875-.832031 8.453125-2.480469 10.929688zm168.679688-172.347657-146.035156 28.796875v-45.363281c0-3.527344 3.136718-7.484375 6.457031-8.136719l136.992187-27.011718c.199219-.042969.472657-.082032.761719-.082032.390625 0 .808594.074219 1.109375.320313.453125.375.714844 1.167969.714844 2.171875zm-.160156 128.679688c.929687 4.546875-.835938 8.453125-2.480469 10.929687-3.605469 5.421875-9.988281 9.378906-17.507813 10.863282-12.824218 2.53125-25.285156-3.261719-27.207031-12.640626-.933593-4.546874.832031-8.453124 2.480469-10.929687 3.601562-5.421875 9.984375-9.378906 17.503906-10.863281 2.042969-.402344 4.074219-.59375 6.058594-.59375 10.464844 0 19.53125 5.347656 21.152344 13.234375zm0 0"/><path d="m82.050781 92.054688c2.402344 0 4.8125-.859376 6.726563-2.605469 4.085937-3.714844 4.386718-10.039063.671875-14.125-3.714844-4.085938-10.039063-4.386719-14.125-.671875l-.003907.003906c-4.085937 3.714844-4.386718 10.039062-.671874 14.125 1.972656 2.167969 4.683593 3.273438 7.402343 3.273438zm0 0"/><path d="m394.59375 394.59375-.003906.003906c-3.90625 3.90625-3.902344 10.234375 0 14.140625 1.953125 1.949219 4.511718 2.925781 7.070312 2.925781 2.5625 0 5.121094-.976562 7.074219-2.929687 3.90625-3.90625 3.90625-10.238281 0-14.140625-3.90625-3.90625-10.234375-3.90625-14.140625 0zm0 0"/></svg>