<svg height="512pt" viewBox="0 -128 512 512" width="512pt" xmlns="http://www.w3.org/2000/svg"><g fill="#5dce09" fill-rule="evenodd"><path d="m107.78125 147.15625 32.222656-30.582031c9.660156-9.167969 10.0625-24.574219.890625-34.234375-9.167969-9.660156-24.574219-10.0625-34.234375-.894532l-48.226562 45.773438v-93.003906c0-13.316406-10.898438-24.214844-24.214844-24.214844-13.320312 0-24.21875 10.898438-24.21875 24.214844v188.488281c0 13.320313 10.898438 24.21875 24.21875 24.21875 13.316406 0 24.214844-10.898437 24.214844-24.21875v-28.710937l14-13.289063 42.890625 56.644531c8.039062 10.621094 23.304687 12.730469 33.921875 4.6875 10.621094-8.039062 12.730468-23.304687 4.691406-33.921875zm0 0"/><path d="m197.921875 98.933594v123.769531c0 13.320313 10.898437 24.21875 24.21875 24.21875s24.214844-10.898437 24.214844-24.21875v-123.769531c0-13.320313-10.894531-24.21875-24.214844-24.21875s-24.21875 10.898437-24.21875 24.21875zm0 0"/><path d="m286.503906 34.214844v188.488281c0 13.320313 10.898438 24.21875 24.21875 24.21875 13.316406 0 24.214844-10.898437 24.214844-24.21875v-28.710937l14-13.289063 42.890625 56.644531c8.039063 10.621094 23.304687 12.730469 33.925781 4.6875 10.617188-8.039062 12.726563-23.304687 4.6875-33.921875l-46.15625-60.960937 32.222656-30.578125c9.660157-9.167969 10.0625-24.574219.890626-34.234375-9.167969-9.664063-24.574219-10.066406-34.234376-.894532l-48.226562 45.769532v-93c0-13.320313-10.898438-24.214844-24.21875-24.214844-13.316406 0-24.214844 10.898438-24.214844 24.214844zm0 0"/><path d="m502 149.71875c0 15.101562-12.242188 27.34375-27.34375 27.34375-15.097656 0-27.339844-12.242188-27.339844-27.34375 0-15.097656 12.242188-27.339844 27.339844-27.339844 15.101562 0 27.34375 12.242188 27.34375 27.339844zm0 0"/></g><path d="m427.566406 202.320312c-4.84375 2.65625-6.621094 8.730469-3.96875 13.574219 3.363282 6.136719 1.691406 13.949219-3.882812 18.171875-6.25 4.730469-15.183594 3.496094-19.914063-2.753906l-42.890625-56.644531c-1.71875-2.269531-4.320312-3.699219-7.15625-3.929688-2.84375-.234375-5.636718.753907-7.699218 2.710938l-14 13.289062c-1.992188 1.886719-3.117188 4.511719-3.117188 7.253907v28.710937c0 7.839844-6.378906 14.21875-14.214844 14.21875-7.839844 0-14.21875-6.378906-14.21875-14.21875v-188.488281c0-7.835938 6.378906-14.214844 14.21875-14.214844 7.835938 0 14.214844 6.378906 14.214844 14.214844v93.003906c0 3.996094 2.378906 7.609375 6.050781 9.1875s7.933594.816406 10.832031-1.9375l48.230469-45.773438c2.734375-2.59375 6.339844-3.953124 10.15625-3.871093 3.8125.101562 7.347657 1.664062 9.941407 4.398437 5.394531 5.683594 5.160156 14.703125-.527344 20.097656l-32.21875 30.582032c-4.003906 3.800781-4.171875 10.128906-.367188 14.136718 3.800782 4.003907 10.128906 4.171876 14.136719.367188l32.21875-30.578125c13.683594-12.988281 14.253906-34.6875 1.265625-48.375-6.273438-6.609375-14.769531-10.378906-23.925781-10.617187-9.179688-.25-17.839844 3.082031-24.449219 9.355468l-31.34375 29.746094v-69.722656c0-18.867188-15.347656-34.214844-34.214844-34.214844-18.867187 0-34.21875 15.351562-34.21875 34.214844v188.488281c0 18.867187 15.351563 34.21875 34.21875 34.21875 18.867188 0 34.214844-15.351563 34.214844-34.21875v-24.414063l2.777344-2.636718 36.140625 47.734375c6.722656 8.875 16.960937 13.546875 27.320312 13.546875 7.195313 0 14.449219-2.253906 20.613281-6.921875 13.417969-10.160157 17.4375-28.957031 9.351563-43.722657-2.652344-4.84375-8.730469-6.617187-13.574219-3.96875zm0 0"/><path d="m474.65625 112.378906c-20.589844 0-37.339844 16.75-37.339844 37.339844s16.75 37.34375 37.339844 37.34375 37.34375-16.753906 37.34375-37.34375-16.753906-37.339844-37.34375-37.339844zm0 54.683594c-9.558594 0-17.339844-7.78125-17.339844-17.34375s7.78125-17.339844 17.339844-17.339844c9.566406 0 17.34375 7.777344 17.34375 17.339844s-7.777344 17.34375-17.34375 17.34375zm0 0"/><path d="m121.152344 148.25 25.734375-24.421875c12.738281-12.90625 12.5625-27.773437 8.113281-38.367187-2.253906-5.371094-6.246094-9.644532-8.902344-12-6.019531-5.371094-13.683594-8.414063-21.875-8.625-9.144531-.25-17.835937 3.082031-24.445312 9.355468l-31.34375 29.75v-69.722656c0-18.867188-15.347656-34.21875-34.214844-34.21875s-34.21875 15.351562-34.21875 34.214844v6.5c0 5.519531 4.476562 10 10 10s10-4.480469 10-10v-6.5c0-7.835938 6.378906-14.214844 14.21875-14.214844s14.214844 6.378906 14.214844 14.214844v93.003906c0 3.996094 2.378906 7.609375 6.054687 9.1875 3.671875 1.578125 7.929688.816406 10.832031-1.9375l48.226563-45.769531c2.734375-2.597657 6.347656-3.960938 10.15625-3.871094 3.816406.097656 7.285156 1.71875 9.941406 4.394531 5.441407 5.488282 3.765625 16.027344-.523437 20.097656l-32.222656 30.582032c-3.691407 3.503906-4.160157 9.230468-1.085938 13.289062l46.15625 60.957032c2.273438 3.007812 3.242188 6.746093 2.71875 10.527343-.523438 3.777344-2.464844 7.113281-5.472656 9.390625-3.007813 2.277344-6.742188 3.242188-10.523438 2.71875-3.78125-.519531-7.117187-2.464844-9.394531-5.472656l-42.890625-56.644531c-1.71875-2.269531-4.320312-3.699219-7.15625-3.929688-2.839844-.234375-5.636719.753907-7.699219 2.710938l-14 13.289062c-1.988281 1.886719-3.117187 4.507813-3.117187 7.253907v28.710937c0 7.839844-6.375 14.21875-14.214844 14.21875s-14.21875-6.378906-14.21875-14.21875v-101.988281c0-5.523438-4.476562-10-10-10s-10 4.476562-10 10v101.988281c0 18.867187 15.351562 34.21875 34.21875 34.21875s34.214844-15.351563 34.214844-34.21875v-24.414063l2.777344-2.636718 36.140624 47.734375c5.5 7.265625 13.527344 11.957031 22.597657 13.210937 1.601562.21875 3.199219.328125 4.785156.328125 7.40625 0 14.566406-2.386719 20.550781-6.917969 7.265625-5.5 11.957032-13.523437 13.210938-22.597656 1.253906-9.070312-1.085938-18.070312-6.585938-25.335937zm0 0"/><path d="m222.140625 64.714844c-18.867187 0-34.21875 15.351562-34.21875 34.21875v123.769531c0 18.867187 15.351563 34.21875 34.21875 34.21875s34.214844-15.351563 34.214844-34.21875v-123.769531c0-18.867188-15.347657-34.21875-34.214844-34.21875zm14.214844 157.988281c0 7.839844-6.375 14.21875-14.214844 14.21875s-14.21875-6.375-14.21875-14.21875v-123.769531c0-7.839844 6.378906-14.21875 14.21875-14.21875s14.214844 6.378906 14.214844 14.21875zm0 0"/><path d="m10 90.71875c5.523438 0 10-4.480469 10-10v-.007812c0-5.523438-4.476562-9.996094-10-9.996094s-10 4.480468-10 10.003906c0 5.519531 4.476562 10 10 10zm0 0"/><path d="m402.554688 170.957031c-4.46875 3.246094-5.453126 9.503907-2.203126 13.972657 1.957032 2.6875 5.003907 4.117187 8.09375 4.117187 2.039063 0 4.097657-.621094 5.875-1.914063 4.464844-3.246093 5.453126-9.5 2.203126-13.96875l-.003907-.003906c-3.25-4.46875-9.5-5.453125-13.964843-2.203125zm0 0"/></svg>