<svg height="511pt" viewBox="-11 1 511 511.999" width="511pt" xmlns="http://www.w3.org/2000/svg"><path d="m173.804688 189.96875c11.863281-18.152344 34.804687-18.234375 51.085937-6.234375l55.65625 41.003906c5.746094 3.921875 11.59375 3.820313 16.484375 0l71.179688-53.882812c11.929687-10.625 30.175781 2.320312 18.496093 19.300781l-70.882812 108.503906c-11.863281 18.152344-34.808594 18.230469-51.089844 6.234375l-55.652344-41.007812c-5.75-3.917969-11.59375-3.816407-16.488281 0l-71.175781 53.886719c-11.929688 10.621093-30.179688-2.324219-18.5-19.300782zm-3.0625 276.699219c23.28125 7.753906 48.183593 11.960937 74.070312 11.960937 129.410156 0 234.316406-104.90625 234.316406-234.316406 0-129.40625-104.90625-234.3125-234.316406-234.3125-129.40625 0-234.3125 104.90625-234.3125 234.3125 0 69.714844 30.453125 132.300781 78.769531 175.222656v66.171875c-.167969 12.253907 13.175781 20.375 24.050781 14.113281zm0 0" fill="#039dfd" fill-rule="evenodd"/><path d="m224.890625 183.734375c-16.28125-11.996094-39.222656-11.917969-51.085937 6.234375l-70.886719 108.503906c-11.679688 16.980469 6.570312 29.925782 18.5 19.300782l71.175781-53.882813c4.894531-3.820313 10.738281-3.921875 16.488281 0l55.652344 41.003906c16.285156 12 39.226563 11.917969 51.089844-6.230469l70.882812-108.507812c11.683594-16.976562-6.566406-29.925781-18.496093-19.300781l-71.175782 53.886719c-4.894531 3.820312-10.742187 3.921874-16.488281 0zm0 0" fill="#fff" fill-rule="evenodd"/><path d="m374.023438 427.691406c-37.933594 26.78125-82.613282 40.9375-129.210938 40.9375-24.246094 0-48.105469-3.851562-70.910156-11.449218-2.714844-.902344-5.683594-.601563-8.160156.828124l-57.410157 33.144532c-2.632812 1.519531-4.914062.636718-6.039062-.023438-.925781-.542968-3.066407-2.144531-3.023438-5.28125 0-.046875 0-.09375 0-.140625v-66.171875c0-2.855468-1.222656-5.578125-3.359375-7.472656-47.925781-42.574219-75.410156-103.714844-75.410156-167.746094 0-46.597656 14.15625-91.277344 40.9375-129.210937 3.183594-4.511719 2.109375-10.75-2.402344-13.933594-4.511718-3.1875-10.75-2.113281-13.9375 2.398437-29.175781 41.324219-44.597656 89.992188-44.597656 140.742188 0 68.230469 28.652344 133.449219 78.769531 179.660156v61.671875c-.101562 9.289063 4.832031 17.992188 12.890625 22.726563 4.117188 2.417968 8.640625 3.628906 13.167969 3.628906 4.457031 0 8.917969-1.171875 12.992187-3.519531l53.574219-30.933594c23.535157 7.355469 48.042969 11.082031 72.917969 11.082031 50.75 0 99.417969-15.421875 140.742188-44.597656 4.511718-3.1875 5.589843-9.425781 2.402343-13.9375-3.183593-4.511719-9.421875-5.585938-13.933593-2.402344zm0 0"/><path d="m417.570312 71.558594c-46.144531-46.144532-107.496093-71.558594-172.757812-71.558594-50.746094 0-99.414062 15.421875-140.746094 44.601562-4.511718 3.1875-5.585937 9.425782-2.402344 13.9375 3.183594 4.511719 9.425782 5.585938 13.9375 2.402344 37.9375-26.785156 82.617188-40.941406 129.210938-40.941406 123.6875 0 224.316406 100.625 224.316406 224.3125 0 46.597656-14.15625 91.277344-40.941406 129.214844-3.183594 4.511718-2.109375 10.75 2.402344 13.9375 1.753906 1.234375 3.765625 1.832031 5.757812 1.832031 3.140625 0 6.230469-1.476563 8.179688-4.234375 29.175781-41.332031 44.601562-90 44.601562-140.746094 0-65.261718-25.414062-126.613281-71.558594-172.757812zm0 0"/><path d="m392.953125 162.679688c-8.800781-7.765626-21.792969-7.566407-31.058594.414062l-70.898437 53.675781c-.039063.027344-.078125.058594-.117188.089844-.890625.695313-1.898437 1.480469-4.566406-.292969l-55.488281-40.882812c-11.378907-8.386719-25.226563-11.875-37.988281-9.574219-11.410157 2.058594-20.886719 8.417969-27.402344 18.386719l-70.824219 108.414062c-9.191406 13.457032-5.59375 26.28125 2.066406 33.042969 4.3125 3.804687 9.632813 5.695313 15.03125 5.695313 5.609375 0 11.304688-2.046876 16.027344-6.113282l70.894531-53.671875c.039063-.03125.078125-.0625.121094-.09375.890625-.695312 1.898438-1.484375 4.566406.292969l55.488282 40.882812c11.378906 8.386719 25.226562 11.875 37.988281 9.574219 11.410156-2.058593 20.882812-8.417969 27.402343-18.386719l70.824219-108.414062c9.1875-13.457031 5.59375-26.28125-2.066406-33.039062zm-14.484375 21.808593c-.042969.066407-.089844.132813-.132812.199219l-70.882813 108.503906c-3.480469 5.328125-8.261719 8.570313-14.210937 9.644532-7.265626 1.308593-15.707032-.929688-22.574219-5.992188l-55.65625-41.003906c-.097657-.074219-.195313-.144532-.292969-.210938-9.265625-6.320312-19.804688-6.195312-28.214844.328125l-71.121094 53.847657c-.210937.160156-.417968.328124-.613281.503906-2.058593 1.828125-3.902343 1.492187-4.863281.644531-1.574219-1.390625-.386719-4.429687 1.253906-6.8125.042969-.066406.089844-.132813.132813-.199219l70.882812-108.503906c3.484375-5.328125 8.265625-8.570312 14.210938-9.644531 7.265625-1.3125 15.707031.929687 22.574219 5.992187l55.65625 41.003906c.097656.074219.195312.144532.296874.210938 9.261719 6.320312 19.808594 6.195312 28.214844-.332031l71.117188-53.839844c.210937-.160156.417968-.328125.617187-.507813 2.054688-1.828124 3.902344-1.492187 4.859375-.644531 1.574219 1.390625.386719 4.429688-1.253906 6.8125zm0 0"/><path d="m79.125 88.628906c2.558594 0 5.121094-.980468 7.074219-2.933594 3.902343-3.902343 3.902343-10.234374 0-14.140624-3.90625-3.90625-10.238281-3.90625-14.144531 0l-.003907.003906c-3.902343 3.90625-3.902343 10.234375.003907 14.140625 1.949218 1.953125 4.507812 2.929687 7.070312 2.929687zm0 0"/><path d="m403.097656 403.269531-.003906.007813c-3.714844 4.085937-3.410156 10.40625.675781 14.121094 1.914063 1.742187 4.320313 2.601562 6.722657 2.601562 2.71875 0 5.429687-1.105469 7.402343-3.277344 3.714844-4.085937 3.414063-10.410156-.671875-14.125-4.085937-3.714844-10.410156-3.414062-14.125.671875zm0 0"/></svg>