<svg height="512" viewBox="0 0 60 48" width="512" xmlns="http://www.w3.org/2000/svg"><g id="Page-1" fill="none" fill-rule="evenodd"><g id="037---404-Page" fill-rule="nonzero"><path id="Shape" d="m59 9v34c0 2.209139-1.790861 4-4 4h-50c-2.209139 0-4-1.790861-4-4v-34z" fill="#e8edfc"/><path id="Shape" d="m56 9v34c0 2.209139-1.790861 4-4 4h3c2.209139 0 4-1.790861 4-4v-34z" fill="#cad9fc"/><path id="Shape" d="m59 5v4h-58v-4c0-2.209139 1.790861-4 4-4h50c2.209139 0 4 1.790861 4 4z" fill="#a4c2f7"/><path id="Shape" d="m55 1h-3c2.209139 0 4 1.790861 4 4v4h3v-4c0-2.209139-1.790861-4-4-4z" fill="#7facfa"/><path id="Shape" d="m1 43c0 2.209139 1.790861 4 4 4h3c-2.209139 0-4-1.790861-4-4v-38c0-2.209139 1.790861-4 4-4h-3c-2.209139 0-4 1.790861-4 4z" fill="#fff"/><path id="Rectangle-path" d="m0 35h2v8h-2z" fill="#fff"/><g fill="#428dff"><path id="Shape" d="m33 4h-6c-.5522847 0-1 .44771525-1 1s.4477153 1 1 1h6c.5522847 0 1-.44771525 1-1s-.4477153-1-1-1z"/><path id="Shape" d="m55 4h-11c-.5522847 0-1 .44771525-1 1s.4477153 1 1 1h11c.5522847 0 1-.44771525 1-1s-.4477153-1-1-1z"/><path id="Shape" d="m1.02 40c-.55228473.0027614-1.00223852-.4427153-1.00499994-.995-.00276143-.5522847.44271521-1.0022385.99499994-1.005h.01c.55228475 0 1 .4477153 1 1s-.44771525 1-1 1z"/><path id="Shape" d="m55 0h-50c-2.76005315.00330612-4.99669388 2.23994685-5 5v30c0 .5522847.44771525 1 1 1s1-.4477153 1-1v-25h56v33c0 1.6568542-1.3431458 3-3 3h-50c-1.65685425 0-3-1.3431458-3-3 0-.5522847-.44771525-1-1-1s-1 .4477153-1 1c.00330612 2.7600532 2.23994685 4.9966939 5 5h50c2.7600532-.0033061 4.9966939-2.2399468 5-5v-38c-.0033061-2.76005315-2.2399468-4.99669388-5-5zm-53 8v-3c0-1.65685425 1.34314575-3 3-3h50c1.6568542 0 3 1.34314575 3 3v3z"/><circle id="Oval" cx="5" cy="5" r="1"/><circle id="Oval" cx="9" cy="5" r="1"/><circle id="Oval" cx="13" cy="5" r="1"/><path id="Shape" d="m19.852 16.524c.2539327-.4666582.0986357-1.0504199-.3536085-1.3292152-.4522443-.2787953-1.0435494-.1552918-1.3463915.2812152l-7.066 11.477c-.3791731.6171256-.3950579 1.3910301-.041527 2.0231948.3535309.6321646 1.0212231 1.0237866 1.745527 1.0238052h5.21v2c0 .5522847.4477153 1 1 1s1-.4477153 1-1v-2h2c.5522847 0 1-.4477153 1-1s-.4477153-1-1-1h-2v-2c0-.5522847-.4477153-1-1-1s-1 .4477153-1 1v2h-5.211z"/><path id="Shape" d="m45.852 16.524c.2110153-.3041508.2367456-.6999905.0668803-1.0288992-.1698654-.3289087-.5075332-.537071-.8776942-.5410726s-.71225.1968122-.8891861.5219718l-7.066 11.477c-.3791731.6171256-.3950579 1.3910301-.041527 2.0231948.3535309.6321646 1.0212231 1.0237866 1.745527 1.0238052h5.21v2c0 .5522847.4477153 1 1 1s1-.4477153 1-1v-2h2c.5522847 0 1-.4477153 1-1s-.4477153-1-1-1h-2v-2c0-.5522847-.4477153-1-1-1s-1 .4477153-1 1v2h-5.211z"/><path id="Shape" d="m31 33c2.209139 0 4-1.790861 4-4v-10c0-2.209139-1.790861-4-4-4h-2c-2.209139 0-4 1.790861-4 4v10c0 2.209139 1.790861 4 4 4zm-4-4v-10c0-1.1045695.8954305-2 2-2h2c1.1045695 0 2 .8954305 2 2v10c0 1.1045695-.8954305 2-2 2h-2c-1.1045695 0-2-.8954305-2-2z"/><path id="Shape" d="m17 39c0 .5522847.4477153 1 1 1h24c.5522847 0 1-.4477153 1-1s-.4477153-1-1-1h-24c-.5522847 0-1 .4477153-1 1z"/><path id="Shape" d="m27 42c-.5522847 0-1 .4477153-1 1s.4477153 1 1 1h6c.5522847 0 1-.4477153 1-1s-.4477153-1-1-1z"/></g></g></g></svg>