<svg id="Capa_1" enable-background="new 0 0 512 512" height="512" viewBox="0 0 512 512" width="512" xmlns="http://www.w3.org/2000/svg"><g><g><g><path d="m222.867 410.1v-65.267c0-3.314-2.686-6-6-6h-10.567c-54.897 0-99.4-44.503-99.4-99.4v-15.912c0-18.578 15.204-34.137 33.779-33.782 18.001.344 32.488 15.044 32.488 33.127v16.567c0 18.299 14.835 33.134 33.134 33.133h10.566c3.314 0 6-2.686 6-6v-208.712c0-18.578 15.204-34.137 33.779-33.782 18.001.344 32.488 15.044 32.488 33.127v93.4c0 3.314 2.686 6 6 6h10.826c18.299 0 33.133-14.835 33.133-33.134v-49.044c0-18.578 15.204-34.137 33.779-33.782 18.001.344 32.488 15.044 32.488 33.127v49.7c0 54.897-44.503 99.4-99.399 99.4h-10.826c-3.314 0-6 2.686-6 6v181.234z" fill="#4fc123"/></g><g><g><path d="m266.133 57.2v93.4c0 3.314 2.686 6 6 6h10.826c2.995 0 5.894-.404 8.653-1.149-1.5-1.091-2.479-2.854-2.479-4.851v-93.4c0-18.083-14.487-32.783-32.488-33.127-4.233-.081-8.288.673-12.031 2.092 12.57 4.706 21.519 16.824 21.519 31.035z" fill="#47a920"/></g><g><path d="m372.871 40.639c-4.233-.081-8.288.673-12.031 2.092 12.569 4.707 21.519 16.824 21.519 31.035v49.7c0 54.897-44.503 99.4-99.399 99.4h-10.826c-3.314 0-6 2.686-6 6v181.234h23v-181.233c0-3.314 2.686-6 6-6h10.826c54.897 0 99.399-44.503 99.399-99.4v-49.7c0-18.083-14.487-32.784-32.488-33.128z" fill="#47a920"/></g><g><path d="m150.167 222.867v16.567c0 18.299 14.835 33.134 33.134 33.133h10.566c1.349 0 2.59-.451 3.592-1.202-14.005-3.87-24.292-16.695-24.292-31.931v-16.567c0-18.083-14.487-32.783-32.488-33.127-4.233-.081-8.288.673-12.031 2.092 12.569 4.706 21.519 16.823 21.519 31.035z" fill="#47a920"/></g></g><g><g><path d="m405.1 471.367c0-18.299-14.834-33.133-33.133-33.133h-11.033c-2.951 0-5.471-2.146-5.919-5.063-2.438-15.896-16.172-28.07-32.749-28.07h-132.533c-16.577 0-30.311 12.174-32.749 28.07-.447 2.917-2.967 5.063-5.919 5.063h-11.033c-18.299 0-33.133 14.834-33.133 33.133v3h298.2v-3z" fill="#a2e62e"/></g><g><path d="m371.967 438.233h-11.033c-2.951 0-5.471-2.146-5.919-5.063-2.438-15.896-16.172-28.07-32.749-28.07h-23c16.577 0 30.311 12.174 32.749 28.07.447 2.917 2.967 5.063 5.919 5.063h11.033c18.299 0 33.133 14.834 33.133 33.133v3h23v-3c0-18.298-14.834-33.133-33.133-33.133z" fill="#89d12a"/></g><g><path d="m81.767 471.367h348.467c4.418 0 8 3.582 8 8v25.133h-364.467v-25.133c0-4.419 3.581-8 8-8z" fill="#d77f4a"/></g><g><path d="m430.233 471.367h-22.946c4.418 0 8 3.582 8 8v25.133h22.946v-25.133c0-4.419-3.581-8-8-8z" fill="#cc6a46"/></g></g></g><g><path d="m272.566 430.733h-33.133c-4.143 0-7.5 3.358-7.5 7.5s3.357 7.5 7.5 7.5h33.133c4.143 0 7.5-3.358 7.5-7.5s-3.357-7.5-7.5-7.5z"/><path d="m264.283 66.267c-4.143 0-7.5 3.358-7.5 7.5v16.567c0 4.142 3.357 7.5 7.5 7.5s7.5-3.358 7.5-7.5v-16.567c0-4.143-3.357-7.5-7.5-7.5z"/><path d="m191.402 304.816c-13.802-3.143-26.075-10.474-35.493-21.201-2.733-3.113-7.472-3.42-10.584-.688-3.112 2.733-3.421 7.472-.688 10.584 11.514 13.115 26.533 22.082 43.435 25.931.561.127 1.12.189 1.672.189 3.423 0 6.514-2.358 7.306-5.836.92-4.04-1.609-8.059-5.648-8.979z"/><path d="m454.8 497h-9.066v-17.633c0-8.547-6.953-15.5-15.5-15.5h-18.339c-3.53-18.833-20.085-33.133-39.927-33.133h-9.772c-3.53-18.833-20.086-33.133-39.928-33.133h-25.634v-167.234h9.326c58.945 0 106.9-47.955 106.9-106.9v-42.2h8.808c4.143 0 7.5-3.358 7.5-7.5s-3.357-7.5-7.5-7.5h-9.513c-1.068-5.697-3.324-10.977-6.507-15.574l6.767-6.766c2.93-2.929 2.93-7.677.001-10.606s-7.678-2.929-10.607 0l-6.811 6.811c-4.594-3.12-9.861-5.314-15.53-6.338v-9.726c0-4.142-3.357-7.5-7.5-7.5s-7.5 3.358-7.5 7.5v9.818c-5.598 1.087-10.788 3.326-15.315 6.461l-7.026-7.026c-2.928-2.93-7.677-2.929-10.607 0-2.929 2.929-2.929 7.678.001 10.606l7.069 7.069c-3.073 4.524-5.248 9.7-6.292 15.271h-10.031c-4.143 0-7.5 3.358-7.5 7.5s3.357 7.5 7.5 7.5h9.325v42.2c0 14.134-11.499 25.633-25.633 25.633h-9.326v-51.266h9.067c4.143 0 7.5-3.358 7.5-7.5s-3.357-7.5-7.5-7.5h-9.067v-18.134h9.067c4.143 0 7.5-3.358 7.5-7.5s-3.357-7.5-7.5-7.5h-9.773c-1.056-5.633-3.272-10.862-6.4-15.422l6.918-6.918c2.93-2.929 2.93-7.677.001-10.606s-7.678-2.93-10.607 0l-6.919 6.918c-4.56-3.128-9.788-5.344-15.422-6.399v-9.773c0-4.142-3.357-7.5-7.5-7.5s-7.5 3.358-7.5 7.5v9.772c-5.633 1.056-10.862 3.272-15.422 6.399l-6.919-6.918c-2.928-2.93-7.677-2.929-10.606 0s-2.929 7.678.001 10.606l6.919 6.918c-3.128 4.561-5.344 9.789-6.4 15.422h-9.771c-4.143 0-7.5 3.358-7.5 7.5s3.357 7.5 7.5 7.5h9.067v18.133h-9.067c-4.143 0-7.5 3.358-7.5 7.5s3.357 7.5 7.5 7.5h9.067v167.233h-9.067c-14.134 0-25.633-11.499-25.633-25.634v-9.066h9.066c4.143 0 7.5-3.358 7.5-7.5s-3.357-7.5-7.5-7.5h-9.772c-1.056-5.634-3.272-10.862-6.4-15.422l6.918-6.918c2.93-2.929 2.93-7.677.001-10.607-2.929-2.929-7.678-2.93-10.607 0l-6.918 6.918c-4.561-3.128-9.789-5.344-15.422-6.4v-9.772c0-4.142-3.357-7.5-7.5-7.5s-7.5 3.358-7.5 7.5v9.772c-5.634 1.056-10.862 3.272-15.422 6.4l-6.919-6.918c-2.928-2.93-7.677-2.929-10.606 0s-2.929 7.678.001 10.607l6.918 6.918c-3.127 4.56-5.343 9.788-6.399 15.422h-9.773c-4.143 0-7.5 3.358-7.5 7.5s3.357 7.5 7.5 7.5h9.067v9.066c0 58.945 47.955 106.9 106.899 106.9h9.067v51.269h-25.634c-19.842 0-36.398 14.3-39.928 33.133h-9.772c-19.842 0-36.397 14.3-39.927 33.133h-18.338c-8.547 0-15.5 6.953-15.5 15.5v17.634h-9.067c-4.143 0-7.5 3.358-7.5 7.5s3.357 7.5 7.5 7.5h54.4c4.143 0 7.5-3.358 7.5-7.5s-3.357-7.5-7.5-7.5h-30.333v-17.633c0-.276.225-.5.5-.5h348.467c.275 0 .5.224.5.5v17.633h-289.134c-4.143 0-7.5 3.358-7.5 7.5s3.357 7.5 7.5 7.5h313.2c4.143 0 7.5-3.358 7.5-7.5s-3.358-7.5-7.5-7.5zm-224.433-158.167c0-4.142-3.357-7.5-7.5-7.5h-16.567c-50.674 0-91.899-41.227-91.899-91.9v-16.566c0-14.134 11.499-25.633 25.633-25.633 14.135 0 25.634 11.499 25.634 25.633v16.566c0 22.406 18.227 40.634 40.633 40.634h33.134c4.143 0 7.5-3.358 7.5-7.5s-3.357-7.5-7.5-7.5h-9.066v-207.867c0-14.134 11.499-25.633 25.633-25.633s25.633 11.499 25.633 25.633v99.4c0 4.142 3.357 7.5 7.5 7.5h16.826c22.405 0 40.633-18.228 40.633-40.633v-49.7c0-14.134 11.499-25.633 25.634-25.633 6.528 0 12.491 2.457 17.021 6.489.249.357.526.7.845 1.019.348.348.722.651 1.115.916 3.777 4.162 6.202 9.568 6.591 15.521-.125.544-.198 1.107-.198 1.689 0 .668.096 1.313.26 1.929v47.771c0 50.674-41.227 91.9-91.9 91.9h-25.112c-4.143 0-7.5 3.358-7.5 7.5s3.357 7.5 7.5 7.5h.783v167.232h-51.266zm-90.334 106.9h33.134c4.143 0 7.5-3.358 7.5-7.5s-3.357-7.5-7.5-7.5h-7.946c3.215-10.486 12.986-18.133 24.512-18.133h132.533c11.526 0 21.297 7.647 24.512 18.133h-7.946c-4.143 0-7.5 3.358-7.5 7.5s3.357 7.5 7.5 7.5h33.134c11.525 0 21.296 7.647 24.511 18.133h-280.955c3.215-10.485 12.986-18.133 24.511-18.133z"/></g></g></svg>