<?xml version="1.0" encoding="iso-8859-1"?>
<!-- Generator: Adobe Illustrator 19.0.0, SVG Export Plug-In . SVG Version: 6.00 Build 0)  -->
<svg version="1.1" id="Capa_1" xmlns="http://www.w3.org/2000/svg" xmlns:xlink="http://www.w3.org/1999/xlink" x="0px" y="0px"
	 viewBox="0 0 512 512" style="enable-background:new 0 0 512 512;" xml:space="preserve">
<g>
	<rect x="213.333" y="8.533" style="fill:#A4C2F7;" width="85.333" height="34.133"/>
	<path style="fill:#FFFFFF;" d="M264.533,298.667l17.067-29.56V63.694c0-11.613-9.414-21.027-21.027-21.027H149.027
		c-11.613,0-21.027,9.414-21.027,21.027v418.744c0,5.577,2.215,10.926,6.158,14.869c3.943,3.944,9.292,6.159,14.869,6.16h111.546
		c5.577,0,10.926-2.216,14.869-6.16c3.943-3.944,6.159-9.292,6.158-14.869v-154.21L264.533,298.667z"/>
	<path style="fill:#A4C2F7;" d="M362.973,42.667H251.427c-11.613,0-21.027,9.414-21.027,21.027v418.744
		c0,5.577,2.215,10.926,6.158,14.869c3.943,3.944,9.292,6.159,14.869,6.16h111.546c5.577,0,10.925-2.216,14.869-6.16
		c3.943-3.944,6.159-9.292,6.158-14.869V63.694C384,52.081,374.586,42.667,362.973,42.667z"/>
	<path style="fill:#E3E7F2;" d="M337.373,42.667H174.627c-11.613,0-21.027,9.414-21.027,21.027v418.744
		c0,5.577,2.215,10.926,6.158,14.869c3.943,3.944,9.292,6.159,14.869,6.16h162.746c5.577,0,10.925-2.216,14.869-6.16
		c3.943-3.944,6.159-9.292,6.158-14.869V63.694C358.4,52.081,348.986,42.667,337.373,42.667z"/>
	<path style="fill:#7FACFA;" d="M315.733,256H281.6V145.644c0.041-0.219-0.072-0.438-0.275-0.531
		c-0.202-0.093-0.442-0.037-0.582,0.137L196.267,281.6h42.667l0.018,118.86c-0.059,0.22,0.045,0.45,0.248,0.553
		c0.203,0.103,0.45,0.049,0.592-0.129L315.733,256z"/>
	<path style="fill:#A4C2F7;" d="M256,256v-78.433c-3.32,6.007-7.396,11.563-12.129,16.533c0.925,3.072,0.104,6.404-2.144,8.694
		c-3.683,4.004-7.483,7.906-11.302,11.79c1.023,2.508,0.805,5.352-0.588,7.675c-3.393,5.433-7.562,10.339-12.375,14.565
		c0.719,2.285,0.367,4.773-0.958,6.769c-5.769,8.081-10.022,17.1-15.743,25.208c1.118,2.521,1.023,5.415-0.257,7.858
		c-0.904,1.767-2.008,3.425-3.29,4.942h7.947c1.105-2.606,3.512-4.428,6.32-4.784c2.808-0.356,5.593,0.809,7.313,3.057
		c1.529,1.952,2.903,3.973,4.221,6.017c0.244-0.104,0.413-0.296,0.664-0.392c4.91-1.306,9.961,1.562,11.356,6.448
		c4.971,16.898,8.011,34.305,9.06,51.888L290.133,256H256z"/>
	<g>
		<path style="fill:#428DFF;" d="M362.971,512H149.029c-16.318-0.017-29.543-13.24-29.563-29.558V63.692
			c0.019-16.318,13.244-29.541,29.563-29.558h213.942c16.318,0.017,29.543,13.24,29.563,29.558v418.75
			C392.514,498.76,379.289,511.983,362.971,512L362.971,512z M149.029,51.2c-6.898,0.005-12.489,5.594-12.496,12.492v418.75
			c0.007,6.898,5.598,12.487,12.496,12.492h213.942c6.898-0.005,12.489-5.594,12.496-12.492V63.692
			c-0.007-6.898-5.598-12.487-12.496-12.492H149.029z"/>
		<path style="fill:#428DFF;" d="M298.667,51.2h-85.333c-2.263,0.001-4.434-0.898-6.035-2.499c-1.6-1.6-2.499-3.771-2.499-6.035
			V8.533c-0.001-2.263,0.898-4.434,2.499-6.035c1.6-1.6,3.771-2.499,6.035-2.499h85.333c2.263-0.001,4.434,0.898,6.035,2.499
			c1.6,1.6,2.499,3.771,2.499,6.035v34.133c0.001,2.263-0.898,4.434-2.499,6.035C303.101,50.302,300.93,51.201,298.667,51.2z
			 M221.867,34.133h68.267V17.067h-68.267V34.133z"/>
		<path style="fill:#428DFF;" d="M239.221,409.517c-1.338,0.012-2.659-0.29-3.858-0.883c-3.197-1.623-5.136-4.978-4.946-8.558
			L230.4,290.133h-34.133c-3.095-0.001-5.947-1.678-7.453-4.382c-1.506-2.704-1.43-6.012,0.199-8.643l84.475-136.35
			c0.186-0.305,0.392-0.597,0.617-0.875c2.69-3.114,7.091-4.119,10.867-2.483c3.308,1.548,5.349,4.944,5.163,8.592v101.475h25.6
			c2.986,0,5.754,1.561,7.3,4.116c1.546,2.554,1.644,5.731,0.259,8.376L247.35,404.842c-0.25,0.48-0.546,0.935-0.883,1.358
			C244.666,408.329,242.009,409.545,239.221,409.517z M211.592,273.067h27.342c2.263-0.001,4.434,0.898,6.035,2.499
			c1.6,1.6,2.499,3.771,2.499,6.035l0.012,86.233l54.146-103.3H281.6c-2.263,0.001-4.434-0.898-6.035-2.499
			c-1.6-1.6-2.499-3.771-2.499-6.035v-82.158L211.592,273.067z"/>
	</g>
</g>
<g>
</g>
<g>
</g>
<g>
</g>
<g>
</g>
<g>
</g>
<g>
</g>
<g>
</g>
<g>
</g>
<g>
</g>
<g>
</g>
<g>
</g>
<g>
</g>
<g>
</g>
<g>
</g>
<g>
</g>
</svg>
