<?xml version="1.0" encoding="iso-8859-1"?>
<!-- Generator: Adobe Illustrator 19.0.0, SVG Export Plug-In . SVG Version: 6.00 Build 0)  -->
<svg version="1.1" id="Capa_1" xmlns="http://www.w3.org/2000/svg" xmlns:xlink="http://www.w3.org/1999/xlink" x="0px" y="0px"
	 viewBox="0 0 511.782 511.782" style="enable-background:new 0 0 511.782 511.782;" xml:space="preserve">
<path style="fill:#94C1FF;" d="M235.892,507.776H115.947v-7.996v-95.956v-39.981V215.91c0-33.103,26.871-59.973,59.972-59.973
	c33.103,0,59.973,26.87,59.973,59.973v91.958v39.981V499.78V507.776z"/>
<path style="fill:#FFFFFF;" d="M467.787,87.968c0,24.285-19.694,43.979-43.98,43.979c-24.285,0-43.979-19.694-43.979-43.979
	c0-24.286,19.694-43.98,43.979-43.98C448.092,43.988,467.787,63.682,467.787,87.968z"/>
<g>
	<path style="fill:#116FFF;" d="M176.177,415.818c-2.21,0-4.037-1.788-4.037-3.998s1.749-3.998,3.951-3.998h0.086
		c2.202,0,3.998,1.788,3.998,3.998S178.379,415.818,176.177,415.818z"/>
	<path style="fill:#116FFF;" d="M176.177,463.795c-2.21,0-4.037-1.787-4.037-3.998c0-2.209,1.749-3.998,3.951-3.998h0.086
		c2.202,0,3.998,1.789,3.998,3.998C180.175,462.008,178.379,463.795,176.177,463.795z"/>
	<path style="fill:#116FFF;" d="M136.196,435.809c-2.21,0-4.037-1.789-4.037-3.998c0-2.211,1.749-3.998,3.951-3.998h0.086
		c2.202,0,3.998,1.787,3.998,3.998C140.194,434.02,138.398,435.809,136.196,435.809z"/>
	<path style="fill:#116FFF;" d="M136.196,483.787c-2.21,0-4.037-1.788-4.037-3.998s1.749-3.998,3.951-3.998h0.086
		c2.202,0,3.998,1.788,3.998,3.998S138.398,483.787,136.196,483.787z"/>
	<path style="fill:#116FFF;" d="M216.159,243.897c-2.21,0-4.038-1.789-4.038-3.999s1.75-3.998,3.952-3.998h0.086
		c2.202,0,3.998,1.788,3.998,3.998S218.361,243.897,216.159,243.897z"/>
	<path style="fill:#116FFF;" d="M216.159,291.874c-2.21,0-4.038-1.788-4.038-3.998s1.75-3.998,3.952-3.998h0.086
		c2.202,0,3.998,1.788,3.998,3.998S218.361,291.874,216.159,291.874z"/>
	<path style="fill:#116FFF;" d="M216.159,339.853c-2.21,0-4.038-1.788-4.038-3.999c0-2.209,1.75-3.998,3.952-3.998h0.086
		c2.202,0,3.998,1.789,3.998,3.998C220.157,338.065,218.361,339.853,216.159,339.853z"/>
	<path style="fill:#116FFF;" d="M216.159,387.83c-2.21,0-4.038-1.788-4.038-3.998s1.75-3.998,3.952-3.998h0.086
		c2.202,0,3.998,1.788,3.998,3.998S218.361,387.83,216.159,387.83z"/>
	<path style="fill:#116FFF;" d="M216.159,435.809c-2.21,0-4.038-1.789-4.038-3.998c0-2.211,1.75-3.998,3.952-3.998h0.086
		c2.202,0,3.998,1.787,3.998,3.998C220.157,434.02,218.361,435.809,216.159,435.809z"/>
	<path style="fill:#116FFF;" d="M216.159,483.787c-2.21,0-4.038-1.788-4.038-3.998s1.75-3.998,3.952-3.998h0.086
		c2.202,0,3.998,1.788,3.998,3.998S218.361,483.787,216.159,483.787z"/>
	<path style="fill:#116FFF;" d="M423.806,135.946c-26.457,0-47.979-21.521-47.979-47.978s21.521-47.979,47.979-47.979
		s47.979,21.521,47.979,47.979C471.785,114.424,450.263,135.946,423.806,135.946z M423.806,47.986
		c-22.045,0-39.981,17.937-39.981,39.982c0,22.044,17.937,39.981,39.981,39.981s39.981-17.937,39.981-39.981
		C463.787,65.923,445.851,47.986,423.806,47.986z"/>
	<path style="fill:#116FFF;" d="M423.806,31.994c-2.21,0-3.998-1.788-3.998-3.998V4.006c0-2.21,1.788-3.998,3.998-3.998
		s3.998,1.788,3.998,3.998v23.989C427.804,30.205,426.016,31.994,423.806,31.994z"/>
	<path style="fill:#116FFF;" d="M423.806,175.928c-2.21,0-3.998-1.789-3.998-3.998v-23.989c0-2.21,1.788-3.999,3.998-3.999
		s3.998,1.789,3.998,3.999v23.989C427.804,174.139,426.016,175.928,423.806,175.928z"/>
	<path style="fill:#116FFF;" d="M393.82,40.029c-1.374,0-2.725-0.718-3.459-1.999l-11.995-20.779
		c-1.108-1.913-0.452-4.357,1.461-5.458c1.921-1.117,4.357-0.453,5.458,1.46l11.994,20.779c1.109,1.913,0.453,4.357-1.46,5.458
		C395.187,39.857,394.499,40.029,393.82,40.029z"/>
	<path style="fill:#116FFF;" d="M465.787,164.683c-1.374,0-2.725-0.719-3.459-1.999l-11.994-20.772
		c-1.109-1.914-0.453-4.357,1.46-5.458c1.897-1.117,4.357-0.461,5.458,1.46l11.995,20.772c1.108,1.914,0.452,4.357-1.46,5.458
		C467.154,164.511,466.466,164.683,465.787,164.683z"/>
	<path style="fill:#116FFF;" d="M371.876,61.98c-0.679,0-1.366-0.172-1.999-0.539l-20.771-11.994
		c-1.913-1.102-2.569-3.545-1.46-5.459c1.093-1.913,3.553-2.561,5.458-1.46l20.772,11.995c1.912,1.101,2.568,3.545,1.46,5.458
		C374.602,61.261,373.251,61.98,371.876,61.98z"/>
	<path style="fill:#116FFF;" d="M496.523,133.947c-0.68,0-1.366-0.172-1.999-0.539l-20.771-11.995
		c-1.913-1.101-2.569-3.545-1.461-5.458c1.102-1.913,3.554-2.561,5.459-1.46l20.771,11.995c1.913,1.101,2.569,3.545,1.46,5.458
		C499.248,133.228,497.897,133.947,496.523,133.947z"/>
	<path style="fill:#116FFF;" d="M363.849,91.966h-23.988c-2.211,0-3.999-1.788-3.999-3.998s1.788-3.999,3.999-3.999h23.988
		c2.21,0,3.998,1.789,3.998,3.999S366.059,91.966,363.849,91.966z"/>
	<path style="fill:#116FFF;" d="M507.784,91.966h-23.989c-2.21,0-3.998-1.788-3.998-3.998s1.788-3.999,3.998-3.999h23.989
		c2.21,0,3.998,1.789,3.998,3.999S509.994,91.966,507.784,91.966z"/>
	<path style="fill:#116FFF;" d="M351.105,133.947c-1.374,0-2.717-0.718-3.459-1.999c-1.109-1.913-0.453-4.357,1.46-5.458
		l20.787-12.011c1.913-1.124,4.35-0.46,5.459,1.461c1.108,1.913,0.452,4.357-1.46,5.458l-20.788,12.01
		C352.472,133.775,351.785,133.947,351.105,133.947z"/>
	<path style="fill:#116FFF;" d="M475.767,61.972c-1.383,0-2.726-0.719-3.46-1.999c-1.108-1.913-0.452-4.357,1.461-5.458
		l20.771-11.987c1.921-1.125,4.357-0.453,5.458,1.46c1.109,1.914,0.453,4.357-1.46,5.459l-20.771,11.986
		C477.133,61.8,476.447,61.972,475.767,61.972z"/>
	<path style="fill:#116FFF;" d="M381.841,164.667c-0.68,0-1.367-0.172-1.999-0.539c-1.913-1.101-2.569-3.545-1.461-5.458
		l11.995-20.78c1.101-1.913,3.561-2.569,5.458-1.46c1.913,1.101,2.569,3.545,1.46,5.458l-11.994,20.78
		C384.566,163.949,383.215,164.667,381.841,164.667z"/>
	<path style="fill:#116FFF;" d="M453.808,40.013c-0.68,0-1.366-0.172-1.999-0.539c-1.913-1.101-2.569-3.545-1.46-5.458
		l11.994-20.764c1.102-1.913,3.553-2.562,5.459-1.46c1.912,1.101,2.568,3.545,1.46,5.458l-11.995,20.764
		C456.526,39.295,455.182,40.013,453.808,40.013z"/>
	<path style="fill:#116FFF;" d="M176.177,223.906c-2.21,0-4.037-1.788-4.037-3.998s1.749-3.998,3.951-3.998h0.086
		c2.202,0,3.998,1.788,3.998,3.998S178.379,223.906,176.177,223.906z"/>
	<path style="fill:#116FFF;" d="M176.177,271.883c-2.21,0-4.037-1.788-4.037-3.998c0-2.209,1.749-3.998,3.951-3.998h0.086
		c2.202,0,3.998,1.789,3.998,3.998C180.175,270.095,178.379,271.883,176.177,271.883z"/>
	<path style="fill:#116FFF;" d="M176.177,319.862c-2.21,0-4.037-1.788-4.037-3.998s1.749-3.998,3.951-3.998h0.086
		c2.202,0,3.998,1.788,3.998,3.998S178.379,319.862,176.177,319.862z"/>
	<path style="fill:#116FFF;" d="M176.177,367.84c-2.21,0-4.037-1.789-4.037-3.998c0-2.211,1.749-3.999,3.951-3.999h0.086
		c2.202,0,3.998,1.788,3.998,3.999C180.175,366.051,178.379,367.84,176.177,367.84z"/>
	<path style="fill:#116FFF;" d="M136.196,243.897c-2.21,0-4.037-1.789-4.037-3.999s1.749-3.998,3.951-3.998h0.086
		c2.202,0,3.998,1.788,3.998,3.998S138.398,243.897,136.196,243.897z"/>
	<path style="fill:#116FFF;" d="M136.196,291.874c-2.21,0-4.037-1.788-4.037-3.998s1.749-3.998,3.951-3.998h0.086
		c2.202,0,3.998,1.788,3.998,3.998S138.398,291.874,136.196,291.874z"/>
	<path style="fill:#116FFF;" d="M136.196,339.853c-2.21,0-4.037-1.788-4.037-3.999c0-2.209,1.749-3.998,3.951-3.998h0.086
		c2.202,0,3.998,1.789,3.998,3.998C140.194,338.065,138.398,339.853,136.196,339.853z"/>
	<path style="fill:#116FFF;" d="M136.196,387.83c-2.21,0-4.037-1.788-4.037-3.998s1.749-3.998,3.951-3.998h0.086
		c2.202,0,3.998,1.788,3.998,3.998S138.398,387.83,136.196,387.83z"/>
</g>
<path style="fill:#D7E9FF;" d="M203.907,127.95c0,15.431-12.471,27.987-27.987,27.987c-15.43,0-27.987-12.557-27.987-27.987
	l15.993,3.998l11.994-15.993l11.995,15.993L203.907,127.95z"/>
<path style="fill:#94C1FF;" d="M55.974,227.904c11.034,0,19.991,8.957,19.991,19.991v39.981v39.981v27.987
	c0,4.396,3.6,7.997,7.996,7.997h23.989h7.997v39.981h-7.997H87.96H67.969c-5.841,0-11.276-1.601-15.993-4.318
	c-9.597-5.521-15.992-15.829-15.992-27.667v-43.98v-39.981v-39.981C35.984,236.861,44.941,227.904,55.974,227.904z"/>
<path style="fill:#D7E9FF;" d="M67.969,247.895v39.981v39.981v27.987c0,4.396,3.6,7.997,7.996,7.997h7.996
	c-4.396,0-7.996-3.601-7.996-7.997v-27.987v-39.981v-39.981c0-11.034-8.957-19.991-19.991-19.991c-1.367,0-2.702,0.141-3.999,0.406
	C61.097,230.161,67.969,238.227,67.969,247.895z"/>
<path style="fill:#5C9EFF;" d="M43.98,371.838v-43.98v-39.981v-39.981c0-9.668,6.872-17.734,15.993-19.585
	c-1.296-0.266-2.631-0.406-3.998-0.406c-11.034,0-19.991,8.957-19.991,19.991v39.981v39.981v43.98
	c0,11.838,6.396,22.146,15.992,27.667c4.717,2.718,10.152,4.318,15.993,4.318h7.996c-5.841,0-11.276-1.601-15.993-4.318
	C50.375,393.984,43.98,383.676,43.98,371.838z"/>
<path style="fill:#94C1FF;" d="M295.865,171.93c11.034,0,19.991,8.957,19.991,19.991v39.981v39.981v43.98
	c0,11.838-6.396,22.146-15.993,27.667c-4.717,2.718-10.151,4.318-15.992,4.318H263.88h-19.991h-7.997v-39.981h7.997h23.989
	c4.396,0,7.997-3.601,7.997-7.996v-27.988v-39.981v-39.981C275.874,180.886,284.83,171.93,295.865,171.93z"/>
<path style="fill:#5C9EFF;" d="M283.87,299.871v-27.988v-39.981v-39.981c0-9.667,6.871-17.734,15.992-19.585
	c-1.296-0.266-2.631-0.406-3.998-0.406c-11.034,0-19.99,8.957-19.99,19.991v39.981v39.981v27.988c0,4.396-3.601,7.996-7.997,7.996
	h7.997C280.27,307.868,283.87,304.267,283.87,299.871z"/>
<path style="fill:#D7E9FF;" d="M295.865,171.93c-1.366,0-2.702,0.14-3.998,0.406c9.121,1.851,15.992,9.917,15.992,19.585v39.981
	v39.981v43.98c0,11.838-6.395,22.146-15.992,27.667c-4.717,2.718-10.151,4.318-15.992,4.318h7.996
	c5.841,0,11.275-1.601,15.992-4.318c9.598-5.521,15.993-15.829,15.993-27.667v-43.98v-39.981v-39.981
	C315.856,180.886,306.899,171.93,295.865,171.93z"/>
<path style="fill:#5C9EFF;" d="M131.94,403.824v-39.981V215.91c0-30.385,22.661-55.451,51.976-59.379
	c-2.624-0.351-5.279-0.593-7.997-0.593c-33.102,0-59.972,26.87-59.972,59.973v147.933v39.981v95.956v7.996h15.993v-7.996V403.824z"
	/>
<path style="fill:#D7E9FF;" d="M219.9,403.824v-39.981V215.91c0-30.385-22.662-55.451-51.977-59.379
	c2.624-0.351,5.279-0.593,7.996-0.593c33.103,0,59.973,26.87,59.973,59.973v147.933v39.981v95.956v7.996H219.9v-7.996V403.824z"/>
<g>
	<path style="fill:#116FFF;" d="M163.925,135.946c-0.32,0-0.641-0.039-0.969-0.117l-15.992-3.998
		c-2.147-0.539-3.444-2.709-2.913-4.849c0.531-2.147,2.679-3.444,4.85-2.913l15.993,3.998c2.147,0.539,3.444,2.71,2.913,4.85
		C167.353,134.736,165.721,135.946,163.925,135.946z"/>
	<path style="fill:#116FFF;" d="M187.914,135.946c-1.796,0-3.429-1.21-3.881-3.029c-0.531-2.14,0.765-4.311,2.913-4.85l15.993-3.998
		c2.108-0.539,4.311,0.765,4.849,2.913c0.531,2.14-0.765,4.311-2.912,4.849l-15.993,3.998
		C188.562,135.907,188.234,135.946,187.914,135.946z"/>
	<path style="fill:#116FFF;" d="M163.925,135.946c-0.836,0-1.679-0.258-2.397-0.796c-1.765-1.328-2.124-3.834-0.804-5.6
		l11.995-15.992c1.335-1.765,3.842-2.116,5.599-0.805c1.765,1.328,2.124,3.834,0.805,5.599l-11.995,15.993
		C166.338,135.391,165.135,135.946,163.925,135.946z"/>
	<path style="fill:#116FFF;" d="M187.914,135.946c-1.211,0-2.413-0.554-3.202-1.601l-11.994-15.993
		c-1.32-1.765-0.961-4.271,0.804-5.599c1.765-1.312,4.264-0.96,5.599,0.805l11.994,15.992c1.32,1.765,0.961,4.271-0.804,5.6
		C189.593,135.688,188.749,135.946,187.914,135.946z"/>
	<path style="fill:#116FFF;" d="M507.768,511.774H3.998c-2.21,0-3.998-1.788-3.998-3.998s1.788-3.998,3.998-3.998h503.77
		c2.21,0,3.998,1.788,3.998,3.998S509.978,511.774,507.768,511.774z"/>
	<path style="fill:#116FFF;" d="M235.892,219.908c-2.21,0-3.998-1.788-3.998-3.998c0-30.861-25.113-55.975-55.975-55.975
		c-30.86,0-55.974,25.113-55.974,55.975c0,2.21-1.789,3.998-3.998,3.998c-2.21,0-3.999-1.788-3.999-3.998
		c0-35.273,28.698-63.971,63.971-63.971s63.971,28.697,63.971,63.971C239.89,218.12,238.102,219.908,235.892,219.908z"/>
	<path style="fill:#116FFF;" d="M115.947,503.778c-2.21,0-3.999-1.788-3.999-3.998V215.91c0-2.21,1.789-3.998,3.999-3.998
		c2.209,0,3.998,1.788,3.998,3.998v283.87C119.945,501.99,118.157,503.778,115.947,503.778z"/>
	<path style="fill:#116FFF;" d="M235.892,503.778c-2.21,0-3.998-1.788-3.998-3.998V215.91c0-2.21,1.788-3.998,3.998-3.998
		s3.998,1.788,3.998,3.998v283.87C239.89,501.99,238.102,503.778,235.892,503.778z"/>
	<path style="fill:#116FFF;" d="M107.951,367.84h-23.99c-2.209,0-3.998-1.789-3.998-3.998c0-2.211,1.789-3.999,3.998-3.999h23.989
		c2.21,0,3.998,1.788,3.998,3.999C111.949,366.051,110.161,367.84,107.951,367.84z"/>
	<path style="fill:#116FFF;" d="M107.951,407.822H67.969c-2.21,0-3.998-1.788-3.998-3.998s1.788-3.999,3.998-3.999h39.981
		c2.21,0,3.998,1.789,3.998,3.999S110.161,407.822,107.951,407.822z"/>
	<path style="fill:#116FFF;" d="M67.969,407.822c-6.255,0-12.479-1.679-17.992-4.85c-11.096-6.388-17.991-18.319-17.991-31.134
		c0-2.21,1.788-3.998,3.998-3.998s3.998,1.788,3.998,3.998c0,9.964,5.357,19.241,13.986,24.199
		c4.365,2.515,9.074,3.787,14.001,3.787c2.21,0,3.998,1.789,3.998,3.999S70.179,407.822,67.969,407.822z"/>
	<path style="fill:#116FFF;" d="M35.984,375.836c-2.21,0-3.998-1.788-3.998-3.998V247.895c0-2.21,1.788-3.998,3.998-3.998
		s3.998,1.788,3.998,3.998v123.943C39.982,374.048,38.194,375.836,35.984,375.836z"/>
	<path style="fill:#116FFF;" d="M75.965,359.843c-2.21,0-3.998-1.788-3.998-3.998v-107.95c0-2.21,1.788-3.998,3.998-3.998
		s3.998,1.788,3.998,3.998v107.95C79.963,358.055,78.175,359.843,75.965,359.843z"/>
	<path style="fill:#116FFF;" d="M75.965,251.893c-2.21,0-3.998-1.788-3.998-3.998c0-8.816-7.177-15.993-15.993-15.993
		s-15.993,7.177-15.993,15.993c0,2.21-1.788,3.998-3.998,3.998s-3.998-1.788-3.998-3.998c0-13.229,10.761-23.989,23.989-23.989
		s23.989,10.761,23.989,23.989C79.963,250.105,78.175,251.893,75.965,251.893z"/>
	<path style="fill:#116FFF;" d="M83.961,367.84c-6.614,0-11.994-5.381-11.994-11.995c0-2.21,1.788-3.998,3.998-3.998
		s3.998,1.788,3.998,3.998c0,2.202,1.796,3.998,3.998,3.998c2.21,0,3.999,1.788,3.999,3.999
		C87.96,366.051,86.171,367.84,83.961,367.84z"/>
	<path style="fill:#116FFF;" d="M55.974,231.902c-2.21,0-3.999-1.788-3.999-3.998v-7.996c0-2.21,1.789-3.998,3.999-3.998
		s3.998,1.788,3.998,3.998v7.996C59.973,230.114,58.184,231.902,55.974,231.902z"/>
	<path style="fill:#116FFF;" d="M35.984,251.893h-7.997c-2.209,0-3.998-1.788-3.998-3.998s1.789-3.998,3.998-3.998h7.997
		c2.21,0,3.998,1.788,3.998,3.998S38.194,251.893,35.984,251.893z"/>
	<path style="fill:#116FFF;" d="M83.961,251.893h-7.996c-2.21,0-3.998-1.788-3.998-3.998s1.788-3.998,3.998-3.998h7.996
		c2.21,0,3.999,1.788,3.999,3.998S86.171,251.893,83.961,251.893z"/>
	<path style="fill:#116FFF;" d="M83.961,291.874h-7.996c-2.21,0-3.998-1.788-3.998-3.998s1.788-3.998,3.998-3.998h7.996
		c2.21,0,3.999,1.788,3.999,3.998S86.171,291.874,83.961,291.874z"/>
	<path style="fill:#116FFF;" d="M83.961,331.856h-7.996c-2.21,0-3.998-1.788-3.998-3.998s1.788-3.998,3.998-3.998h7.996
		c2.21,0,3.999,1.788,3.999,3.998S86.171,331.856,83.961,331.856z"/>
	<path style="fill:#116FFF;" d="M35.984,291.874h-7.997c-2.209,0-3.998-1.788-3.998-3.998s1.789-3.998,3.998-3.998h7.997
		c2.21,0,3.998,1.788,3.998,3.998S38.194,291.874,35.984,291.874z"/>
	<path style="fill:#116FFF;" d="M35.984,331.856h-7.997c-2.209,0-3.998-1.788-3.998-3.998s1.789-3.998,3.998-3.998h7.997
		c2.21,0,3.998,1.788,3.998,3.998S38.194,331.856,35.984,331.856z"/>
	<path style="fill:#116FFF;" d="M35.984,375.836h-7.997c-2.209,0-3.998-1.788-3.998-3.998s1.789-3.998,3.998-3.998h7.997
		c2.21,0,3.998,1.788,3.998,3.998S38.194,375.836,35.984,375.836z"/>
	<path style="fill:#116FFF;" d="M47.978,410.461c-0.679,0-1.366-0.172-1.991-0.531c-1.913-1.102-2.577-3.545-1.476-5.459
		l3.998-6.957c1.101-1.922,3.553-2.577,5.458-1.477c1.913,1.102,2.577,3.546,1.476,5.459l-3.999,6.957
		C50.703,409.743,49.36,410.461,47.978,410.461z"/>
	<path style="fill:#116FFF;" d="M99.954,367.2c-2.21,0-3.998-1.788-3.998-3.998v-7.356c0-2.21,1.788-3.998,3.998-3.998
		s3.998,1.788,3.998,3.998v7.356C103.953,365.412,102.164,367.2,99.954,367.2z"/>
	<path style="fill:#116FFF;" d="M87.96,415.818c-2.21,0-3.999-1.788-3.999-3.998v-7.996c0-2.21,1.789-3.999,3.999-3.999
		s3.998,1.789,3.998,3.999v7.996C91.958,414.03,90.17,415.818,87.96,415.818z"/>
	<path style="fill:#116FFF;" d="M267.877,311.866h-23.989c-2.21,0-3.999-1.788-3.999-3.998s1.789-3.998,3.999-3.998h23.989
		c2.21,0,3.998,1.788,3.998,3.998S270.087,311.866,267.877,311.866z"/>
	<path style="fill:#116FFF;" d="M283.87,351.847h-39.982c-2.21,0-3.999-1.788-3.999-3.998s1.789-3.998,3.999-3.998h39.982
		c2.21,0,3.998,1.788,3.998,3.998S286.08,351.847,283.87,351.847z"/>
	<path style="fill:#116FFF;" d="M283.87,351.847c-2.21,0-3.998-1.788-3.998-3.998s1.788-3.998,3.998-3.998
		c4.927,0,9.636-1.272,13.993-3.788c8.637-4.958,13.993-14.235,13.993-24.199c0-2.21,1.789-3.998,3.999-3.998
		s3.998,1.788,3.998,3.998c0,12.814-6.896,24.746-18,31.134C296.349,350.168,290.125,351.847,283.87,351.847z"/>
	<path style="fill:#116FFF;" d="M315.856,319.862c-2.21,0-3.999-1.788-3.999-3.998V191.92c0-2.21,1.789-3.998,3.999-3.998
		s3.998,1.788,3.998,3.998v123.943C319.854,318.074,318.066,319.862,315.856,319.862z"/>
	<path style="fill:#116FFF;" d="M275.874,303.87c-2.211,0-3.999-1.789-3.999-3.998V191.92c0-2.21,1.788-3.998,3.999-3.998
		c2.209,0,3.998,1.788,3.998,3.998v107.951C279.872,302.08,278.083,303.87,275.874,303.87z"/>
	<path style="fill:#116FFF;" d="M315.856,195.918c-2.21,0-3.999-1.788-3.999-3.998c0-8.816-7.176-15.993-15.992-15.993
		s-15.992,7.176-15.992,15.993c0,2.21-1.789,3.998-3.998,3.998c-2.211,0-3.999-1.788-3.999-3.998
		c0-13.229,10.761-23.989,23.989-23.989s23.989,10.761,23.989,23.989C319.854,194.13,318.066,195.918,315.856,195.918z"/>
	<path style="fill:#116FFF;" d="M267.877,311.866c-2.21,0-3.998-1.788-3.998-3.998s1.788-3.998,3.998-3.998
		c2.202,0,3.998-1.797,3.998-3.998c0-2.211,1.788-3.999,3.999-3.999c2.209,0,3.998,1.788,3.998,3.999
		C279.872,306.485,274.492,311.866,267.877,311.866z"/>
	<path style="fill:#116FFF;" d="M295.865,175.928c-2.21,0-3.998-1.789-3.998-3.998v-7.997c0-2.21,1.788-3.998,3.998-3.998
		s3.998,1.788,3.998,3.998v7.997C299.863,174.139,298.075,175.928,295.865,175.928z"/>
	<path style="fill:#116FFF;" d="M323.852,195.918h-7.996c-2.21,0-3.999-1.788-3.999-3.998s1.789-3.998,3.999-3.998h7.996
		c2.21,0,3.998,1.788,3.998,3.998S326.062,195.918,323.852,195.918z"/>
	<path style="fill:#116FFF;" d="M275.874,195.918h-7.997c-2.21,0-3.998-1.788-3.998-3.998s1.788-3.998,3.998-3.998h7.997
		c2.209,0,3.998,1.788,3.998,3.998S278.083,195.918,275.874,195.918z"/>
	<path style="fill:#116FFF;" d="M275.874,235.9h-7.997c-2.21,0-3.998-1.789-3.998-3.999s1.788-3.998,3.998-3.998h7.997
		c2.209,0,3.998,1.788,3.998,3.998S278.083,235.9,275.874,235.9z"/>
	<path style="fill:#116FFF;" d="M275.874,275.882h-7.997c-2.21,0-3.998-1.788-3.998-3.999c0-2.209,1.788-3.998,3.998-3.998h7.997
		c2.209,0,3.998,1.789,3.998,3.998C279.872,274.094,278.083,275.882,275.874,275.882z"/>
	<path style="fill:#116FFF;" d="M323.852,235.9h-7.996c-2.21,0-3.999-1.789-3.999-3.999s1.789-3.998,3.999-3.998h7.996
		c2.21,0,3.998,1.788,3.998,3.998S326.062,235.9,323.852,235.9z"/>
	<path style="fill:#116FFF;" d="M323.852,275.882h-7.996c-2.21,0-3.999-1.788-3.999-3.999c0-2.209,1.789-3.998,3.999-3.998h7.996
		c2.21,0,3.998,1.789,3.998,3.998C327.85,274.094,326.062,275.882,323.852,275.882z"/>
	<path style="fill:#116FFF;" d="M323.852,319.862h-7.996c-2.21,0-3.999-1.788-3.999-3.998s1.789-3.998,3.999-3.998h7.996
		c2.21,0,3.998,1.788,3.998,3.998S326.062,319.862,323.852,319.862z"/>
	<path style="fill:#116FFF;" d="M303.861,354.487c-1.382,0-2.725-0.719-3.467-2.007l-3.998-6.958
		c-1.102-1.913-0.438-4.357,1.476-5.459c1.882-1.093,4.35-0.452,5.458,1.477l3.999,6.957c1.101,1.914,0.437,4.357-1.477,5.459
		C305.228,354.315,304.54,354.487,303.861,354.487z"/>
	<path style="fill:#116FFF;" d="M251.885,311.225c-2.21,0-3.999-1.788-3.999-3.998v-7.355c0-2.211,1.789-3.999,3.999-3.999
		c2.209,0,3.998,1.788,3.998,3.999v7.355C255.883,309.437,254.095,311.225,251.885,311.225z"/>
	<path style="fill:#116FFF;" d="M263.879,359.843c-2.21,0-3.998-1.788-3.998-3.998v-7.996c0-2.21,1.788-3.998,3.998-3.998
		s3.998,1.788,3.998,3.998v7.996C267.877,358.055,266.089,359.843,263.879,359.843z"/>
	<path style="fill:#116FFF;" d="M155.929,503.778c-2.21,0-3.999-1.788-3.999-3.998V211.912c0-2.21,1.789-3.999,3.999-3.999
		c2.209,0,3.998,1.789,3.998,3.999V499.78C159.927,501.99,158.139,503.778,155.929,503.778z"/>
	<path style="fill:#116FFF;" d="M195.911,503.778c-2.21,0-3.998-1.788-3.998-3.998V211.912c0-2.21,1.788-3.999,3.998-3.999
		s3.998,1.789,3.998,3.999V499.78C199.909,501.99,198.12,503.778,195.911,503.778z"/>
	<path style="fill:#116FFF;" d="M175.919,159.935c-17.64,0-31.985-14.345-31.985-31.985c0-2.21,1.789-3.998,3.999-3.998
		c2.209,0,3.998,1.788,3.998,3.998c0,13.229,10.761,23.989,23.989,23.989c13.229,0,23.989-10.761,23.989-23.989
		c0-2.21,1.788-3.998,3.998-3.998s3.998,1.788,3.998,3.998C207.905,145.59,193.56,159.935,175.919,159.935z"/>
	<path style="fill:#116FFF;" d="M475.783,495.782c-0.578,0-1.172-0.125-1.727-0.391c-1.99-0.961-2.834-3.343-1.881-5.334
		c0.023-0.047,2.287-4.811,4.326-11.775c0.616-2.116,2.834-3.358,4.95-2.718c2.124,0.617,3.343,2.835,2.718,4.951
		c-2.226,7.645-4.678,12.783-4.779,13.002C478.695,494.946,477.266,495.782,475.783,495.782z M483.466,467.724
		c-0.133,0-0.266-0.008-0.398-0.016c-2.194-0.219-3.803-2.171-3.592-4.373c0.195-1.952,0.305-3.967,0.305-5.989
		c0-9.387-2.397-17.141-7.122-23.037c-5.067-6.333-7.754-16.078-7.754-28.189c0-14.377,3.654-28.44,7.271-36.008
		c0.952-1.998,3.35-2.834,5.333-1.881c1.991,0.952,2.835,3.342,1.882,5.333c-3.123,6.528-6.489,19.507-6.489,32.556
		c0,10.269,2.077,18.288,6.005,23.192c5.889,7.355,8.871,16.781,8.871,28.034c0,2.287-0.125,4.553-0.336,6.77
		C487.238,466.178,485.496,467.724,483.466,467.724z"/>
	<path style="fill:#116FFF;" d="M419.808,495.782c-0.578,0-1.172-0.125-1.726-0.391c-1.991-0.953-2.835-3.343-1.882-5.334
		c0.078-0.164,7.605-16.102,7.605-32.711c0-9.387-2.397-17.141-7.121-23.037c-5.889-7.355-8.871-16.781-8.871-28.033
		c-0.008-1.258,0.031-2.538,0.109-3.812c0.133-2.202,2.037-4.037,4.225-3.756c2.209,0.133,3.889,2.022,3.756,4.225
		c-0.062,1.101-0.102,2.21-0.094,3.319c0,9.409,2.397,17.164,7.121,23.06c5.889,7.355,8.871,16.781,8.871,28.034
		c0,18.468-8.051,35.452-8.387,36.171C422.728,494.946,421.299,495.782,419.808,495.782z M414.505,390.931
		c-0.328,0-0.671-0.039-1.007-0.133c-2.14-0.555-3.421-2.741-2.858-4.873c2.39-9.152,5.436-15.548,5.561-15.821
		c0.952-1.982,3.35-2.826,5.333-1.873c1.991,0.952,2.835,3.342,1.882,5.333c-0.031,0.062-2.857,6.021-5.045,14.376
		C417.903,389.744,416.287,390.931,414.505,390.931z"/>
	<path style="fill:#116FFF;" d="M363.833,495.782c-0.578,0-1.171-0.125-1.726-0.391c-1.991-0.953-2.835-3.343-1.882-5.334
		c0.023-0.055,2.405-5.06,4.482-12.314c0.602-2.124,2.779-3.389,4.943-2.741c2.123,0.609,3.35,2.819,2.74,4.943
		c-2.272,7.949-4.85,13.346-4.951,13.564C366.754,494.946,365.326,495.782,363.833,495.782z M371.572,467.154
		c-0.125,0-0.241-0.008-0.366-0.016c-2.202-0.195-3.819-2.14-3.624-4.342c0.164-1.788,0.25-3.615,0.25-5.45
		c0-9.387-2.396-17.141-7.121-23.037c-5.889-7.355-8.871-16.781-8.871-28.033c0-18.461,8.043-35.453,8.387-36.164
		c0.953-1.998,3.357-2.834,5.334-1.881c1.99,0.952,2.834,3.342,1.881,5.333c-0.078,0.156-7.605,16.109-7.605,32.712
		c0,9.386,2.397,17.141,7.122,23.036c5.888,7.355,8.87,16.781,8.87,28.034c0,2.085-0.102,4.146-0.28,6.169
		C375.36,465.592,373.619,467.154,371.572,467.154z"/>
</g>
<g>
</g>
<g>
</g>
<g>
</g>
<g>
</g>
<g>
</g>
<g>
</g>
<g>
</g>
<g>
</g>
<g>
</g>
<g>
</g>
<g>
</g>
<g>
</g>
<g>
</g>
<g>
</g>
<g>
</g>
</svg>
