<?xml version="1.0" encoding="iso-8859-1"?>
<!-- Generator: Adobe Illustrator 19.0.0, SVG Export Plug-In . SVG Version: 6.00 Build 0)  -->
<svg version="1.1" id="Capa_1" xmlns="http://www.w3.org/2000/svg" xmlns:xlink="http://www.w3.org/1999/xlink" x="0px" y="0px"
	 viewBox="0 0 504.59 504.59" style="enable-background:new 0 0 504.59 504.59;" xml:space="preserve">
<g transform="translate(0 -1)">
	<circle style="fill:#A4C2F7;" cx="199.137" cy="200.16" r="189.63"/>
	
		<linearGradient id="SVGID_1_" gradientUnits="userSpaceOnUse" x1="-48.7044" y1="653.5185" x2="-47.957" y2="652.8458" gradientTransform="matrix(341.3333 0 0 -379.2593 16677.0586 247925.5469)">
		<stop  offset="0" style="stop-color:#D4E1F4"/>
		<stop  offset="0.1717" style="stop-color:#D4E1F4"/>
		<stop  offset="0.2" style="stop-color:#D4E1F4"/>
		<stop  offset="0.2001" style="stop-color:#DAE4F4"/>
		<stop  offset="0.2007" style="stop-color:#EBEBF4"/>
		<stop  offset="0.2014" style="stop-color:#F6F1F4"/>
		<stop  offset="0.2023" style="stop-color:#FDF4F4"/>
		<stop  offset="0.205" style="stop-color:#FFF5F4"/>
		<stop  offset="0.2522" style="stop-color:#FFF5F4"/>
		<stop  offset="0.26" style="stop-color:#FFF5F4"/>
		<stop  offset="0.26" style="stop-color:#D4E1F4"/>
		<stop  offset="0.3974" style="stop-color:#D4E1F4"/>
		<stop  offset="0.42" style="stop-color:#D4E1F4"/>
		<stop  offset="0.4201" style="stop-color:#DAE4F4"/>
		<stop  offset="0.4207" style="stop-color:#EBEBF4"/>
		<stop  offset="0.4214" style="stop-color:#F6F1F4"/>
		<stop  offset="0.4223" style="stop-color:#FDF4F4"/>
		<stop  offset="0.425" style="stop-color:#FFF5F4"/>
		<stop  offset="0.4894" style="stop-color:#FFF5F4"/>
		<stop  offset="0.5" style="stop-color:#FFF5F4"/>
		<stop  offset="0.5" style="stop-color:#F9F2F4"/>
		<stop  offset="0.5001" style="stop-color:#E8EBF4"/>
		<stop  offset="0.5003" style="stop-color:#DDE5F4"/>
		<stop  offset="0.5005" style="stop-color:#D6E2F4"/>
		<stop  offset="0.501" style="stop-color:#D4E1F4"/>
		<stop  offset="0.7062" style="stop-color:#D4E1F4"/>
		<stop  offset="0.74" style="stop-color:#D4E1F4"/>
		<stop  offset="0.741" style="stop-color:#FFF5F4"/>
		<stop  offset="0.8346" style="stop-color:#FFF5F4"/>
		<stop  offset="0.85" style="stop-color:#FFF5F4"/>
		<stop  offset="0.851" style="stop-color:#D4E1F4"/>
	</linearGradient>
	<ellipse style="fill:url(#SVGID_1_);" cx="180.174" cy="200.16" rx="170.667" ry="189.63"/>
	<path style="fill:#FFFFFF;" d="M180.174,389.789c6.34-0.024,12.673-0.436,18.963-1.236
		C113.816,378.062,47.433,297.759,47.433,200.16S113.816,22.258,199.137,11.766c-6.29-0.799-12.623-1.212-18.963-1.236
		C85.918,10.53,9.507,95.431,9.507,200.16S85.918,389.789,180.174,389.789z"/>
	<g>
		<path style="fill:#428DFF;" d="M468.267,505.59c-2.515,0.003-4.928-0.997-6.703-2.778L312.419,353.669
			c-1.893-1.894-2.897-4.501-2.764-7.176c0.133-2.675,1.391-5.169,3.463-6.866c9.319-7.629,17.857-16.167,25.486-25.486
			c1.695-2.075,4.19-3.333,6.866-3.463c2.673-0.119,5.274,0.883,7.176,2.764L501.79,462.585c1.779,1.778,2.778,4.189,2.778,6.704
			c0,2.515-0.999,4.926-2.778,6.704l-26.82,26.82C473.194,504.594,470.782,505.593,468.267,505.59z M333.04,347.475l135.227,135.227
			l13.412-13.412L346.452,334.063C342.197,338.734,337.726,343.205,333.04,347.475z"/>
		<path style="fill:#428DFF;" d="M199.137,399.271c-78.269,0-149.277-45.854-181.479-117.192S-1.964,127.156,49.808,68.456
			c2.238-2.551,5.669-3.71,8.995-3.041c3.327,0.67,6.041,3.066,7.119,6.284s0.352,6.766-1.901,9.303
			C3.489,149.801,4.428,253.13,66.201,320.816s164.586,78.043,238.617,24.035s95.558-155.073,49.963-234.562
			S211.075-1.64,127.081,34.998c-4.794,2.072-10.361-0.123-12.452-4.908c-2.091-4.786,0.082-10.361,4.859-12.471
			c74.234-32.386,160.687-16.586,218.667,39.964s75.934,142.581,45.412,217.601S280.128,399.262,199.137,399.271z"/>
		<circle style="fill:#428DFF;" cx="85.359" cy="48.456" r="9.481"/>
	</g>
</g>
<g>
</g>
<g>
</g>
<g>
</g>
<g>
</g>
<g>
</g>
<g>
</g>
<g>
</g>
<g>
</g>
<g>
</g>
<g>
</g>
<g>
</g>
<g>
</g>
<g>
</g>
<g>
</g>
<g>
</g>
</svg>
