<svg id="Capa_1" enable-background="new 0 0 512 512" height="512" viewBox="0 0 512 512" width="512" xmlns="http://www.w3.org/2000/svg"><g><g><g><path d="m471.367 471.367-160.357-304.679c-2.249-4.274-8.37-4.274-10.619 0l-38.592 73.325v244.987h210.617z" fill="#685e68"/></g><g><path d="m471.367 471.367-160.357-304.679c-2.249-4.274-8.37-4.274-10.619 0l-6.785 12.892 153.572 291.786 1.047 13.634h24.19z" fill="#554e56"/></g><g><path d="m300.391 166.688-29.568 56.179h69.754l-29.568-56.179c-2.249-4.274-8.369-4.274-10.618 0z" fill="#c8effe"/></g><g><path d="m316.387 222.867h24.19l-29.568-56.179c-2.249-4.274-8.37-4.274-10.619 0l-6.785 12.892z" fill="#99e2fc"/></g><g><path d="m371.967 471.367v13.633h-331.333v-13.633l160.249-336.524c2.172-4.561 8.663-4.561 10.834 0z" fill="#e5e1e5"/></g><g><path d="m211.717 134.843c-2.172-4.561-8.663-4.561-10.834 0l-5.951 12.498 154.298 324.026v13.633h22.737v-13.633z" fill="#d7d0d6"/></g><g><path d="m211.717 134.843c-2.172-4.561-8.663-4.561-10.834 0l-57.694 121.157h126.222z" fill="#c8effe"/></g><g><path d="m246.674 256h22.737l-57.694-121.157c-2.172-4.561-8.663-4.561-10.834 0l-5.951 12.498z" fill="#99e2fc"/></g><g><path d="m32.067 471.367h447.867c4.418 0 8 3.582 8 8v25.133h-463.867v-25.133c0-4.419 3.581-8 8-8z" fill="#a2e62e"/></g><g><path d="m479.933 471.367h-23.036c4.418 0 8 3.582 8 8v25.133h23.036v-25.133c0-4.419-3.581-8-8-8z" fill="#89d12a"/></g><g><circle cx="322.267" cy="57.2" fill="#ffd900" r="49.7"/></g><g><path d="m322.267 7.5c-3.96 0-7.807.477-11.5 1.352 21.901 5.191 38.2 24.86 38.2 48.348s-16.299 43.157-38.2 48.348c3.693.875 7.54 1.352 11.5 1.352 27.448 0 49.7-22.251 49.7-49.7s-22.252-49.7-49.7-49.7z" fill="#fb0"/></g><g><g><path d="m463.042 438.233h-49.617c-4.095 0-6.987-4.012-5.692-7.897l24.809-74.426c1.823-5.47 9.561-5.47 11.384 0l24.809 74.426c1.294 3.885-1.598 7.897-5.693 7.897z" fill="#a2e62e"/></g><g><path d="m468.734 430.336-24.809-74.426c-1.823-5.47-9.561-5.47-11.384 0l-5.808 17.424 19.001 57.003c1.295 3.885-1.597 7.897-5.692 7.897h23c4.095-.001 6.987-4.013 5.692-7.898z" fill="#89d12a"/></g></g><g><g><path d="m363.642 438.233h-49.617c-4.095 0-6.987-4.012-5.692-7.897l24.809-74.426c1.823-5.47 9.561-5.47 11.384 0l24.809 74.426c1.294 3.885-1.598 7.897-5.693 7.897z" fill="#a2e62e"/></g><g><path d="m369.334 430.336-24.809-74.426c-1.823-5.47-9.561-5.47-11.384 0l-5.808 17.424 19.001 57.003c1.295 3.885-1.597 7.897-5.692 7.897h23c4.095-.001 6.987-4.013 5.692-7.898z" fill="#89d12a"/></g></g><g><g><path d="m264.242 438.233h-49.618c-4.095 0-6.987-4.012-5.692-7.897l24.809-74.426c1.823-5.47 9.561-5.47 11.384 0l24.809 74.426c1.295 3.885-1.597 7.897-5.692 7.897z" fill="#a2e62e"/></g><g><path d="m269.934 430.336-24.809-74.426c-1.823-5.47-9.561-5.47-11.384 0l-5.808 17.424 19.001 57.003c1.295 3.885-1.597 7.897-5.692 7.897h23c4.095-.001 6.987-4.013 5.692-7.898z" fill="#89d12a"/></g></g></g><g><path d="m504.5 497h-9.067v-17.633c0-8.547-6.953-15.5-15.5-15.5h-4.038l-9.544-18.133h5.016c2.411 0 4.675-1.159 6.085-3.115s1.793-4.47 1.031-6.757l-33.133-99.4c-1.021-3.063-3.887-5.128-7.115-5.128s-6.094 2.066-7.115 5.128l-8.639 25.916-75.297-143.064c-.006-.011-.012-.023-.018-.034l-34.828-66.173c-1.297-2.464-3.852-4.007-6.637-4.007s-5.34 1.543-6.637 4.007l-34.83 66.176c-.004.008-.009.017-.013.025l-2.087 3.965-49.062-103.031c-1.244-2.612-3.879-4.275-6.771-4.275-2.893 0-5.528 1.664-6.771 4.275l-163.632 343.625h-3.831c-8.547 0-15.5 6.953-15.5 15.5v17.633h-9.067c-4.142 0-7.5 3.358-7.5 7.5s3.358 7.5 7.5 7.5h104.1c4.142 0 7.5-3.358 7.5-7.5s-3.358-7.5-7.5-7.5h-80.033v-17.633c0-.276.224-.5.5-.5h8.526c.012 0 .024.002.036.002.009 0 .019-.002.028-.002h331.288c.009 0 .019.002.028.002.012 0 .024-.002.036-.002h99.343c.007 0 .014.001.022.001s.017-.001.025-.001h8.535c.276 0 .5.224.5.5v17.633h-338.833c-4.142 0-7.5 3.358-7.5 7.5s3.358 7.5 7.5 7.5h362.899c4.142 0 7.5-3.358 7.5-7.5s-3.358-7.5-7.5-7.5zm-45.556-33.133h-13.211v-18.133h3.667zm-20.711-101.316 22.727 68.183h-6.891c-.047-.001-.094 0-.141 0h-38.424l15.679-47.037c.005-.017.012-.034.017-.051zm-132.533-189.848 22.454 42.664h-44.909zm-30.349 57.664h60.699l79.857 151.729-17.922 53.766c-.762 2.287-.379 4.801 1.031 6.757s3.674 3.115 6.085 3.115h25.633v18.133h-54.031l-8.635-18.133h3.9c2.411 0 4.675-1.159 6.085-3.115s1.793-4.47 1.031-6.757l-33.133-99.4c-1.021-3.063-3.887-5.128-7.115-5.128s-6.094 2.066-7.115 5.128l-6.458 19.375-55.074-115.657zm58.195 148.047c.015-.041.027-.082.041-.123l5.247-15.74 22.728 68.183h-45.455zm17.907 67.319 8.635 18.133h-13.755v-18.133zm-145.153-304.822 51.233 107.589h-102.465zm-58.375 122.589h116.751l53.743 112.861-19.834 59.501c-.762 2.287-.379 4.801 1.031 6.757s3.674 3.115 6.085 3.115h25.633v18.133h-84.4v-18.133h25.634c2.411 0 4.675-1.159 6.085-3.115s1.793-4.47 1.031-6.757l-33.134-99.4c-1.021-3.063-3.887-5.128-7.115-5.128s-6.094 2.066-7.115 5.128l-33.133 99.4c-.762 2.287-.379 4.801 1.031 6.757s3.674 3.115 6.085 3.115h25.633v18.133h-179.424zm68.781 167.233 22.727-68.183 22.728 68.183z"/><path d="m322.267 114.4c31.54 0 57.2-25.66 57.2-57.2s-25.66-57.2-57.2-57.2-57.2 25.66-57.2 57.2 25.66 57.2 57.2 57.2zm0-99.4c23.269 0 42.2 18.931 42.2 42.2s-18.931 42.2-42.2 42.2-42.2-18.931-42.2-42.2 18.931-42.2 42.2-42.2z"/></g></g></svg>