<?xml version="1.0" encoding="iso-8859-1"?>
<!-- Generator: Adobe Illustrator 19.0.0, SVG Export Plug-In . SVG Version: 6.00 Build 0)  -->
<svg version="1.1" id="Capa_1" xmlns="http://www.w3.org/2000/svg" xmlns:xlink="http://www.w3.org/1999/xlink" x="0px" y="0px"
	 viewBox="0 0 512.06 512.06" style="enable-background:new 0 0 512.06 512.06;" xml:space="preserve">
<g transform="translate(0 -1)">
	<path style="fill:#FFFFFF;" d="M9.481,162.214v180.148l104.296-0.049l131.126,120.459c6.229,3.665,13.954,3.674,20.191,0.023
		c6.238-3.651,10.013-10.39,9.868-17.616V68.877c0.145-7.226-3.63-13.965-9.868-17.616c-6.238-3.651-13.962-3.642-20.191,0.023
		L113.778,162.214H9.481z"/>
	<path style="fill:#A4C2F7;" d="M113.778,342.313l131.126,120.459c6.229,3.665,13.954,3.674,20.191,0.023
		c6.238-3.651,10.013-10.39,9.868-17.616V68.877c0.145-7.226-3.63-13.965-9.868-17.616c-6.238-3.651-13.962-3.642-20.191,0.023
		L113.778,162.214V342.313z"/>
	<path style="fill:#E3E7F2;" d="M37.926,162.214v180.148l75.852-0.049l102.681,94.863c13.297,8.004,30.06,23.789,30.06,8.003V68.877
		c0-15.786-16.763,0-30.06,8.003l-102.681,85.333H37.926z"/>
	<g>
		<path style="fill:#428DFF;" d="M502.519,332.88c-2.515,0.003-4.928-0.997-6.703-2.778L344.111,178.398
			c-3.645-3.712-3.618-9.668,0.06-13.346c3.679-3.679,9.635-3.706,13.346-0.06l151.704,151.704
			c2.711,2.712,3.522,6.789,2.054,10.332S506.353,332.879,502.519,332.88z"/>
		<path style="fill:#428DFF;" d="M350.815,332.88c-3.834-0.001-7.291-2.311-8.758-5.853c-1.467-3.542-0.656-7.62,2.054-10.332
			l151.704-151.704c2.388-2.431,5.896-3.394,9.19-2.522c3.294,0.872,5.867,3.445,6.739,6.739c0.872,3.294-0.091,6.803-2.522,9.19
			L357.518,330.102C355.742,331.883,353.33,332.883,350.815,332.88L350.815,332.88z"/>
		<path style="fill:#428DFF;" d="M255.018,475.121c-5.292-0.015-10.48-1.478-15-4.231c-0.548-0.325-1.06-0.707-1.528-1.139
			L110.083,351.797L9.481,351.843l0,0c-5.236-0.001-9.48-4.246-9.481-9.481V162.214c-0.001-2.515,0.997-4.928,2.775-6.706
			c1.778-1.778,4.191-2.777,6.706-2.775h100.824L238.787,44.047c0.385-0.327,0.797-0.622,1.231-0.88
			c8.955-5.485,20.189-5.645,29.296-0.417c9.438,5.292,15.239,15.31,15.13,26.13v376.296c0.109,10.82-5.691,20.838-15.13,26.13
			C264.959,473.791,260.033,475.105,255.018,475.121z M250.509,455.047c3,1.524,6.566,1.43,9.481-0.25
			c3.449-1.964,5.554-5.652,5.491-9.621V68.88c0.063-3.969-2.042-7.656-5.491-9.62c-2.965-1.717-6.607-1.78-9.63-0.167
			L119.898,169.454c-1.712,1.446-3.88,2.239-6.12,2.241H18.963V332.88l94.815-0.046l0,0c2.377-0.002,4.668,0.89,6.417,2.5
			L250.509,455.047z"/>
		<path style="fill:#428DFF;" d="M113.778,219.102c-2.515,0.001-4.928-0.997-6.706-2.775s-2.777-4.191-2.775-6.706v-47.407
			c0-5.236,4.245-9.481,9.481-9.481s9.481,4.245,9.481,9.481v47.407c0.001,2.515-0.997,4.928-2.775,6.706
			C118.705,218.105,116.293,219.104,113.778,219.102z"/>
		<path style="fill:#428DFF;" d="M113.778,351.843c-2.515,0.001-4.928-0.997-6.706-2.775c-1.778-1.778-2.777-4.191-2.775-6.706
			v-47.407c0-5.236,4.245-9.481,9.481-9.481s9.481,4.245,9.481,9.481v47.407c0.001,2.515-0.997,4.928-2.775,6.706
			C118.705,350.846,116.293,351.845,113.778,351.843L113.778,351.843z"/>
	</g>
</g>
<g>
</g>
<g>
</g>
<g>
</g>
<g>
</g>
<g>
</g>
<g>
</g>
<g>
</g>
<g>
</g>
<g>
</g>
<g>
</g>
<g>
</g>
<g>
</g>
<g>
</g>
<g>
</g>
<g>
</g>
</svg>
