<svg height="512" viewBox="0 0 60 52" width="512" xmlns="http://www.w3.org/2000/svg"><g id="012---Right-Arrow" fill="none"><g id="Icons" transform="translate(1 1)"><path id="Shape" d="m58 21v8c.0026446.3029471-.1337086.5903944-.37.78l-25 19.89c-.2985572.2422134-.7095361.2918237-1.0571539.1276116s-.5703173-.5131674-.5728461-.8976116v-8.9c0-.5522847-.4477153-1-1-1h-29c-.55228475 0-1-.4477153-1-1v-26c0-.5522847.44771525-1 1-1h29c.5522847 0 1-.4477153 1-1v-8.89c-.001317-.38625019.2199275-.73872376.5683429-.90545013.3484153-.16672637.7616972-.11789115 1.0616571.12545013l25 19.9c.2341275.1869523.3703243.470389.37.77z" fill="#e8edfc"/><path id="Shape" d="m57.63 20.23-25-19.9c-.2999599-.24334128-.7132418-.2921765-1.0616571-.12545013-.3484154.16672637-.5696599.51919994-.5683429.90545013v.31l23.63 18.81c.2341275.1869523.3703243.470389.37.77v8c.0026446.3029471-.1337086.5903944-.37.78l-23.63 18.8v.32c.0025288.3844442.2252283.7333995.5728461.8976116s.7585967.1146018 1.0571539-.1276116l25-19.89c.2362914-.1896056.3726446-.4770529.37-.78v-8c.0003243-.299611-.1358725-.5830477-.37-.77z" fill="#cad9fc"/><path id="Shape" d="m31 32v8c0-.5522847-.4477153-1-1-1h-29c-.55228475 0-1-.4477153-1-1v-8c0 .5522847.44771525 1 1 1h29c.5522847 0 1 .4477153 1 1z" fill="#a4c2f7"/><path id="Shape" d="m58.0000378 21-.0000378 8c.0026446.3029471-.1337086.5903944-.37.78l-25 19.89c-.1839712.1487752-.4134002.2299578-.65.23-.5444587-.0108913-.9801089-.4554324-.98-1v-8c-.0001089.5445676.4355413.9891087.98 1 .2365998-.0000422.4660288-.0812248.65-.23l22.37-17.8 2.63-2.09c.2362914-.1896056.3726446-.4770529.3700378-.78z" fill="#a4c2f7"/><path id="Shape" d="m57.63 21.78-2.63 2.09v5.13c.0026446.3029471-.1337086.5903944-.37.78l-23.63 18.8v.32c-.0001089.5445676.4355413.9891087.98 1 .2365998-.0000422.4660288-.0812248.65-.23l25-19.89c.2362914-.1896056.3726446-.4770529.37-.78l.0000378-8c.0026068.3029471-.1337464.5903944-.3700378.78z" fill="#7facfa"/></g><path id="Shape" d="m1 28h3c-.55228475 0-1-.4477153-1-1v-26c0-.55228475.44771525-1 1-1h-3c-.55228475 0-1 .44771525-1 1v26c0 .5522847.44771525 1 1 1z" fill="#fff" transform="translate(1 12)"/><path id="Rectangle-path" d="m2 39h8v2h-8z" fill="#fff"/><g fill="#428dff"><path id="Shape" d="m59.254 20.443-24.99-19.888c-.5984408-.48803872-1.4243771-.5879576-2.121933-.25670403-.6975559.33125356-1.1420914 1.03449087-1.142067 1.80670403v8.895h-29c-1.1045695 0-2 .8954305-2 2v26c0 2.127 3 2.706 3 1 0-.5522847-.44771525-1-1-1v-6h29v6h-21c-.55228475 0-1 .4477153-1 1s.44771525 1 1 1h21v8.9c.0025494.7682143.4448916 1.4670764 1.1381189 1.7981286.6932273.3310523 1.51481.2357804 2.1138811-.2451286l25-19.891c.4750591-.3789007.7506258-.9543488.748-1.562v-8c.0007034-.6053623-.2737732-1.178231-.746-1.557zm-57.254 10.557v-18h29c1.1045695 0 2-.8954305 2-2l.009-8.888c26.514 21.1 24.991 19.788 24.991 19.888l-25 19.9v-8.9c0-1.1045695-.8954305-2-2-2zm31 18.9v-6c.4571025.0024331.9006799-.1549767 1.254-.445l23.746-18.9v5.443z"/><path id="Shape" d="m6.02 41c-.55228475 0-1-.4477153-1-1s.44771525-1 1-1 1 .4477153 1 1-.44771525 1-1 1z"/><path id="Shape" d="m22 15h-17c-.55228475 0-1 .4477153-1 1s.44771525 1 1 1h17c.5522847 0 1-.4477153 1-1s-.4477153-1-1-1z"/><path id="Shape" d="m32 16c0-.5522847-.4477153-1-1-1h-5c-.5522847 0-1 .4477153-1 1s.4477153 1 1 1h5c.5522847 0 1-.4477153 1-1z"/></g></g></svg>