<?xml version="1.0" encoding="iso-8859-1"?>
<!-- Generator: Adobe Illustrator 19.0.0, SVG Export Plug-In . SVG Version: 6.00 Build 0)  -->
<svg version="1.1" id="Capa_1" xmlns="http://www.w3.org/2000/svg" xmlns:xlink="http://www.w3.org/1999/xlink" x="0px" y="0px"
	 viewBox="0 0 512.001 512.001" style="enable-background:new 0 0 512.001 512.001;" xml:space="preserve">
<g>
	<path style="fill:#7CB777;" d="M360.835,313.801l-25.737-79.077l-0.405,0.135c0.35-0.122,35.486-12.687,80.662-55.184
		c16.726-15.735,43.041-14.932,58.775,1.796c15.734,16.726,14.93,43.041-1.796,58.775
		C413.463,295.626,366.048,312.104,360.835,313.801z"/>
	<path style="fill:#7CB777;" d="M151.169,313.801l25.737-79.077l0.405,0.135c-0.35-0.122-35.486-12.687-80.662-55.184
		c-16.726-15.735-43.041-14.932-58.775,1.796c-15.734,16.726-14.93,43.041,1.796,58.775
		C98.541,295.626,145.956,312.104,151.169,313.801z"/>
</g>
<g>
	<path style="fill:#35925D;" d="M87.643,173.229c0.123,2.335,0.275,4.67,0.494,7.002l9.96,106.302
		c29.45,19.154,49.764,26.191,53.073,27.269l25.737-79.077l0.405,0.135c-0.35-0.122-35.486-12.687-80.662-55.184
		C93.881,177.071,90.846,174.929,87.643,173.229z"/>
	<path style="fill:#35925D;" d="M423.868,180.231c0.219-2.332,0.371-4.667,0.494-7.002c-3.203,1.701-6.238,3.842-9.006,6.447
		c-45.176,42.497-80.312,55.062-80.662,55.184l0.405-0.135l25.737,79.077c3.309-1.077,23.623-8.114,53.073-27.269L423.868,180.231z"
		/>
</g>
<path style="fill:#7CB777;" d="M341.094,53.799c-23.531-18.191-53.048-29.015-85.092-29.015s-61.561,10.824-85.092,29.015
	c-37.755,29.186-57.355,76.121-52.904,123.633l14.398,153.68l123.598,28.156L379.6,331.112l14.398-153.68
	C398.45,129.92,378.85,82.985,341.094,53.799z"/>
<path style="fill:#FF98C5;" d="M364.178,48.531L364.178,48.531c-1.85-3.397-2.473-7.327-1.763-11.13
	c2.168-11.615-8.002-21.785-19.617-19.617c-3.802,0.71-7.733,0.087-11.13-1.763c-10.376-5.651-23.192,0.878-24.719,12.595l0,0
	c-0.5,3.835-2.307,7.381-5.116,10.04l0,0c-8.581,8.122-6.331,22.328,4.34,27.401c3.493,1.661,6.307,4.475,7.968,7.968l0,0
	c5.073,10.671,19.279,12.921,27.401,4.34l0,0c2.659-2.809,6.205-4.616,10.04-5.116l0,0
	C363.299,71.723,369.829,58.907,364.178,48.531z"/>
<path style="fill:#FD6F71;" d="M256.002,359.268l-136.005,28.156l16.628,85.224c3.61,18.5,19.818,31.852,38.667,31.852h161.42
	c18.849,0,35.057-13.351,38.667-31.852l16.628-85.224L256.002,359.268z"/>
<path style="fill:#E34B4C;" d="M176.626,472.649l-16.628-85.224l116.004-24.016l-20-4.141l-136.005,28.156l16.628,85.224
	c3.61,18.5,19.818,31.852,38.667,31.852h40C196.443,504.5,180.235,491.149,176.626,472.649z"/>
<path style="fill:#EFEDEE;" d="M392.007,331.112h-272.01c-8.688,0-15.731,7.043-15.731,15.731v24.851
	c0,8.688,7.043,15.731,15.731,15.731h272.01c8.688,0,15.731-7.043,15.731-15.731v-24.851
	C407.738,338.155,400.695,331.112,392.007,331.112z"/>
<path style="fill:#D2D2D2;" d="M144.267,371.694v-24.851c0-8.688,7.043-15.73,15.731-15.73h-40c-8.688,0-15.731,7.042-15.731,15.73
	v24.851c0,8.688,7.043,15.73,15.731,15.73h40C151.31,387.424,144.267,380.381,144.267,371.694z"/>
<path d="M183.468,175.067c-4.142,0-7.5,3.358-7.5,7.5v13.125c0,4.142,3.358,7.5,7.5,7.5s7.5-3.358,7.5-7.5v-13.125
	C190.968,178.425,187.61,175.067,183.468,175.067z"/>
<path d="M328.513,203.193c4.142,0,7.5-3.358,7.5-7.5v-13.125c0-4.142-3.358-7.5-7.5-7.5s-7.5,3.358-7.5,7.5v13.125
	C321.013,199.834,324.371,203.193,328.513,203.193z"/>
<path d="M255.99,210.199c9.14,0,17.723-3.821,23.546-10.483c2.726-3.119,2.408-7.856-0.711-10.583s-7.857-2.408-10.583,0.71
	c-2.975,3.403-7.44,5.355-12.252,5.355s-9.278-1.952-12.252-5.355c-2.726-3.119-7.464-3.437-10.583-0.711s-3.437,7.464-0.711,10.583
	C238.268,206.377,246.85,210.199,255.99,210.199z"/>
<circle cx="331.392" cy="48.792" r="12.319"/>
<path d="M492.89,211.459c0.4-13.104-4.326-25.578-13.308-35.127c-9.237-9.82-22.27-15.452-35.756-15.452
	c-12.542,0-24.482,4.735-33.622,13.333c-3.016,2.837-6.08,5.598-9.162,8.307l0.411-4.388c2.161-23.065-1.093-46.071-9.15-67.184
	l10.359-4.302c3.826-1.588,5.639-5.978,4.05-9.803c-1.588-3.825-5.977-5.639-9.803-4.049l-10.661,4.428
	c-4.719-9.376-10.446-18.253-17.122-26.451c0.716-0.996,1.371-2.045,1.937-3.157c3.643-7.149,3.526-15.624-0.312-22.67
	c-1.022-1.876-1.369-4.066-0.977-6.166c1.332-7.131-0.558-14.414-5.183-19.982c-4.647-5.595-11.449-8.805-18.661-8.805
	c-3.71,0-7.188,1.352-10.688-0.556c-3.576-1.948-7.591-2.977-11.609-2.977c-10.954,0-20.424,7.373-23.373,17.639
	c-11.911-3.77-24.224-5.987-36.772-6.618V7.5c0-4.142-3.358-7.5-7.5-7.5s-7.5,3.358-7.5,7.5v9.978
	c-22.665,1.125-44.339,7.349-63.887,18.289l-5.65-9.315c-2.147-3.542-6.76-4.671-10.302-2.523s-4.671,6.76-2.523,10.302l5.775,9.522
	c-1.888,1.325-3.754,2.693-5.592,4.113c-16.975,13.122-30.876,30.052-40.603,49.347l-10.638-4.418
	c-3.824-1.588-8.215,0.224-9.803,4.049c-1.589,3.826,0.224,8.215,4.05,9.803l10.343,4.296c-8.109,21.271-11.271,44.378-9.134,67.19
	l0.411,4.387c-3.081-2.708-6.144-5.468-9.161-8.306c-9.139-8.598-21.08-13.333-33.622-13.333c-13.486,0-26.519,5.632-35.756,15.452
	c-18.542,19.712-17.591,50.834,2.121,69.376c35.543,33.436,67.068,53.027,88.327,63.912l1.311,13.991h-4.172
	c-12.809,0-23.23,10.421-23.23,23.231v24.851c0,10.607,7.148,19.57,16.879,22.341l15.619,80.05
	c4.286,21.97,23.644,37.916,46.028,37.916h161.42c22.384,0,41.741-15.946,46.028-37.916l15.619-80.05
	c9.73-2.771,16.879-11.734,16.879-22.341v-24.851c0-12.81-10.421-23.231-23.23-23.231h-4.172l1.311-13.991
	c21.259-10.885,52.784-30.477,88.327-63.912C487.01,236.727,492.489,224.563,492.89,211.459z M323.635,21.458
	c1.542,0,3.033,0.387,4.435,1.15c4.87,2.652,10.643,3.567,16.094,2.549c6.347-1.186,12.045,4.558,10.868,10.868
	c-1.023,5.481-0.118,11.197,2.549,16.094c1.492,2.74,1.536,5.906,0.119,8.685c-1.362,2.673-4.024,4.575-6.994,4.989
	c-5.561,0.773-10.749,3.326-14.622,7.417c-3.331,3.519-9.075,3.861-12.781,0.723c-1.572-1.331-2.355-3.233-3.374-4.97
	c-2.437-4.157-6.19-7.61-10.546-9.679c-2.818-1.339-4.714-3.875-5.202-6.957c-0.48-3.033,0.567-6.113,2.798-8.224
	c4.026-3.809,6.681-9.022,7.397-14.518C315.063,24.307,319.66,21.458,323.635,21.458z M44.797,234.783
	c-13.687-12.875-14.348-34.486-1.472-48.173c6.508-6.919,15.327-10.729,24.83-10.729c8.708,0,16.998,3.288,23.344,9.258
	c6.993,6.578,14.192,12.856,21.436,18.696l8.234,87.888C101.325,280.683,74.586,262.806,44.797,234.783z M209.673,338.612h182.322
	c4.538,0,8.23,3.692,8.23,8.231v24.851c0,4.539-3.692,8.231-8.23,8.231h-52.322c-4.142,0-7.5,3.358-7.5,7.5s3.358,7.5,7.5,7.5
	h43.217l-14.884,76.288C365.09,486.155,351.924,497,336.7,497H175.28c-15.224,0-28.39-10.845-31.305-25.788l-14.885-76.288h180.583
	c4.142,0,7.5-3.358,7.5-7.5s-3.358-7.5-7.5-7.5H119.985c-4.538,0-8.23-3.692-8.23-8.231v-24.851c0-4.539,3.692-8.231,8.23-8.231
	h59.688c4.142,0,7.5-3.358,7.5-7.5s-3.358-7.5-7.5-7.5h-40.45c0,0-1.829-19.522-1.829-19.525l-9.717-103.715l-2.215-23.639
	c-1.909-20.381,0.883-41.018,8.06-60.034l7.72,3.206c3.776,1.568,8.234-0.273,9.803-4.049c1.589-3.826-0.224-8.215-4.05-9.803
	l-7.382-3.066c8.694-16.895,20.956-31.723,35.872-43.254c1.388-1.073,2.795-2.112,4.216-3.124c0,0,4.35,7.173,4.354,7.178
	c2.119,3.494,6.81,4.642,10.302,2.523c3.542-2.147,4.671-6.76,2.523-10.302l-4.482-7.39c17.198-9.528,36.211-15.001,56.093-16.102
	v9.552c0,4.142,3.358,7.5,7.5,7.5s7.5-3.358,7.5-7.5v-9.555c10.053,0.563,19.938,2.24,29.538,5.05
	c-0.017,0.026-0.03,0.054-0.047,0.08c-3.227,4.957-4.541,11.187-3.616,17.031c1.255,7.925,6.331,14.712,13.577,18.157
	c1.919,0.912,3.502,2.496,4.415,4.415c3.755,7.898,11.932,13.375,20.674,13.834c7.022,0.369,14.086-2.435,18.926-7.537
	c0.007-0.007,0.014-0.014,0.021-0.021c1.419-1.52,3.457-2.56,5.563-2.834c1.522-0.198,3.038-0.534,4.496-1.017
	c5.953,7.224,11.071,15.054,15.319,23.322l-7.369,3.061c-3.826,1.588-5.639,5.977-4.05,9.803c1.565,3.769,6.044,5.611,9.803,4.05
	l7.707-3.201c7.132,18.871,10.005,39.419,8.073,60.028l-2.111,22.53c0,0-9.821,104.824-9.821,104.828l-1.829,19.522H209.673
	c-4.142,0-7.5,3.358-7.5,7.5S205.531,338.612,209.673,338.612z M467.184,234.783c-29.789,28.022-56.527,45.899-76.372,56.939
	l8.234-87.888c7.249-5.843,14.448-12.122,21.437-18.696c6.346-5.97,14.636-9.258,23.343-9.258c9.503,0,18.322,3.811,24.83,10.729
	c6.237,6.63,9.519,15.293,9.241,24.392C477.619,220.1,473.814,228.546,467.184,234.783z"/>
<g>
</g>
<g>
</g>
<g>
</g>
<g>
</g>
<g>
</g>
<g>
</g>
<g>
</g>
<g>
</g>
<g>
</g>
<g>
</g>
<g>
</g>
<g>
</g>
<g>
</g>
<g>
</g>
<g>
</g>
</svg>
