<svg height="511pt" viewBox="0 1 511.98343 511" width="511pt" xmlns="http://www.w3.org/2000/svg"><path d="m318.632812 40.136719-85.671874 66.730469c-4.019532-3.4375-7.527344-7.429688-10.410157-11.863282-6.046875-9.039062-9.253906-19.675781-9.21875-30.546875 0-1.453125.085938-2.816406.171875-4.269531 1.789063-24.089844 19.042969-44.21875 42.582032-49.664062 4.160156-1.027344 8.429687-1.542969 12.714843-1.535157 21.203125-.019531 40.558594 12.078125 49.832031 31.148438zm0 0" fill="#cad9fc"/><path d="m503.464844 64.457031c.023437 16.335938-7.15625 31.851563-19.625 42.410157l-15.1875-11.863282-70.488282-54.867187c7.253907-14.945313 20.859376-25.824219 37.035157-29.613281 4.1875-1.035157 8.488281-1.550782 12.800781-1.535157 14.710938 0 28.820312 5.84375 39.222656 16.246094 10.398438 10.402344 16.242188 24.511719 16.242188 39.222656zm0 0" fill="#cad9fc"/><path d="m293.035156 40.136719-62.636718 71.253906c-8.632813-14.414063-14.425782-30.34375-17.066407-46.933594 0-1.453125.085938-2.816406.171875-4.269531 1.789063-24.089844 19.042969-44.21875 42.582032-49.664062 16.125 3.847656 29.683593 14.710937 36.949218 29.613281zm0 0" fill="#e8edfc"/><path d="m477.867188 64.457031c.039062 10.871094-3.171876 21.507813-9.214844 30.546875l-70.488282-54.867187c7.253907-14.945313 20.859376-25.824219 37.035157-29.613281 25.015625 5.898437 42.683593 28.230468 42.667969 53.933593zm0 0" fill="#e8edfc"/><path d="m503.464844 178.65625c-.113282-13.203125-2.035156-26.324219-5.714844-39.003906h-.09375c-6.816406-23.257813-19.347656-44.4375-36.457031-61.601563h-.195313c-3.082031-3.664062-6.28125-6.886719-9.589844-9.671875-2.277343-1.910156-4.738281-3.609375-7.132812-5.375-13.316406-9.683594-28.195312-17.011718-43.992188-21.664062-.324218-.09375-.640624-.238282-.972656-.332032-5.75-1.617187-11.59375-2.875-17.5-3.773437h-1.707031c-7.160156-1.425781-14.417969-2.308594-21.710937-2.644531-4.273438-.019532-8.542969.179687-12.796876.597656-9.128906.765625-18.160156 2.421875-26.96875 4.949219-28.1875 8.023437-53.273437 24.417969-71.933593 47.015625-5.144531 6.160156-9.742188 12.757812-13.738281 19.714844-13.011719 22.039062-19.796876 47.195312-19.628907 72.789062.015625 6.851562.519531 13.695312 1.503907 20.480469v1.824219c3.441406 21.390624 11.539062 41.761718 23.722656 59.675781.65625.960937 1.414062 1.808593 2.089844 2.746093 1.878906 2.558594 3.710937 5.121094 5.734374 7.535157 2.664063 3.164062 5.511719 6.160156 8.429688 9.089843h.199219c17.128906 17.140626 38.304687 29.691407 61.566406 36.488282h.324219c9.074218 2.605468 18.378906 4.320312 27.785156 5.117187 3.71875.375 7.464844.496094 11.246094.53125h.394531c.332031 0 .65625.042969.988281.042969 79.945313.601562 145.304688-63.589844 146.148438-143.53125 0-.332031 0-.667969 0-1zm0 0" fill="#fff3f2"/><path d="m358.398438 34.589844c-4.273438-.019532-8.542969.179687-12.796876.597656-9.128906.765625-18.160156 2.421875-26.96875 4.949219-28.1875 8.023437-53.273437 24.417969-71.933593 47.015625-5.144531 6.160156-9.742188 12.757812-13.738281 19.714844-13.011719 22.039062-19.796876 47.195312-19.628907 72.789062.015625 6.851562.519531 13.695312 1.503907 20.480469l164.105468-164.082031c-6.804687-.972657-13.667968-1.464844-20.542968-1.464844zm0 0" fill="#d3dff2"/><path d="m378.941406 36.054688-164.105468 164.105468v.042969l164.144531-164.136719zm0 0" fill="#d3dff2"/><path d="m378.980469 36.066406-164.144531 164.136719.007812.042969 164.171875-164.179688zm0 0" fill="#d8e1f2"/><path d="m379.015625 36.066406-164.171875 164.179688v.042968l164.214844-164.214843zm0 0" fill="#dce3f2"/><path d="m379.058594 36.074219-164.214844 164.214843.007812.042969 164.242188-164.25zm0 0" fill="#e0e5f2"/><path d="m379.09375 36.082031-164.242188 164.25.007813.035157 164.277344-164.277344zm0 0" fill="#e4e7f2"/><path d="m379.136719 36.089844-164.277344 164.277344v.042968l164.320313-164.3125zm0 0" fill="#e7e8f2"/><path d="m379.179688 36.097656-164.320313 164.3125.011719.042969 164.339844-164.355469zm0 0" fill="#eaeaf2"/><path d="m379.210938 36.097656-164.339844 164.355469v.039063l164.382812-164.382813zm0 0" fill="#edebf2"/><path d="m379.253906 36.109375-164.382812 164.382813.007812.042968 164.410156-164.417968zm0 0" fill="#efecf2"/><path d="m379.289062 36.117188-164.410156 164.417968v.042969l164.453125-164.453125zm0 0" fill="#f1edf2"/><path d="m379.332031 36.125-164.453125 164.453125.007813.042969 164.488281-164.488282zm0 0" fill="#f3eef2"/><path d="m379.375 36.132812-164.488281 164.488282v.035156l164.523437-164.515625zm0 0" fill="#f5eef2"/><path d="m379.410156 36.140625-164.523437 164.515625.007812.042969 164.558594-164.558594zm0 0" fill="#f6eff2"/><path d="m379.453125 36.140625-164.558594 164.558594.007813.042969 164.582031-164.589844zm0 0" fill="#f8f0f2"/><path d="m379.484375 36.152344-164.582031 164.589844v.042968l164.625-164.625zm0 0" fill="#f9f0f2"/><path d="m379.527344 36.160156-164.625 164.625.007812.042969 164.660156-164.660156zm0 0" fill="#faf1f2"/><path d="m379.570312 36.167969-164.660156 164.660156v.042969l164.695313-164.695313zm0 0" fill="#fbf1f2"/><path d="m379.605469 36.175781-164.695313 164.695313.011719.03125 164.726563-164.726563zm0 0" fill="#fbf1f2"/><path d="m379.648438 36.175781-164.726563 164.726563v.042968l164.761719-164.761718zm0 0" fill="#fcf2f2"/><path d="m379.683594 36.183594-164.761719 164.761718.007813.042969 164.796874-164.796875zm0 0" fill="#fdf2f2"/><path d="m379.726562 36.191406-164.796874 164.796875v.042969l164.835937-164.828125zm0 0" fill="#fdf2f2"/><path d="m379.765625 36.203125-164.835937 164.828125.007812.042969 164.863281-164.863281zm0 0" fill="#fdf2f2"/><path d="m379.800781 36.210938-164.863281 164.863281.007812.042969 164.898438-164.90625zm0 0" fill="#fef2f2"/><path d="m379.84375 36.210938-164.898438 164.90625v.042968l164.933594-164.941406zm0 0" fill="#fef3f2"/><path d="m379.878906 36.21875-164.933594 164.941406.007813.035156 164.96875-164.96875zm0 0" fill="#fef3f2"/><path d="m379.921875 36.226562-164.96875 164.96875v.039063l165.011719-165zm0 0" fill="#fef3f2"/><path d="m379.964844 36.234375-165.011719 165 .011719.042969 165.03125-165.03125zm0 0" fill="#fff3f2"/><path d="m379.996094 36.246094-165.03125 165.03125v.042968l165.074218-165.066406zm0 0" fill="#fff3f2"/><path d="m380.039062 36.253906-165.074218 165.066406.007812.042969 165.101563-165.109375zm0 0" fill="#fff3f2"/><path d="m380.074219 36.253906-165.101563 165.109375.007813.042969 165.136719-165.144531zm0 0" fill="#fff3f2"/><path d="m380.117188 36.261719-165.136719 165.144531v.042969l165.179687-165.179688zm0 0" fill="#fff3f2"/><path d="m380.160156 36.269531-165.179687 165.179688.007812.035156 165.207031-165.207031zm0 0" fill="#fff3f2"/><path d="m380.195312 36.277344-165.207031 165.207031v.042969l165.25-165.242188zm0 0" fill="#fff3f2"/><path d="m380.238281 36.285156-165.25 165.242188.007813.042968 165.273437-165.285156zm0 0" fill="#fff3f2"/><path d="m380.269531 36.285156-165.273437 165.285156v.042969l165.316406-165.316406zm0 0" fill="#fff3f2"/><path d="m380.3125 36.296875-165.316406 165.316406.011718.042969 165.347657-165.351562zm0 0" fill="#fff3f2"/><path d="m380.355469 36.304688-165.347657 165.351562v.039062l165.382813-165.382812zm0 0" fill="#fff3f2"/><path d="m380.390625 36.3125-165.382813 165.382812.007813.035157 165.417969-165.410157zm0 0" fill="#fff3f2"/><path d="m380.433594 36.320312-165.417969 165.410157.007813.042969 165.445312-165.453126zm0 0" fill="#fff3f2"/><path d="m380.46875 36.320312-165.445312 165.453126v.042968l165.488281-165.488281zm0 0" fill="#fff3f2"/><path d="m380.511719 36.328125-165.488281 165.488281.007812.042969 165.519531-165.519531zm0 0" fill="#fff3f2"/><path d="m380.550781 36.339844-165.519531 165.519531v.042969l165.554688-165.554688zm0 0" fill="#fff3f2"/><path d="m380.585938 36.347656-165.554688 165.554688.007812.042968 165.589844-165.589843zm0 0" fill="#fff3f2"/><path d="m380.628906 36.355469-165.589844 165.589843v.042969l165.625-165.625zm0 0" fill="#fff3f2"/><path d="m398.164062 40.136719c-5.75-1.613281-11.59375-2.875-17.5-3.773438l-165.625 165.625c.988282 6.21875 2.386719 12.367188 4.183594 18.40625l179.914063-179.925781c-.324219-.09375-.628907-.238281-.972657-.332031zm0 0" fill="#fff3f2"/><path d="m399.136719 40.46875-179.914063 179.925781c4.273438 14.707031 10.871094 28.636719 19.539063 41.265625.65625.964844 1.417969 1.808594 2.089843 2.75l202.242188-202.242187c-13.304688-9.691407-28.171875-17.03125-43.957031-21.699219zm0 0" fill="#d3dff2"/><path d="m443.128906 62.132812-202.277344 202.277344.019532.023438 202.28125-202.28125zm0 0" fill="#d3dff2"/><path d="m443.152344 62.152344-202.28125 202.28125.015625.027344 202.292969-202.292969zm0 0" fill="#d8e1f2"/><path d="m443.179688 62.167969-202.292969 202.292969.027343.023437 202.289063-202.289063zm0 0" fill="#dce3f2"/><path d="m443.203125 62.195312-202.289063 202.289063.015626.027344 202.300781-202.300781zm0 0" fill="#e0e5f2"/><path d="m443.230469 62.210938-202.300781 202.300781.027343.023437 202.296875-202.308594zm0 0" fill="#e4e7f2"/><path d="m443.253906 62.226562-202.296875 202.308594.015625.027344 202.308594-202.308594zm0 0" fill="#e7e8f2"/><path d="m443.28125 62.253906-202.308594 202.308594.015625.023438 202.320313-202.316407zm0 0" fill="#eaeaf2"/><path d="m443.308594 62.269531-202.320313 202.316407.019531.027343 202.324219-202.324219zm0 0" fill="#edebf2"/><path d="m443.332031 62.289062-202.324219 202.324219.023438.027344 202.328125-202.328125zm0 0" fill="#efecf2"/><path d="m443.359375 62.3125-202.328125 202.328125.019531.023437 202.332031-202.332031zm0 0" fill="#f1edf2"/><path d="m443.382812 62.332031-202.332031 202.332031.015625.027344 202.351563-202.34375zm0 0" fill="#f3eef2"/><path d="m443.417969 62.347656-202.351563 202.34375.027344.023438 202.347656-202.339844zm0 0" fill="#f5eef2"/><path d="m443.441406 62.375-202.347656 202.339844.015625.035156 202.359375-202.359375zm0 0" fill="#f6eff2"/><path d="m443.46875 62.390625-202.359375 202.359375.027344.027344 202.359375-202.371094zm0 0" fill="#f8f0f2"/><path d="m443.496094 62.40625-202.359375 202.371094.015625.023437 202.367187-202.367187zm0 0" fill="#f9f0f2"/><path d="m443.519531 62.433594-202.367187 202.367187.015625.027344 202.378906-202.378906zm0 0" fill="#faf1f2"/><path d="m443.546875 62.449219-202.378906 202.378906.027343.023437 202.375-202.382812zm0 0" fill="#fbf1f2"/><path d="m443.570312 62.46875-202.375 202.382812.015626.027344 202.386718-202.386718zm0 0" fill="#fbf1f2"/><path d="m443.597656 62.492188-202.386718 202.386718.019531.023438 202.390625-202.390625zm0 0" fill="#fcf2f2"/><path d="m443.621094 62.511719-202.390625 202.390625.023437.027344 202.394532-202.402344zm0 0" fill="#fdf2f2"/><path d="m443.648438 62.527344-202.394532 202.402344.015625.023437 202.402344-202.402344zm0 0" fill="#fdf2f2"/><path d="m443.671875 62.550781-202.402344 202.402344.019531.027344 202.410157-202.410157zm0 0" fill="#fdf2f2"/><path d="m443.699219 62.570312-202.410157 202.410157.023438.027343 202.421875-202.421874zm0 0" fill="#fef2f2"/><path d="m443.734375 62.585938-202.421875 202.421874.019531.023438 202.425781-202.417969zm0 0" fill="#fef3f2"/><path d="m443.757812 62.613281-202.425781 202.417969.015625.027344 202.4375-202.429688zm0 0" fill="#fef3f2"/><path d="m443.785156 62.628906-202.4375 202.429688.027344.023437 202.433594-202.4375zm0 0" fill="#fef3f2"/><path d="m443.808594 62.644531-202.433594 202.4375.015625.035157 202.445313-202.445313zm0 0" fill="#fff3f2"/><path d="m443.835938 62.671875-202.445313 202.445313.015625.023437 202.457031-202.453125zm0 0" fill="#fff3f2"/><path d="m443.863281 62.6875-202.457031 202.453125.027344.027344 202.453125-202.460938zm0 0" fill="#fff3f2"/><path d="m443.886719 62.707031-202.453125 202.460938.015625.027343 202.464843-202.464843zm0 0" fill="#fff3f2"/><path d="m443.914062 62.730469-202.464843 202.464843.019531.023438 202.46875-202.46875zm0 0" fill="#fff3f2"/><path d="m443.9375 62.75-202.46875 202.46875.023438.027344 202.472656-202.480469zm0 0" fill="#fff3f2"/><path d="m443.964844 62.765625-202.472656 202.480469.019531.023437 202.476562-202.476562zm0 0" fill="#fff3f2"/><path d="m443.988281 62.792969-202.476562 202.476562.015625.027344 202.496094-202.488281zm0 0" fill="#fff3f2"/><path d="m444.023438 62.808594-202.496094 202.488281.027344.023437 202.496093-202.496093zm0 0" fill="#fff3f2"/><path d="m444.050781 62.824219-202.496093 202.496093.015624.027344 202.503907-202.503906zm0 0" fill="#fff3f2"/><path d="m444.074219 62.84375-202.503907 202.503906.015626.023438 202.515624-202.503906zm0 0" fill="#fff3f2"/><path d="m444.101562 62.867188-202.515624 202.503906.027343.027344 202.511719-202.511719zm0 0" fill="#fff3f2"/><path d="m444.125 62.886719-202.511719 202.511719.015625.027343 202.523438-202.523437zm0 0" fill="#fff3f2"/><path d="m444.152344 62.902344-202.523438 202.523437.019532.03125 202.527343-202.527343zm0 0" fill="#fff3f2"/><path d="m444.175781 62.929688-202.527343 202.527343.023437.027344 202.53125-202.539063zm0 0" fill="#fff3f2"/><path d="m444.203125 62.945312-202.53125 202.539063.019531.023437 202.535156-202.546874zm0 0" fill="#fff3f2"/><path d="m444.226562 62.960938-202.535156 202.546874.015625.027344 202.546875-202.546875zm0 0" fill="#fff3f2"/><path d="m444.253906 62.988281-202.546875 202.546875.023438.027344 202.550781-202.558594zm0 0" fill="#fff3f2"/><path d="m451.414062 68.378906c-2.277343-1.910156-4.738281-3.609375-7.132812-5.375l-202.550781 202.558594c1.878906 2.558594 3.714843 5.117188 5.734375 7.53125 2.664062 3.167969 5.515625 6.164062 8.433594 9.089844l205.0625-205.066406c-3.054688-3.042969-6.238282-5.953126-9.546876-8.738282zm0 0" fill="#fff3f2"/><path d="m460.960938 77.117188-205.0625 205.066406v.007812l205.070312-205.074218zm0 0" fill="#fff3f2"/><path d="m460.96875 77.117188-205.070312 205.074218h.007812l205.0625-205.0625zm0 0" fill="#faf1f2"/><path d="m460.96875 77.128906-205.0625 205.0625v.007813l205.074219-205.070313zm0 0" fill="#f6eff2"/><path d="m460.980469 77.128906-205.074219 205.070313h.007812l205.066407-205.0625zm0 0" fill="#f2edf2"/><path d="m460.980469 77.136719-205.066407 205.0625v.011719l205.074219-205.066407zm0 0" fill="#eeebf2"/><path d="m460.988281 77.144531-205.074219 205.066407.007813.007812zm0 0" fill="#ebeaf2"/><path d="m460.988281 77.144531-205.066406 205.074219 205.074219-205.066406zm0 0" fill="#e8e8f2"/><path d="m460.996094 77.152344-205.074219 205.066406.011719.007812zm0 0" fill="#e5e7f2"/><path d="m460.996094 77.152344-205.0625 205.074218 205.070312-205.066406zm0 0" fill="#e3e6f2"/><path d="m461.003906 77.160156-205.070312 205.066406.007812.007813zm0 0" fill="#e1e5f2"/><path d="m461.003906 77.160156-205.0625 205.074219 205.070313-205.0625zm0 0" fill="#dfe4f2"/><path d="m461.011719 77.171875-205.070313 205.0625.007813.007813 205.0625-205.0625zm0 0" fill="#dde4f2"/><path d="m461.011719 77.179688-205.0625 205.0625v.007812l205.074219-205.070312zm0 0" fill="#dce3f2"/><path d="m461.023438 77.179688-205.074219 205.070312h.007812l205.066407-205.0625zm0 0" fill="#dae2f2"/><path d="m461.023438 77.1875-205.066407 205.0625v.011719l205.074219-205.074219zm0 0" fill="#d9e2f2"/><path d="m461.03125 77.1875-205.074219 205.074219h.007813l205.066406-205.066407zm0 0" fill="#d8e1f2"/><path d="m461.03125 77.195312-205.066406 205.066407.007812.007812 205.066406-205.074219zm0 0" fill="#d7e1f2"/><path d="m461.039062 77.195312-205.066406 205.074219 205.066406-205.066406zm0 0" fill="#d7e1f2"/><path d="m461.039062 77.203125-205.066406 205.066406.011719.007813 205.0625-205.066406zm0 0" fill="#d6e0f2"/><path d="m461.046875 77.210938-205.0625 205.066406 205.070313-205.066406zm0 0" fill="#d5e0f2"/><path d="m461.054688 77.210938-205.070313 205.066406.007813.007812 205.0625-205.0625zm0 0" fill="#d5e0f2"/><path d="m461.054688 77.222656-205.0625 205.0625v.007813l205.074218-205.070313zm0 0" fill="#d5e0f2"/><path d="m461.066406 77.222656-205.074218 205.070313h.007812l205.066406-205.0625zm0 0" fill="#d4e0f2"/><path d="m461.066406 77.230469-205.066406 205.0625v.011719l205.074219-205.074219zm0 0" fill="#d4dff2"/><path d="m461.074219 77.230469-205.074219 205.074219h.007812l205.066407-205.066407zm0 0" fill="#d4dff2"/><path d="m461.074219 77.238281-205.066407 205.066407v.007812l205.074219-205.074219zm0 0" fill="#d4dff2"/><path d="m461.082031 77.238281-205.074219 205.074219.007813.007812 205.066406-205.074218zm0 0" fill="#d3dff2"/><path d="m461.082031 77.246094-205.066406 205.074218 205.074219-205.066406zm0 0" fill="#d3dff2"/><path d="m461.089844 77.253906-205.074219 205.066406.011719.007813zm0 0" fill="#d3dff2"/><path d="m461.089844 77.253906-205.0625 205.074219 205.070312-205.0625zm0 0" fill="#d3dff2"/><path d="m461.097656 77.265625-205.070312 205.0625.007812.007813zm0 0" fill="#d3dff2"/><path d="m461.097656 77.265625-205.0625 205.070313 205.070313-205.0625zm0 0" fill="#d3dff2"/><path d="m461.105469 77.273438-205.070313 205.0625.007813.007812 205.0625-205.0625zm0 0" fill="#d3dff2"/><path d="m461.105469 77.28125-205.0625 205.0625 205.074219-205.0625zm0 0" fill="#d3dff2"/><path d="m461.117188 77.28125-205.074219 205.0625.007812.011719 205.066407-205.066407zm0 0" fill="#d3dff2"/><path d="m461.117188 77.289062-205.066407 205.066407.007813.007812 205.066406-205.074219zm0 0" fill="#d3dff2"/><path d="m461.125 77.289062-205.066406 205.074219 205.066406-205.066406zm0 0" fill="#d3dff2"/><path d="m461.125 77.296875-205.066406 205.066406.007812.007813 205.066406-205.074219zm0 0" fill="#d3dff2"/><path d="m461.132812 77.296875-205.066406 205.074219 205.066406-205.0625zm0 0" fill="#d3dff2"/><path d="m461.132812 77.308594-205.066406 205.0625.011719.007812 205.0625-205.0625zm0 0" fill="#d3dff2"/><path d="m461.140625 77.316406-205.0625 205.0625 205.070313-205.0625zm0 0" fill="#d3dff2"/><path d="m461.148438 77.316406-205.070313 205.0625.007813.007813 205.0625-205.0625zm0 0" fill="#d3dff2"/><path d="m461.148438 77.324219-205.0625 205.0625v.011719l205.074218-205.074219zm0 0" fill="#d3dff2"/><path d="m461.160156 77.324219-205.074218 205.074219h.007812l205.066406-205.066407zm0 0" fill="#d3dff2"/><path d="m483.839844 106.867188c-6.234375-10.796876-13.859375-20.726563-22.679688-29.535157l-205.066406 205.066407c17.128906 17.140624 38.304688 29.691406 61.566406 36.488281l179.953125-179.953125c-3.261719-11.210938-7.886719-21.980469-13.773437-32.066406zm0 0" fill="#d3dff2"/><path d="m497.613281 138.933594-179.953125 179.953125h.011719l179.941406-179.945313zm0 0" fill="#d3dff2"/><path d="m497.613281 138.941406-179.941406 179.945313v.007812l179.941406-179.941406zm0 0" fill="#d4dff2"/><path d="m497.613281 138.953125-179.941406 179.941406h.007813l179.941406-179.941406zm0 0" fill="#d5e0f2"/><path d="m497.621094 138.953125-179.941406 179.941406h.007812l179.933594-179.933593zm0 0" fill="#d6e0f2"/><path d="m497.621094 138.960938-179.933594 179.933593h.007812l179.925782-179.925781zm0 0" fill="#d7e1f2"/><path d="m497.621094 138.96875-179.925782 179.925781h.007813l179.917969-179.917969zm0 0" fill="#d8e1f2"/><path d="m497.621094 138.976562-179.917969 179.917969.011719.007813 179.914062-179.917969zm0 0" fill="#d9e2f2"/><path d="m497.628906 138.984375-179.914062 179.917969h.007812l179.90625-179.90625zm0 0" fill="#dae2f2"/><path d="m497.628906 138.996094-179.90625 179.90625h.007813zm0 0" fill="#dbe3f2"/><path d="m497.628906 138.996094-179.898437 179.90625 179.90625-179.898438zm0 0" fill="#dce3f2"/><path d="m497.636719 139.003906-179.90625 179.898438h.007812l179.898438-179.890625zm0 0" fill="#dde4f2"/><path d="m497.636719 139.011719-179.898438 179.890625.007813.007812 179.890625-179.890625zm0 0" fill="#dee4f2"/><path d="m497.636719 139.019531-179.890625 179.890625h.007812l179.882813-179.882812zm0 0" fill="#dfe5f2"/><path d="m497.636719 139.027344-179.882813 179.882812h.011719l179.882813-179.875zm0 0" fill="#e0e5f2"/><path d="m497.648438 139.035156-179.882813 179.875h.007813zm0 0" fill="#e1e6f2"/><path d="m497.648438 139.035156-179.875 179.875.007812.007813 179.867188-179.871094zm0 0" fill="#e2e6f2"/><path d="m497.648438 139.046875-179.867188 179.871094h.007812l179.859376-179.863281zm0 0" fill="#e3e6f2"/><path d="m497.648438 139.054688-179.859376 179.863281h.007813l179.859375-179.855469zm0 0" fill="#e4e7f2"/><path d="m497.65625 139.0625-179.859375 179.855469 179.859375-179.847657zm0 0" fill="#e5e7f2"/><path d="m497.65625 139.070312-179.859375 179.847657h.011719l179.847656-179.839844zm0 0" fill="#e6e8f2"/><path d="m497.65625 139.078125-179.847656 179.839844.007812.011719zm0 0" fill="#e7e8f2"/><path d="m497.65625 139.078125-179.839844 179.851563h.007813l179.839843-179.839844zm0 0" fill="#e8e9f2"/><path d="m497.664062 139.089844-179.839843 179.839844h.007812l179.832031-179.832032zm0 0" fill="#eae9f2"/><path d="m497.664062 139.097656-179.832031 179.832032h.007813l179.824218-179.824219zm0 0" fill="#ebeaf2"/><path d="m497.664062 139.105469-179.824218 179.824219h.007812l179.816406-179.816407zm0 0" fill="#eceaf2"/><path d="m497.664062 139.113281-179.816406 179.816407.011719.007812 179.8125-179.816406zm0 0" fill="#edebf2"/><path d="m497.671875 139.121094-179.8125 179.816406zm0 0" fill="#eeebf2"/><path d="m497.671875 139.121094-179.8125 179.816406h.007813l179.804687-179.808594zm0 0" fill="#efecf2"/><path d="m497.671875 139.128906-179.804687 179.808594h.007812l179.796875-179.796875zm0 0" fill="#f0ecf2"/><path d="m497.671875 139.140625-179.796875 179.796875.007812.007812 179.796876-179.796874zm0 0" fill="#f1ecf2"/><path d="m497.679688 139.148438-179.796876 179.796874h.007813l179.789063-179.789062zm0 0" fill="#f2edf2"/><path d="m497.679688 139.15625-179.789063 179.789062h.011719l179.777344-179.78125zm0 0" fill="#f3edf2"/><path d="m497.679688 139.164062-179.777344 179.78125h.007812zm0 0" fill="#f4eef2"/><path d="m497.679688 139.164062-179.769532 179.78125h.007813l179.773437-179.773437zm0 0" fill="#f5eef2"/><path d="m497.691406 139.171875-179.773437 179.773437v.007813l179.773437-179.769531zm0 0" fill="#f6eff2"/><path d="m497.691406 139.183594-179.773437 179.769531h.007812l179.765625-179.761719zm0 0" fill="#f7eff2"/><path d="m497.691406 139.191406-179.765625 179.761719h.007813l179.757812-179.753906zm0 0" fill="#f8f0f2"/><path d="m497.691406 139.199219-179.757812 179.753906h.011718l179.753907-179.746094zm0 0" fill="#f9f0f2"/><path d="m497.699219 139.207031-179.753907 179.746094h.007813zm0 0" fill="#faf1f2"/><path d="m497.699219 139.207031-179.746094 179.746094.007813.007813 179.738281-179.746094zm0 0" fill="#fbf1f2"/><path d="m497.699219 139.214844-179.738281 179.746094h.007812l179.738281-179.738282zm0 0" fill="#fcf2f2"/><path d="m497.707031 139.222656-179.738281 179.738282h.007812l179.730469-179.726563zm0 0" fill="#fdf2f2"/><path d="m497.707031 139.234375-179.730469 179.726563h.007813l179.722656-179.71875zm0 0" fill="#fef3f2"/><path d="m497.707031 139.242188-179.722656 179.71875v.011718l179.722656-179.722656zm0 0" fill="#fff3f2"/><path d="m497.707031 139.25-179.722656 179.722656c9.074219 2.605469 18.378906 4.320313 27.785156 5.117188 3.722657.375 7.46875.496094 11.25.53125l146.445313-146.363282c-.128906-13.207031-2.066406-26.328124-5.757813-39.007812zm0 0" fill="#fff3f2"/><path d="m503.425781 178.257812-146.40625 146.394532h.007813l146.398437-146.386719zm0 0" fill="#fff3f2"/><path d="m503.425781 178.265625-146.398437 146.386719h.007812l146.390625-146.378906zm0 0" fill="#fef3f2"/><path d="m503.425781 178.273438-146.390625 146.378906h.007813l146.382812-146.371094zm0 0" fill="#fdf2f2"/><path d="m503.425781 178.28125-146.382812 146.371094.007812.011718 146.375-146.375zm0 0" fill="#fcf2f2"/><path d="m503.425781 178.289062-146.375 146.375h.007813l146.367187-146.367187zm0 0" fill="#fbf1f2"/><path d="m503.425781 178.296875-146.367187 146.367187h.019531l146.347656-146.355468zm0 0" fill="#faf1f2"/><path d="m503.425781 178.308594-146.347656 146.355468h.007813l146.339843-146.347656zm0 0" fill="#f9f0f2"/><path d="m503.425781 178.316406-146.339843 146.347656h.007812l146.332031-146.339843zm0 0" fill="#f8f0f2"/><path d="m503.425781 178.324219-146.332031 146.339843h.007812l146.324219-146.324218zm0 0" fill="#f7eff2"/><path d="m503.425781 178.339844-146.324219 146.324218h.011719l146.3125-146.3125zm0 0" fill="#f6eff2"/><path d="m503.425781 178.351562-146.3125 146.3125h.007813l146.304687-146.304687zm0 0" fill="#f5eef2"/><path d="m503.425781 178.359375-146.304687 146.304687h.007812l146.296875-146.296874zm0 0" fill="#f4eef2"/><path d="m503.425781 178.367188-146.296875 146.296874h.007813l146.289062-146.289062zm0 0" fill="#f3edf2"/><path d="m503.425781 178.375-146.289062 146.289062h.007812l146.28125-146.28125zm0 0" fill="#f2edf2"/><path d="m503.425781 178.382812-146.28125 146.28125h.007813l146.273437-146.273437zm0 0" fill="#f1ecf2"/><path d="m503.425781 178.390625-146.273437 146.273437h.011718l146.261719-146.261718zm0 0" fill="#f0ecf2"/><path d="m503.425781 178.402344-146.261719 146.261718h.007813l146.253906-146.253906zm0 0" fill="#efecf2"/><path d="m503.425781 178.410156-146.253906 146.253906h.007813l146.246093-146.246093zm0 0" fill="#eeebf2"/><path d="m503.425781 178.417969-146.246093 146.246093h.007812l146.238281-146.238281zm0 0" fill="#edebf2"/><path d="m503.425781 178.425781-146.238281 146.238281h.007812l146.230469-146.230468zm0 0" fill="#eceaf2"/><path d="m503.425781 178.433594-146.230469 146.230468h.011719l146.21875-146.21875zm0 0" fill="#ebeaf2"/><path d="m503.425781 178.445312-146.21875 146.21875h.007813l146.210937-146.210937zm0 0" fill="#eae9f2"/><path d="m503.425781 178.453125-146.210937 146.210937h.007812l146.203125-146.203124zm0 0" fill="#e8e9f2"/><path d="m503.425781 178.460938-146.203125 146.203124.007813.007813 146.195312-146.203125zm0 0" fill="#e7e8f2"/><path d="m503.425781 178.46875-146.195312 146.203125h.007812l146.1875-146.195313zm0 0" fill="#e6e8f2"/><path d="m503.425781 178.476562-146.1875 146.195313h.007813l146.179687-146.175781zm0 0" fill="#e5e7f2"/><path d="m503.425781 178.496094-146.179687 146.175781h.011718l146.167969-146.167969zm0 0" fill="#e4e7f2"/><path d="m503.425781 178.503906-146.167969 146.167969h.007813l146.167969-146.160156zm0 0" fill="#e3e6f2"/><path d="m503.433594 178.511719-146.167969 146.160156h.015625l146.152344-146.152344zm0 0" fill="#e2e6f2"/><path d="m503.433594 178.519531-146.152344 146.152344h.007812l146.144532-146.144531zm0 0" fill="#e1e6f2"/><path d="m503.433594 178.527344-146.144532 146.144531h.011719l146.132813-146.132813zm0 0" fill="#e0e5f2"/><path d="m503.433594 178.539062-146.132813 146.132813h.007813l146.125-146.125zm0 0" fill="#dfe5f2"/><path d="m503.433594 178.546875-146.125 146.125h.007812l146.117188-146.117187zm0 0" fill="#dee4f2"/><path d="m503.433594 178.554688-146.117188 146.117187h.007813l146.109375-146.109375zm0 0" fill="#dde4f2"/><path d="m503.433594 178.5625-146.109375 146.109375h.007812l146.101563-146.101563zm0 0" fill="#dce3f2"/><path d="m503.433594 178.570312-146.101563 146.101563h.011719l146.089844-146.089844zm0 0" fill="#dbe3f2"/><path d="m503.433594 178.582031-146.089844 146.089844h.007812l146.082032-146.082031zm0 0" fill="#dae2f2"/><path d="m503.433594 178.589844-146.082032 146.082031h.007813l146.074219-146.074219zm0 0" fill="#d9e2f2"/><path d="m503.433594 178.597656-146.074219 146.074219h.007813l146.066406-146.066406zm0 0" fill="#d8e1f2"/><path d="m503.433594 178.605469-146.066406 146.066406h.007812l146.058594-146.058594zm0 0" fill="#d7e1f2"/><path d="m503.433594 178.613281-146.058594 146.058594h.007812l146.050782-146.050781zm0 0" fill="#d6e0f2"/><path d="m503.433594 178.621094-146.050782 146.050781h.011719l146.039063-146.039063zm0 0" fill="#d5e0f2"/><path d="m503.433594 178.632812-146.039063 146.039063h.007813l146.03125-146.023437zm0 0" fill="#d4dff2"/><path d="m503.433594 178.648438-146.03125 146.023437.007812.007813 146.023438-146.023438zm0 0" fill="#d3dff2"/><path d="m357.410156 324.679688c.332032 0 .65625.042968.988282.042968 80.121093 0 145.066406-64.949218 145.066406-145.066406 0-.332031 0-.667969 0-1zm0 0" fill="#d3dff2"/><path d="m324.265625 205.253906v179.203125c0 23.5625-19.101563 42.664063-42.664063 42.664063h-51.203124l-145.066407 76.800781 5.460938-16.46875 20.140625-60.332031h-59.734375c-11.316407 0-22.167969-4.496094-30.167969-12.496094-8.003906-8-12.496094-18.855469-12.496094-30.167969v-179.203125c0-23.5625 19.101563-42.664062 42.664063-42.664062h230.402343c23.5625 0 42.664063 19.101562 42.664063 42.664062zm0 0" fill="#cad9fc"/><path d="m298.667969 205.253906v179.203125c0 23.5625-19.105469 42.664063-42.667969 42.664063h-25.601562l-145.066407 76.800781 25.601563-76.800781h-59.734375c-11.316407 0-22.167969-4.496094-30.167969-12.496094-8.003906-8-12.496094-18.855469-12.496094-30.167969v-179.203125c0-23.5625 19.101563-42.664062 42.664063-42.664062h204.800781c23.5625 0 42.667969 19.101562 42.667969 42.664062zm0 0" fill="#e8edfc"/><path d="m116.394531 487.453125 20.140625-60.332031h-25.601562l-20.140625 60.332031-5.460938 16.46875 31.054688-16.433594zm0 0" fill="#fff"/><path d="m34.132812 384.457031v-179.203125c0-23.5625 19.101563-42.664062 42.667969-42.664062h-25.601562c-23.5625 0-42.664063 19.101562-42.664063 42.664062v179.203125c0 11.3125 4.492188 22.167969 12.496094 30.167969 8 8 18.851562 12.496094 30.167969 12.496094h25.601562c-23.566406 0-42.667969-19.101563-42.667969-42.664063zm0 0" fill="#fff"/><path d="m17.066406 205.253906v179.203125h-17.066406v-179.203125zm0 0" fill="#fff"/><g fill="#428dff"><path d="m8.535156 247.921875c4.710938 0 8.53125-3.820313 8.53125-8.53125v-34.136719h-17.066406v34.136719c0 4.710937 3.820312 8.53125 8.535156 8.53125zm0 0"/><path d="m0 384.457031h17.066406v-76.800781c0-4.714844-3.820312-8.535156-8.53125-8.535156-4.714844 0-8.535156 3.820312-8.535156 8.535156zm0 0"/><path d="m17.066406 273.523438c-.03125-2.261719-.917968-4.421876-2.472656-6.058594l-1.28125-1.023438c-.476562-.324218-.992188-.582031-1.535156-.769531-.484375-.246094-1.003906-.417969-1.539063-.511719-.5625-.09375-1.132812-.152344-1.703125-.171875-2.261718.035157-4.425781.917969-6.058594 2.476563-.773437.816406-1.382812 1.769531-1.792968 2.816406-1.289063 3.179688-.5859378 6.824219 1.792968 9.300781.8125.769531 1.769532 1.378907 2.8125 1.789063 1.027344.4375 2.128907.671875 3.246094.683594 2.257813-.03125 4.421875-.914063 6.058594-2.472657 1.554688-1.636719 2.441406-3.800781 2.472656-6.058593zm0 0"/><path d="m85.332031 512.457031c-2.742187 0-5.316406-1.320312-6.921875-3.542969-1.605468-2.226562-2.042968-5.085937-1.175781-7.6875l21.863281-65.570312h-47.898437c-28.265625-.027344-51.1718752-22.933594-51.199219-51.199219 0-4.714843 3.820312-8.535156 8.535156-8.535156 4.710938 0 8.53125 3.820313 8.53125 8.535156 0 18.851563 15.28125 34.132813 34.132813 34.132813h59.734375c2.742187 0 5.320312 1.316406 6.921875 3.542968 1.605469 2.222657 2.042969 5.082032 1.175781 7.6875l-18.867188 56.589844 126.242188-66.832031c1.230469-.648437 2.601562-.988281 3.992188-.988281h51.203124c18.851563 0 34.132813-15.28125 34.132813-34.132813v-179.203125c0-18.851562-15.28125-34.132812-34.132813-34.132812h-230.402343c-18.851563 0-34.132813 15.28125-34.132813 34.132812 0 4.714844-3.820312 8.535156-8.53125 8.535156-4.714844 0-8.535156-3.820312-8.535156-8.535156.0273438-28.265625 22.933594-51.171875 51.199219-51.199218h230.402343c28.265626.027343 51.171876 22.933593 51.199219 51.199218v179.203125c-.027343 28.265625-22.933593 51.171875-51.199219 51.199219h-49.078124l-143.195313 75.808594c-1.230469.652344-2.601563.992187-3.996094.992187zm0 0"/><path d="m213.332031 341.789062c-4.710937 0-8.53125-3.820312-8.53125-8.535156v-68.265625c0-4.710937 3.820313-8.53125 8.53125-8.53125 4.714844 0 8.535157 3.820313 8.535157 8.53125v68.265625c0 4.714844-3.820313 8.535156-8.535157 8.535156zm0 0"/><path d="m110.933594 341.789062c-4.714844 0-8.535156-3.820312-8.535156-8.535156v-68.265625c0-4.710937 3.820312-8.53125 8.535156-8.53125 4.710937 0 8.53125 3.820313 8.53125 8.53125v68.265625c0 4.714844-3.820313 8.535156-8.53125 8.535156zm0 0"/><path d="m179.199219 384.457031c-4.710938 0-8.53125-3.820312-8.53125-8.535156v-145.066406c0-4.710938 3.820312-8.535157 8.53125-8.535157 4.714843 0 8.535156 3.824219 8.535156 8.535157v145.066406c0 4.714844-3.820313 8.535156-8.535156 8.535156zm0 0"/><path d="m145.066406 384.457031c-4.710937 0-8.53125-3.820312-8.53125-8.535156v-145.066406c0-4.710938 3.820313-8.535157 8.53125-8.535157 4.714844 0 8.535156 3.824219 8.535156 8.535157v145.066406c0 4.714844-3.820312 8.535156-8.535156 8.535156zm0 0"/><path d="m76.800781 316.1875c-4.714843 0-8.535156-3.820312-8.535156-8.53125v-17.066406c0-4.714844 3.820313-8.535156 8.535156-8.535156 4.710938 0 8.53125 3.820312 8.53125 8.535156v17.066406c0 4.710938-3.820312 8.53125-8.53125 8.53125zm0 0"/><path d="m42.667969 333.253906c-4.714844 0-8.535157-3.820312-8.535157-8.53125v-51.199218c0-4.714844 3.820313-8.535157 8.535157-8.535157 4.710937 0 8.53125 3.820313 8.53125 8.535157v51.199218c0 4.710938-3.820313 8.53125-8.53125 8.53125zm0 0"/><path d="m281.601562 333.253906c-4.714843 0-8.535156-3.820312-8.535156-8.53125v-51.199218c0-4.714844 3.820313-8.535157 8.535156-8.535157 4.710938 0 8.53125 3.820313 8.53125 8.535157v51.199218c0 4.710938-3.820312 8.53125-8.53125 8.53125zm0 0"/><path d="m247.464844 316.1875c-4.710938 0-8.53125-3.820312-8.53125-8.53125v-17.066406c0-4.714844 3.820312-8.535156 8.53125-8.535156 4.714844 0 8.535156 3.820312 8.535156 8.535156v17.066406c0 4.710938-3.820312 8.53125-8.535156 8.53125zm0 0"/><path d="m358.398438 333.253906c-12.199219.035156-24.359376-1.429687-36.207032-4.359375-3.042968-.660156-5.484375-2.925781-6.371094-5.910156-.882812-2.984375-.074218-6.214844 2.113282-8.429687 2.191406-2.214844 5.414062-3.058594 8.40625-2.207032 10.488281 2.585938 21.257812 3.875 32.058594 3.839844 63.402343.035156 118.484374-43.582031 132.984374-105.304688 14.503907-61.722656-15.394531-125.304687-72.175781-153.507812-56.785156-28.203125-125.511719-13.605469-165.929687 35.242188-4.835938 5.785156-9.15625 11.980468-12.917969 18.515624-4.023437 6.875-7.449219 14.078126-10.242187 21.539063-3.601563 9.980469-6.042969 20.339844-7.269532 30.882813-.339844 3.027343-2.265625 5.648437-5.0625 6.871093-2.792968 1.222657-6.027344.859375-8.480468-.949219-2.457032-1.808593-3.757813-4.789062-3.421876-7.816406 1.382813-11.902344 4.136719-23.601562 8.210938-34.867187 3.136719-8.394531 6.992188-16.503907 11.519531-24.234375 4.222657-7.355469 9.078125-14.332032 14.507813-20.847656 19.730468-23.953126 46.300781-41.3125 76.160156-49.765626 67.609375-19.289062 139.679688 9.824219 174.929688 70.652344 27.59375 47.503906 27.703124 106.128906.289062 153.734375-27.410156 47.605469-78.167969 76.9375-133.101562 76.921875zm0 0"/><path d="m232.960938 115.398438c-2.027344 0-3.988282-.722657-5.53125-2.039063-14.359376-12.1875-22.632813-30.070313-22.628907-48.902344 0-1.605469.085938-3.132812.179688-4.746093 2.160156-28.820313 23.367187-52.613282 51.746093-58.066407 28.382813-5.449219 56.894532 8.792969 69.578126 34.761719 2.0625 4.242188.296874 9.351562-3.945313 11.414062s-9.351563.292969-11.414063-3.945312c-9.304687-18.992188-30.160156-29.414062-50.933593-25.457031-20.773438 3.957031-36.332031 21.320312-38 42.402343-.066407 1.1875-.144531 2.378907-.144531 3.636719 0 13.828125 6.078124 26.957031 16.621093 35.90625 2.726563 2.316407 3.71875 6.089844 2.484375 9.449219-1.234375 3.355469-4.433594 5.589844-8.011718 5.585938zm0 0"/><path d="m483.839844 115.398438c-3.578125.003906-6.777344-2.230469-8.011719-5.585938-1.234375-3.359375-.246094-7.132812 2.480469-9.449219 15.039062-12.734375 20.535156-33.496093 13.765625-52-6.773438-18.503906-24.371094-30.820312-44.074219-30.839843-17.960938-.09375-34.371094 10.164062-42.15625 26.351562-2.058594 4.238281-7.171875 6.007812-11.410156 3.945312-4.242188-2.0625-6.011719-7.171874-3.949219-11.414062 11.453125-23.378906 35.925781-37.488281 61.894531-35.691406 25.96875 1.800781 48.265625 19.148437 56.386719 43.878906 8.121094 24.734375.453125 51.921875-19.394531 68.765625-1.542969 1.316406-3.503906 2.039063-5.53125 2.039063zm0 0"/><path d="m435.199219 350.320312c-3.675781 0-6.9375-2.355468-8.097657-5.84375l-10.921874-32.84375c-.960938-2.898437-.304688-6.085937 1.722656-8.367187s5.117187-3.308594 8.105468-2.691406c2.988282.613281 5.421876 2.777343 6.382813 5.671875l10.925781 32.855468c1.484375 4.472657-.9375 9.300782-5.410156 10.785157-.875.289062-1.789062.433593-2.707031.433593zm0 0"/><path d="m358.398438 77.253906c-3.464844.023438-6.601563-2.058594-7.929688-5.257812-1.328125-3.203125-.589844-6.890625 1.871094-9.332032 2.457031-2.421874 6.125-3.128906 9.304687-1.792968 1.03125.433594 1.984375 1.039062 2.8125 1.792968 3.300781 3.363282 3.300781 8.75 0 12.117188-.828125.753906-1.78125 1.359375-2.8125 1.792969-1.027343.4375-2.128906.667969-3.246093.679687zm0 0"/><path d="m358.398438 299.121094c-3.464844.019531-6.601563-2.058594-7.929688-5.261719-1.328125-3.199219-.589844-6.886719 1.871094-9.328125 2.457031-2.421875 6.125-3.128906 9.304687-1.792969 1.03125.433594 1.984375 1.039063 2.8125 1.792969 3.300781 3.363281 3.300781 8.75 0 12.117188-.828125.753906-1.78125 1.359374-2.8125 1.792968-1.027343.433594-2.128906.667969-3.246093.679688zm0 0"/><path d="m323.414062 83.433594c-3.253906 1.226562-6.929687.351562-9.285156-2.207032-2.355468-2.558593-2.921875-6.289062-1.433594-9.433593 1.476563-3.113281 4.679688-5.039063 8.125-4.871094 1.117188.050781 2.222657.296875 3.257813.726563 4.25 2.035156 6.089844 7.089843 4.148437 11.382812-.527343.992188-1.21875 1.886719-2.039062 2.652344-.804688.753906-1.746094 1.347656-2.773438 1.75zm0 0"/><path d="m399.257812 291.910156c-3.25 1.207032-6.90625.324219-9.25-2.230468-2.34375-2.554688-2.910156-6.273438-1.433593-9.40625 1.476562-3.117188 4.679687-5.039063 8.125-4.875 1.117187.0625 2.21875.308593 3.257812.726562 4.253907 2.027344 6.101563 7.09375 4.148438 11.382812-.523438.992188-1.210938 1.890626-2.03125 2.65625-.816407.757813-1.773438 1.351563-2.816407 1.746094zm0 0"/><path d="m292.582031 101.207031c-2.640625 2.246094-6.378906 2.667969-9.453125 1.070313-3.078125-1.597656-4.878906-4.894532-4.566406-8.347656.320312-3.433594 2.679688-6.335938 5.972656-7.355469 1.070313-.335938 2.191406-.480469 3.3125-.433594 4.6875.457031 8.152344 4.582031 7.789063 9.28125-.152344 1.113281-.492188 2.1875-1.007813 3.183594-.503906.992187-1.199218 1.878906-2.046875 2.601562zm0 0"/><path d="m435.199219 271.167969c-2.640625 2.242187-6.382813 2.664062-9.457031 1.066406-3.078126-1.601563-4.878907-4.902344-4.5625-8.355469.324218-3.429687 2.679687-6.328125 5.972656-7.347656 1.070312-.332031 2.191406-.480469 3.3125-.433594 4.691406.449219 8.15625 4.578125 7.789062 9.273438-.148437 1.113281-.492187 2.1875-1.007812 3.183594-.503906.996093-1.199219 1.886718-2.046875 2.613281zm0 0"/><path d="m269.722656 128.457031c-1.117187 1.976563-2.980468 3.421875-5.171875 4.007813-2.195312.589844-4.53125.269531-6.484375-.886719-1.945312-1.152344-3.378906-3-4.011718-5.171875-.871094-3.335938.351562-6.867188 3.097656-8.949219.890625-.679687 1.894531-1.203125 2.960937-1.546875 4.5625-1.175781 9.226563 1.519532 10.488281 6.058594.238282 1.097656.289063 2.226562.144532 3.339844-.132813 1.105468-.480469 2.175781-1.023438 3.148437zm0 0"/><path d="m461.859375 239.390625c-1.71875 3.011719-5.085937 4.683594-8.527344 4.234375-3.4375-.453125-6.261719-2.9375-7.140625-6.292969-.871094-3.332031.347656-6.863281 3.089844-8.953125.898438-.679687 1.910156-1.199218 2.984375-1.535156 4.5625-1.175781 9.226563 1.519531 10.488281 6.058594.238282 1.097656.289063 2.226562.144532 3.335937-.136719 1.109375-.492188 2.179688-1.039063 3.152344zm0 0"/><path d="m476.039062 200.398438c-.585937 3.414062-3.179687 6.132812-6.5625 6.882812-3.382812.746094-6.882812-.621094-8.855468-3.46875-1.960938-2.835938-2.019532-6.574219-.152344-9.472656.609375-.9375 1.371094-1.769532 2.261719-2.457032 3.886719-2.679687 9.203125-1.746093 11.945312 2.101563.59375.949219 1.027344 1.996094 1.28125 3.085937.246094 1.09375.273438 2.226563.082031 3.328126zm0 0"/><path d="m476.039062 158.910156c.636719 3.414063-.859374 6.875-3.78125 8.75-2.925781 1.871094-6.691406 1.789063-9.527343-.214844-2.824219-1.988281-4.171875-5.480468-3.414063-8.851562.25-1.089844.683594-2.132812 1.277344-3.078125 2.746094-3.839844 8.054688-4.777344 11.949219-2.109375.882812.691406 1.640625 1.527344 2.25 2.46875.609375.921875 1.03125 1.953125 1.246093 3.035156zm0 0"/><path d="m461.859375 119.921875c1.746094 2.988281 1.511719 6.738281-.589844 9.488281-2.101562 2.75-5.660156 3.957032-9.003906 3.054688-3.320313-.910156-5.769531-3.730469-6.203125-7.148438-.144531-1.113281-.09375-2.242187.144531-3.335937 1.257813-4.546875 5.925781-7.242188 10.488281-6.058594 1.070313.339844 2.070313.859375 2.960938 1.542969.886719.667968 1.632812 1.503906 2.203125 2.457031zm0 0"/><path d="m435.199219 88.144531c2.667969 2.210938 3.730469 5.820313 2.691406 9.125-1.039063 3.304688-3.972656 5.65625-7.425781 5.945313-3.4375.277344-6.699219-1.535156-8.277344-4.601563-.515625-.996093-.855469-2.070312-1.007812-3.183593-.363282-4.695313 3.101562-8.824219 7.789062-9.28125 1.121094-.042969 2.242188.105468 3.3125.433593 1.066406.324219 2.058594.855469 2.917969 1.5625zm0 0"/><path d="m399.257812 67.398438c3.292969 1.152343 5.554688 4.195312 5.707032 7.679687s-1.828125 6.710937-5.007813 8.152344c-3.140625 1.449219-6.851562.859375-9.386719-1.496094-.820312-.765625-1.507812-1.660156-2.03125-2.652344-1.953124-4.289062-.105468-9.355469 4.148438-11.382812 1.035156-.4375 2.136719-.695313 3.257812-.769531 1.125-.058594 2.25.101562 3.3125.46875zm0 0"/><path d="m426.667969 188.1875h-68.269531c-4.710938 0-8.53125-3.820312-8.53125-8.53125v-76.800781c0-4.710938 3.820312-8.535157 8.53125-8.535157 4.714843 0 8.535156 3.824219 8.535156 8.535157v68.265625h59.734375c4.710937 0 8.53125 3.820312 8.53125 8.535156 0 4.710938-3.820313 8.53125-8.53125 8.53125zm0 0"/></g></svg>