<svg height="512" viewBox="0 0 60 55" width="512" xmlns="http://www.w3.org/2000/svg"><g id="Page-1" fill="none" fill-rule="evenodd"><g id="008---Star" fill-rule="nonzero" transform="translate(-1)"><path id="Shape" d="m49.69 34.28c-.6729346.6941281-.9771332 1.6660797-.82 2.62l.06.37 1.12 6.95 1.02 6.25c.1500793.8972467-.1118133 1.8143789-.7130565 2.4970809-.6012433.682702-1.477924 1.0584015-2.3869435 1.0229191h-.04c-.2238971-.0073123-.4458339-.0443017-.66-.11l-.94-.16-4.33-.72-10.09-5.23-1.45.8-2.01 1.12-7.08 3.92c-.5545414.3163791-1.196106.4460943-1.83.37l-1.44-.24-4.49-.76h-.02l-.42-.07 15.26-51.39.14-.47 6 .99v.01c.192128.03680593.3798345.09378826.56.17.7100561.28555693 1.2829848.83341995 1.6 1.53l1.57 3.36 2.57 5.5 1.48 3.15c.3199519.7016471.9012295 1.2506315 1.62 1.53l4.6.71 2.93.46 5.92.98c.335528.0470017.66035.1518922.96.31.8474127.4500851 1.4338552 1.2724541 1.583303 2.2202676.1494478.9478134-.1554969 1.9107331-.823303 2.5997324z" fill="#7facfa"/><path id="Shape" d="m46.69 34.28c-.6729346.6941281-.9771332 1.6660797-.82 2.62l.06.37 1.12 6.95 1.02 6.25c.2306805 1.3536427-.4855682 2.6914636-1.74 3.25l-4.33-.72-10.09-5.23-1.45.8-1.55-.8-3.46 1.92-7.08 3.92c-.0859062.051367-.1762727.0948768-.27.13l-4.49-.76h-.02l-.42-.07 15.26-51.39 3.14.52v.01c.192128.03680593.3798345.09378826.56.17.7100561.28555693 1.2829848.83341995 1.6 1.53l1.57 3.36 2.57 5.5 1.48 3.15c.3199519.7016471.9012295 1.2506315 1.62 1.53l7.53 1.17 5.92.98c.335528.0470017.66035.1518922.96.31.8474127.4500851 1.4338552 1.2724541 1.583303 2.2202676.1494478.9478134-.1554969 1.9107331-.823303 2.5997324z" fill="#a4c2f7"/><path id="Shape" d="m44.28 53.88.65.11c-.2206206-.0073374-.43925-.0443363-.65-.11z" fill="#e8edfc"/><path id="Shape" d="m53.14 23.57-4.14 4.25-1 1.03-1 1.03-3 3.08-.31.32c-.3071398.3237734-.5422905.7088753-.69 1.13-.1684313.4777264-.2131545.9903231-.13 1.49l.06.37 1.07 6.64.05.31 1.02 6.25c.148984.891924-.1091163 1.8037073-.7034924 2.4852069s-1.4626105 1.0611489-2.3665076 1.0347931c-.4809899-.0119265-.9515897-.1424578-1.37-.38l-1.63-.9-1-.56-1-.55-.21-.12-2.79-1.55-1-.55-1-.56-.4-.22-2.14-1.18c-.1485246-.0800874-.3021949-.1502412-.46-.21-.6474003-.2266648-1.3525997-.2266648-2 0-.1578051.0597588-.3114754.1299126-.46.21l-2.54 1.41-1 .55-.55.31-.45.25-3 1.66-1 .55-1 .56-1.63.9c-.4201418.2347278-.8892259.3682627-1.37.39-.7277533.0167235-1.4373734-.2280954-2-.69-.2301167-.186793-.4321837-.4056989-.6-.65-.4374809-.6402544-.6062438-1.4266174-.47-2.19l1.04-6.44.03-.18 1-6.15.13-.8c.0777076-.4932521.0330664-.9980409-.13-1.47-.0710284-.2288983-.1718959-.4474444-.3-.65-.1123644-.1797015-.2430636-.3472646-.39-.5l-.31-.32-3-3.07-.23-.24-.77-.79-1-1.03-2.21-2.27-1.93-1.99c-1.00302777-1.022385-1.15319152-2.6074468-.36-3.8.22882858-.3521254.53276555-.6492323.89-.87.35185956-.2436685.75605844-.4012375 1.18-.46l2.43-.38 1-.15 1-.15 3-.46 1-.15.23-.04.77-.12 3-.45.37-.06c.216569-.0340188.4281484-.0944701.63-.18.3720849-.1410631.7121169-.3552833 1-.63.2671612-.2616654.484081-.5700983.64-.91l2.36-5.04 1-2.14.21-.45.79-1.69 1.26-2.69c.3363317-.7426068.9668438-1.31151711 1.74-1.57.6450836-.23656287 1.352583-.24010037 2-.01.04.02.09.03.13.05.7100561.28555693 1.2829848.83341995 1.6 1.53l1.27 2.72.3.64.7 1.5 1 2.14.87 1.86 1.48 3.15c.1605266.3397502.3806774.6479612.65.91.2869145.2759568.6272148.4903459 1 .63.1714651.0787688.3533009.132646.54.16.03.01.06.01.09.02l.37.06 3 .46 1 .15 1 .15 1.53.23 1.47.23 1 .15 1 .15 2.42.38c.335528.0470017.66035.1518922.96.31.8474127.4500851 1.4338552 1.2724541 1.583303 2.2202676.1494478.9478134-.1554969 1.9107331-.823303 2.5997324z" fill="#cad9fc"/><path id="Shape" d="m53.14 23.57-4.14 4.25-1 1.03-1 1.03-.32.33c-.91-.35-1.81-.67-2.68-.95-.68-.21-1.35-.41-2-.59-1.03-.27-2.03-.49-3-.67-.68-.13-1.35-.23-2-.31-1.03-.13-2.03-.21-3-.24-.68-.02-1.35-.02-2 0-1.0037134.0302925-2.005117.1137428-3 .25-.69.1-1.35.22-2 .36-1.0162483.2183408-2.018133.4988685-3 .84-.6796771.225321-1.3472367.4856692-2 .78-1.0318103.4488479-2.0338558.9632312-3 1.54-.7.41-1.37.85-2 1.3-1.0495723.7504119-2.0515028 1.5653154-3 2.44-.3.28-.58.55-.86.83.0300005-.2491.0300005-.5009 0-.75.0016279-.0303455-.0017506-.060752-.01-.09-.01-.03-.01-.06-.02-.09-.0224975-.1465896-.0593411-.2906145-.11-.43-.0710284-.2288983-.1718959-.4474444-.3-.65-.1123644-.1797015-.2430636-.3472646-.39-.5l-.31-.32-3-3.07-.23-.24-.77-.79-1-1.03-2.21-2.27-1.93-1.99c-1.00302777-1.022385-1.15319152-2.6074468-.36-3.8.22882858-.3521254.53276555-.6492323.89-.87.35185956-.2436685.75605844-.4012375 1.18-.46l2.43-.38 1-.15 1-.15 3-.46 1-.15.23-.04.77-.12 3-.45.37-.06c.216569-.0340188.4281484-.0944701.63-.18.3720849-.1410631.7121169-.3552833 1-.63.2671612-.2616654.484081-.5700983.64-.91l2.36-5.04 1-2.14.21-.45.79-1.69 1.26-2.69c.3363317-.7426068.9668438-1.31151711 1.74-1.57.6450836-.23656287 1.352583-.24010037 2-.01.04.02.09.03.13.05.7100561.28555693 1.2829848.83341995 1.6 1.53l1.27 2.72.3.64.7 1.5 1 2.14.87 1.86 1.48 3.15c.1605266.3397502.3806774.6479612.65.91.2869145.2759568.6272148.4903459 1 .63.1714651.0787688.3533009.132646.54.16.03.01.06.01.09.02l.37.06 3 .46 1 .15 1 .15 1.53.23 1.47.23 1 .15 1 .15 2.42.38c.335528.0470017.66035.1518922.96.31.8474127.4500851 1.4338552 1.2724541 1.583303 2.2202676.1494478.9478134-.1554969 1.9107331-.823303 2.5997324z" fill="#e8edfc"/><path id="Shape" d="m4.79 25.56 2.21 2.27 1 1.03.77.79.23.24 3 3.07.31.32c.1469364.1527354.2776356.3202985.39.5.1281041.2025556.2289716.4211017.3.65.1288429.3762039.1765563.7754284.14 1.1714.0018097.0996391-.0015281.1993052-.01.2986l-.13.8-1 6.15-.03.18-1.04 6.44c-.1362438.7633826.0325191 1.5497456.47 2.19.4200561.615223 1.0518445 1.0543317 1.7749 1.2336l-.0049.0164.2042.034c.0486.0092.0967.0176.1458.0243l.07.0117h.02l4.49.76 1.44.24c.5296143.0598677 1.0655903-.0234987 1.552-.2414l-4.482-.7586h-.02l-.07-.0117c-.0491-.0067-.0972-.0151-.1458-.0243l-.2042-.034.0049-.0164c-.7230555-.1792683-1.3548439-.618377-1.7749-1.2336-.4374809-.6402544-.6062438-1.4266174-.47-2.19l1.04-6.44.03-.18 1-6.15.13-.8c.0084719-.0992948.0118097-.1989609.01-.2986.0365563-.3959716-.0111571-.7951961-.14-1.1714-.0710284-.2288983-.1718959-.4474444-.3-.65-.1123644-.1797015-.2430636-.3472646-.39-.5l-.31-.32-3-3.07-.23-.24-.77-.79-1-1.03-2.21-2.27-1.93-1.99c-1.00302777-1.022385-1.15319152-2.6074468-.36-3.8.22882858-.3521254.53276555-.6492323.89-.87.35185956-.2436685.75605844-.4012375 1.18-.46l2.43-.38 1-.15 1-.15 3-.46 1-.15.23-.04.77-.12 3-.45.37-.06c.216569-.0340188.4281484-.0944701.63-.18.3720849-.1410631.7121169-.3552833 1-.63.2671612-.2616654.484081-.5700983.64-.91l2.36-5.04 1-2.14.21-.45.79-1.69 1.26-2.69c.3117398-.67981636.8724424-1.21410346 1.5665-1.4927l-1.2565-.2073-.0018.006c-.1872628-.03618332-.3774765-.05493018-.5682-.056-.3414208-.00034435-.680129.06062314-1 .18-.7731562.25848289-1.4036683.8273932-1.74 1.57l-1.26 2.69-.79 1.69-.21.45-1 2.14-2.36 5.04c-.155919.3399017-.3728388.6483346-.64.91-.2878831.2747167-.6279151.4889369-1 .63-.2018516.0855299-.413431.1459812-.63.18l-.37.06-3 .45-.77.12-.23.04-1 .15-3 .46-1 .15-1 .15-2.43.38c-.42394156.0587625-.82814044.2163315-1.18.46-.35723445.2207677-.66117142.5178746-.89.87-.79319152 1.1925532-.64302777 2.777615.36 3.8z" fill="#fff"/><path id="Shape" d="m48.001 55c-.0546309-.0000617-.1091701-.0044757-.1631-.0132l-.0088-.0014c-.269777-.0142723-.5370917-.0588527-.7969-.1329l-5.1963-.8662c-.3573279-.0532854-.6581311-.2951644-.7868674-.6327285-.1287364-.3375641-.0653865-.7183197.1657162-.996014s.59402-.4091439.9493512-.3438575l5.8779.98c.6035359.013204 1.1815128-.2434595 1.576427-.7000476.3949142-.4565882.5656106-1.0655185.465573-1.6608524l-2.2012-13.5742c-.2112135-1.2638209.1920778-2.5526818 1.086-3.4707l9.4541-9.7153c.4545413-.4575696.6606774-1.1061704.5537-1.7422-.0994785-.6369004-.4921854-1.1901558-1.0606-1.4942-.1993267-.105321-.4154432-.1751942-.6387-.2065l-5.9414-.9863-7.52-1.1651c-.0690695-.0107342-.136812-.028734-.2021-.0537-.9637999-.3701523-1.7437283-1.1039364-2.1719-2.0434l-5.6177-12.0079c-.2105174-.46679378-.5932746-.83418056-1.0683-1.0254-.1259986-.05447093-.2576792-.0947197-.3926-.12-.0313-.0068-.0615-.0146-.0908-.0239l-5.8653-.9678c-.5449946-.09007766-.9137776-.60490541-.8237-1.1499.0900777-.54499458.6049054-.91377763 1.1499-.8237l6 .99c.0643885.01052037.1275446.0275407.1885.0508.2108767.0484137.4168212.11623614.6152.2026.9296667.38444965 1.6797502 1.10595852 2.1 2.02l5.6182 12.0078c.1965431.4374593.5463209.7879129.9834.9853l7.415 1.149 5.9307.9848c.4430842.0649047.8718005.205127 1.2676.4146 1.1224667.5981572 1.8997531 1.6877647 2.1 2.9438.2060891 1.2593581-.1997014 2.5416011-1.0928 3.4531l-9.4512 9.712c-.4524791.4653314-.6569264 1.1179815-.5508 1.7583l2.2012 13.5737c.2030706 1.203033-.1535725 2.4330042-.9687 3.3408-.760651.8473764-1.8428379 1.3354585-2.9815 1.3447-.0359.0041-.0711.0061-.1072.0061z" fill="#428dff"/><path id="Shape" d="m19.8984 55.001c-.1589083-.000024-.3176793-.0093399-.4755-.0279l-5.9258-.998c-.0254-.0024-.05-.0049-.0713-.0088l-.42-.07c-.3565635-.0541169-.6563645-.2960352-.7845972-.6331146-.1282327-.3370795-.0650287-.7170931.1654086-.9945185s.592404-.4092782.9472886-.3450669l.3681.0611c.0264.0024.0518.0053.0743.0092l5.93 1c.4070921.0383354.8160651-.0503622 1.1707-.2539l10.5478-5.8442c.482973-.2680514 1.0917986-.093823 1.35985.38915s.093823 1.0917986-.38915 1.35985l-10.541 5.84c-.5963558.3384932-1.2703756.516362-1.9561.5162z" fill="#428dff"/><path id="Rectangle-path" d="m5.496 42.084h12.936v2h-12.936z" fill="#fff" transform="matrix(.16 -.987 .987 .16 -32.479 48.001)"/><g fill="#428dff"><path id="Shape" d="m12.2585 41.26c.5201837.1044276 1.0271422-.2305375 1.1351-.75l.5935-3.6495-1.9742-.321-.593 3.6471c-.0615804.5270757.3122856 1.0056206.8386 1.0734z"/><path id="Shape" d="m9.9428 49.3105 1.9744.3189.2945-1.8237c.0427845-.5216025-.3226321-.9884426-.8392437-1.0721807-.5166117-.0837381-1.010785.2437703-1.1349563.7521807z"/><path id="Shape" d="m12.8007 44.1582c.0340059-.2463625-.0313249-.4961378-.1816-.6943l-.13-.1338c-.0498841-.0440187-.1051603-.0815191-.1645-.1116-.052123-.0356481-.1090177-.0637588-.169-.0835-.0635499-.0210052-.1283833-.0379066-.1941-.0506-.2577587-.0402455-.5214144.0129538-.7434.15-.1021573.0711287-.1892297.1617696-.2562.2667-.2037307.3183683-.184905.7305295.047 1.029.0823433.098884.1821281.1818233.2944.2447.1120179.0665395.235235.1120852.3636.1344.2577491.039818.5212575-.0133516.7434-.15.204897-.140427.345392-.3567116.3904-.601z"/><path id="Shape" d="m13.9326 54.0005c-1.3439386-.0049026-2.5997279-.6696553-3.3594-1.7783-.58097656-.8541314-.80690814-1.9007684-.63-2.9185.0916793-.5447184.6075816-.9119793 1.1523-.8203s.9119793.6075816.8203 1.1523c-.0932617.508505.0181596 1.0332633.31 1.46.1145997.1666275.2526957.3158049.41.4429.3750871.3106866.8501221.4747993 1.337.4619.3203868-.0166624.6325681-.1072603.9121-.2647l11.17-6.19c.1916536-.1037234.3899909-.1945904.5937-.272.8744903-.3094968 1.8287097-.3094968 2.7032 0 .1982773.0751203.3913947.1632108.5781.2637l11.1836 6.1973c.2770853.1595984.5895539.247682.9092.2563.491611.0172104.972466-.1464546 1.3515-.46.5681404-.4550981.8404687-1.1854295.709-1.9014l-2.2-13.5708c-.1088012-.6673024-.0480025-1.3512527.1768-1.9889.1936024-.5497213.5010725-1.0523803.9023-1.4751l9.461-9.7226c.454545-.4573616.6606951-1.1058204.5537-1.7417-.0994785-.6369004-.4921854-1.1901558-1.0606-1.4942-.1993267-.105321-.4154432-.1751942-.6387-.2065l-12.8077-1.9626c-.0293-.0049-.0595-.0112-.0888-.0186l-.0235-.0053c-.2712739-.0425673-.535242-.1229493-.7842-.2388-.4734822-.1834999-.904964-.4608592-1.2685-.8154-.3583307-.3495379-.6510652-.7605109-.8643-1.2134l-5.6165-12.0029c-.2108775-.46665438-.5934925-.8340837-1.0683-1.0259-.0459-.0161-.0889-.0318-.1289-.0489-.9742023-.30279584-2.0229344.1558434-2.462 1.0767l-5.62 12.0093c-.2072517.4507179-.4955742.8595081-.8506 1.206-.3859052.3690891-.8422644.6565838-1.3418.8453-.257549.1077562-.5270125.1844628-.8027.2285l-12.8253 1.9638c-.27252793.0358956-.53283467.1352231-.76.29-.25655218.1531316-.47468086.3629142-.6377.6133-.53147331.7988687-.42694534 1.8615.25 2.5415l9.4512 9.7119c.1975672.2051913.3733084.4303304.5244.6718.1721439.2750504.30775.5713399.4034.8814.2103033.6171123.2656277 1.2764714.1611 1.92l-.13.8023c-.0571625.3527283-.2981611.6481669-.6322141.7750269-.3340529.12686-.7104095.0658683-.9873-.16-.2768904-.2258683-.4122484-.5822986-.3550859-.9350269l.13-.8c.0521214-.3312339.0215829-.670215-.0889-.9868-.0480178-.1575714-.116645-.3081075-.2041-.4477-.077755-.1223804-.1677148-.236564-.2685-.3408l-9.4383-9.6985c-1.32781573-1.357873-1.52796421-3.4582865-.4805-5.0425.31309009-.4791755.72826849-.8831873 1.2158-1.1831.46154474-.310827.9879461-.5122078 1.5391-.5888l12.793-1.959c.1300125-.0196122.2572148-.0546944.3789-.1045.2663241-.0963391.5104404-.2454891.7177-.4385.1786552-.1767364.3233228-.3847893.4268-.6138l5.6211-12.01c.4534603-.99006361 1.2965947-1.74820033 2.3291-2.0943.8634721-.30399915 1.8049846-.30329336 2.668.002.0322.0127.0644.0264.0957.042.0423217.00929253.0830999.02458012.1211.0454.9168481.38520552 1.6551971 1.10127875 2.0683 2.0059l5.6182 12.0078c.1113397.2351532.2645343.4480873.4521.6284.1860585.1757504.4055831.3122604.6455.4014.108145.0522332.2232665.088575.3418.1079.029908.004339.0595788.0101798.0889.0175l.0332.0074 12.7588 1.955c.4461153.0647549.8778319.2054924 1.2764.4161 1.1224667.5981572 1.8997531 1.6877647 2.1 2.9438.2060891 1.2593581-.1997014 2.5416011-1.0928 3.4531l-9.4492 9.71c-.2059169.2170121-.3636615.4750807-.4629.7573-.114526.3245161-.1447712.6727997-.0879 1.0122l2.1992 13.564c.1972419 1.1885407-.148469 2.4029261-.9421138 3.3093815-.7936447.9064553-1.9517047 1.4095906-3.1558862 1.3711185-.6373683-.017616-1.260711-.1911425-1.8155-.5054l-11.1679-6.1885c-.1060642-.0566798-.2156946-.1064177-.3282-.1489-.4206706-.1415993-.8761294-.1415993-1.2968 0-.1172585.0444597-.2314419.0966407-.3418.1562l-11.1563 6.1827c-.5550001.3100689-1.1748593.4859582-1.81.5136-.0368.001-.0737667.0015-.1109.0015z"/></g></g></g></svg>