<?xml version="1.0" encoding="iso-8859-1"?>
<!-- Generator: Adobe Illustrator 19.0.0, SVG Export Plug-In . SVG Version: 6.00 Build 0)  -->
<svg version="1.1" id="Capa_1" xmlns="http://www.w3.org/2000/svg" xmlns:xlink="http://www.w3.org/1999/xlink" x="0px" y="0px"
	 viewBox="0 0 502.595 502.595" style="enable-background:new 0 0 502.595 502.595;" xml:space="preserve">
<g transform="translate(0 -1)">
	<path style="fill:#FFFFFF;" d="M9.66,155.692v183.547l106.264-0.049l133.6,122.732c6.347,3.734,14.217,3.743,20.572,0.024
		s10.202-10.586,10.054-17.948V60.595c0.147-7.362-3.699-14.229-10.054-17.948s-14.226-3.71-20.572,0.024l-133.6,113.022H9.66z"/>
	<path style="fill:#A4C2F7;" d="M115.925,339.19l133.6,122.732c6.347,3.734,14.217,3.743,20.572,0.024s10.202-10.586,10.054-17.948
		V60.595c0.147-7.362-3.699-14.229-10.054-17.948s-14.226-3.71-20.572,0.024l-133.6,113.022V339.19z"/>
	<path style="fill:#E3E7F2;" d="M38.642,155.692v183.547l77.283-0.049l104.619,96.653c13.548,8.155,30.627,24.238,30.627,8.154
		V60.595c0-16.083-17.079,0-30.627,8.154l-104.619,86.943H38.642z"/>
	<g>
		<path style="fill:#428DFF;" d="M259.83,474.504c-5.392-0.015-10.678-1.506-15.283-4.311c-0.558-0.331-1.08-0.72-1.557-1.16
			L112.16,348.853L9.66,348.9l0,0c-5.335-0.001-9.659-4.326-9.66-9.66V155.692c-0.001-2.563,1.016-5.021,2.828-6.833
			c1.812-1.812,4.27-2.829,6.833-2.828h102.726L243.292,35.296c0.392-0.333,0.812-0.633,1.255-0.896
			c9.124-5.589,20.57-5.752,29.849-0.425c9.616,5.392,15.526,15.599,15.415,26.623v383.396c0.111,11.024-5.799,21.231-15.415,26.623
			C269.958,473.148,264.94,474.487,259.83,474.504L259.83,474.504z M255.236,454.051c3.056,1.553,6.69,1.457,9.66-0.255
			c3.514-2.001,5.659-5.759,5.594-9.802V60.598c0.064-4.044-2.08-7.801-5.594-9.802c-3.021-1.75-6.732-1.815-9.811-0.17
			L122.16,163.07c-1.744,1.473-3.953,2.282-6.236,2.283H19.321v164.226l96.604-0.047l0,0c2.422-0.002,4.756,0.907,6.538,2.547
			L255.236,454.051z"/>
		<path style="fill:#428DFF;" d="M115.925,213.654c-2.563,0.001-5.021-1.016-6.833-2.828c-1.812-1.812-2.829-4.27-2.828-6.833
			v-48.302c0-5.335,4.325-9.66,9.66-9.66s9.66,4.325,9.66,9.66v48.302c0.001,2.563-1.016,5.021-2.828,6.833
			C120.945,212.639,118.487,213.656,115.925,213.654z"/>
		<path style="fill:#428DFF;" d="M115.925,348.9c-2.563,0.001-5.021-1.016-6.833-2.828c-1.812-1.812-2.829-4.27-2.828-6.833v-48.302
			c0-5.335,4.325-9.66,9.66-9.66s9.66,4.325,9.66,9.66v48.302c0.001,2.563-1.016,5.021-2.828,6.833
			C120.945,347.884,118.487,348.901,115.925,348.9L115.925,348.9z"/>
		<path style="fill:#428DFF;" d="M371.934,426.183c-4.724,0-8.755-3.417-9.529-8.078c-0.774-4.66,1.936-9.197,6.406-10.724
			c68.483-23.31,114.514-87.65,114.462-159.991c-0.051-72.342-46.173-136.616-114.689-159.829c-3.269-1.109-5.699-3.878-6.373-7.263
			c-0.674-3.386,0.509-6.874,3.104-9.151s6.208-2.996,9.477-1.888c76.349,25.872,127.743,97.495,127.802,178.108
			c0.06,80.613-51.228,152.313-127.538,178.297C374.052,426.01,372.997,426.185,371.934,426.183L371.934,426.183z"/>
		<path style="fill:#428DFF;" d="M318.792,373.06c-4.814,0.001-8.895-3.542-9.569-8.308c-0.674-4.767,2.264-9.302,6.89-10.636
			c47.509-13.715,80.217-57.202,80.217-106.651s-32.708-92.936-80.217-106.651c-3.325-0.95-5.888-3.605-6.721-6.961
			c-0.834-3.356,0.19-6.901,2.683-9.297c2.493-2.396,6.077-3.276,9.397-2.309c55.778,16.104,94.179,67.16,94.179,125.217
			s-38.401,109.113-94.179,125.217C320.6,372.932,319.699,373.059,318.792,373.06z"/>
	</g>
</g>
<g>
</g>
<g>
</g>
<g>
</g>
<g>
</g>
<g>
</g>
<g>
</g>
<g>
</g>
<g>
</g>
<g>
</g>
<g>
</g>
<g>
</g>
<g>
</g>
<g>
</g>
<g>
</g>
<g>
</g>
</svg>
